<svg width="184" height="81" viewBox="0 0 184 81" fill="none" xmlns="http://www.w3.org/2000/svg">
<path d="M60.2736 19.9641L47.3309 67.4855L12.7521 32.9068L60.2736 19.9641Z" fill="url(#paint0_linear_264_2044)"/>
<path d="M51.7171 50V38.08H52.9971V45.04L52.7091 44.896L58.7091 38.08H60.3091L55.4931 43.552L55.5571 42.64L60.5971 50H59.0611L54.9971 44.128L52.9971 46.4V50H51.7171ZM62.0098 50V41.424H63.2098V43.088L62.9378 43.024C63.1512 42.4693 63.4978 42.032 63.9778 41.712C64.4685 41.392 65.0338 41.232 65.6738 41.232C66.2818 41.232 66.8258 41.3707 67.3058 41.648C67.7965 41.9253 68.1805 42.3093 68.4578 42.8C68.7458 43.28 68.8898 43.824 68.8898 44.432V50H67.6898V44.896C67.6898 44.3733 67.5938 43.9307 67.4018 43.568C67.2205 43.2053 66.9592 42.928 66.6178 42.736C66.2872 42.5333 65.9032 42.432 65.4658 42.432C65.0285 42.432 64.6392 42.5333 64.2978 42.736C63.9565 42.928 63.6898 43.2107 63.4978 43.584C63.3058 43.9467 63.2098 44.384 63.2098 44.896V50H62.0098ZM75.1977 50.192C74.387 50.192 73.651 50 72.9897 49.616C72.3284 49.2213 71.8004 48.688 71.4057 48.016C71.0217 47.3333 70.8297 46.56 70.8297 45.696C70.8297 44.8427 71.0217 44.08 71.4057 43.408C71.7897 42.736 72.307 42.208 72.9577 41.824C73.619 41.4293 74.3657 41.232 75.1977 41.232C76.0297 41.232 76.771 41.424 77.4217 41.808C78.083 42.192 78.6004 42.72 78.9737 43.392C79.3577 44.064 79.5497 44.832 79.5497 45.696C79.5497 46.5707 79.3524 47.3493 78.9577 48.032C78.563 48.704 78.035 49.232 77.3737 49.616C76.723 50 75.9977 50.192 75.1977 50.192ZM75.1977 48.992C75.7737 48.992 76.291 48.848 76.7497 48.56C77.219 48.272 77.587 47.8773 77.8537 47.376C78.131 46.8747 78.2697 46.3147 78.2697 45.696C78.2697 45.0773 78.131 44.5227 77.8537 44.032C77.587 43.5413 77.219 43.152 76.7497 42.864C76.291 42.576 75.7737 42.432 75.1977 42.432C74.6217 42.432 74.099 42.576 73.6297 42.864C73.171 43.152 72.803 43.5413 72.5257 44.032C72.2484 44.5227 72.1097 45.0773 72.1097 45.696C72.1097 46.3147 72.2484 46.8747 72.5257 47.376C72.803 47.8773 73.171 48.272 73.6297 48.56C74.099 48.848 74.6217 48.992 75.1977 48.992ZM83.3978 50L80.4538 41.424H81.8138L84.2458 48.928H83.7658L86.0538 41.424H87.2538L89.5418 48.928H89.0618L91.5098 41.424H92.8538L89.9098 50H88.7098L86.4858 42.656H86.8218L84.5978 50H83.3978ZM97.1546 50V38.08H98.2746L102.755 44.576H102.131L106.595 38.08H107.715V50H106.435V39.808L106.851 39.968L102.467 46.32H102.403L98.0346 39.968L98.4346 39.808V50H97.1546ZM114.37 50.192C113.559 50.192 112.823 50 112.162 49.616C111.5 49.2213 110.972 48.688 110.578 48.016C110.194 47.3333 110.002 46.56 110.002 45.696C110.002 44.8427 110.194 44.08 110.578 43.408C110.962 42.736 111.479 42.208 112.13 41.824C112.791 41.4293 113.538 41.232 114.37 41.232C115.202 41.232 115.943 41.424 116.594 41.808C117.255 42.192 117.772 42.72 118.146 43.392C118.53 44.064 118.722 44.832 118.722 45.696C118.722 46.5707 118.524 47.3493 118.13 48.032C117.735 48.704 117.207 49.232 116.546 49.616C115.895 50 115.17 50.192 114.37 50.192ZM114.37 48.992C114.946 48.992 115.463 48.848 115.922 48.56C116.391 48.272 116.759 47.8773 117.026 47.376C117.303 46.8747 117.442 46.3147 117.442 45.696C117.442 45.0773 117.303 44.5227 117.026 44.032C116.759 43.5413 116.391 43.152 115.922 42.864C115.463 42.576 114.946 42.432 114.37 42.432C113.794 42.432 113.271 42.576 112.802 42.864C112.343 43.152 111.975 43.5413 111.698 44.032C111.42 44.5227 111.282 45.0773 111.282 45.696C111.282 46.3147 111.42 46.8747 111.698 47.376C111.975 47.8773 112.343 48.272 112.802 48.56C113.271 48.848 113.794 48.992 114.37 48.992ZM120.838 50V41.424H122.038V42.832L121.878 42.624C122.081 42.2187 122.385 41.8987 122.79 41.664C123.206 41.4293 123.707 41.312 124.294 41.312H124.838V42.512H124.086C123.467 42.512 122.971 42.704 122.598 43.088C122.225 43.472 122.038 44.016 122.038 44.72V50H120.838ZM130.148 50.192C129.348 50.192 128.623 50 127.972 49.616C127.332 49.2213 126.826 48.6827 126.452 48C126.079 47.3173 125.892 46.544 125.892 45.68C125.892 44.816 126.074 44.0533 126.436 43.392C126.799 42.72 127.29 42.192 127.908 41.808C128.538 41.424 129.242 41.232 130.02 41.232C130.639 41.232 131.188 41.3493 131.668 41.584C132.159 41.808 132.575 42.1173 132.916 42.512C133.258 42.896 133.519 43.3333 133.7 43.824C133.882 44.304 133.972 44.8 133.972 45.312C133.972 45.4187 133.967 45.5413 133.956 45.68C133.946 45.808 133.93 45.9413 133.908 46.08H126.66V44.96H133.22L132.644 45.44C132.74 44.8533 132.671 44.3307 132.436 43.872C132.212 43.4027 131.887 43.0347 131.46 42.768C131.034 42.4907 130.554 42.352 130.02 42.352C129.487 42.352 128.991 42.4907 128.532 42.768C128.084 43.0453 127.732 43.4347 127.476 43.936C127.22 44.4267 127.119 45.0133 127.172 45.696C127.119 46.3787 127.226 46.976 127.492 47.488C127.77 47.9893 128.143 48.3787 128.612 48.656C129.092 48.9333 129.604 49.072 130.148 49.072C130.778 49.072 131.306 48.9227 131.732 48.624C132.159 48.3253 132.506 47.952 132.772 47.504L133.796 48.048C133.626 48.432 133.364 48.7893 133.012 49.12C132.66 49.44 132.239 49.7013 131.748 49.904C131.268 50.096 130.735 50.192 130.148 50.192Z" fill="black"/>
<path d="M183.37 46.0607C183.956 45.4749 183.956 44.5251 183.37 43.9393L173.824 34.3934C173.238 33.8076 172.288 33.8076 171.702 34.3934C171.117 34.9792 171.117 35.9289 171.702 36.5147L180.188 45L171.702 53.4853C171.117 54.0711 171.117 55.0208 171.702 55.6066C172.288 56.1924 173.238 56.1924 173.824 55.6066L183.37 46.0607ZM150.309 46.5H182.309V43.5H150.309V46.5Z" fill="#A78EE9"/>
<defs>
<linearGradient id="paint0_linear_264_2044" x1="49.2667" y1="58.2471" x2="15.6472" y2="36.1296" gradientUnits="userSpaceOnUse">
<stop stop-color="#C17FFF"/>
<stop offset="1" stop-color="#5245ED"/>
</linearGradient>
</defs>
</svg>
