<svg width="416" height="500" viewBox="0 0 416 500" fill="none" xmlns="http://www.w3.org/2000/svg">
<rect x="0.75" y="0.75" width="414.5" height="498.5" rx="7.25" fill="#F7F7FD" stroke="#E0DEF7" stroke-width="1.5"/>
<mask id="mask0_262_1461" style="mask-type:alpha" maskUnits="userSpaceOnUse" x="0" y="0" width="416" height="500">
<rect x="0.75" y="0.75" width="414.5" height="498.5" rx="7.25" fill="#F7F7FD" stroke="#E0DEF7" stroke-width="1.5"/>
</mask>
<g mask="url(#mask0_262_1461)">
<path d="M367.921 645.92L556 537.332L244.079 357.246L56 465.833L367.921 645.92Z" fill="#2516DF"/>
<path d="M548.964 537.333L244.082 361.31L63.0391 465.832L367.923 641.858L548.964 537.333Z" fill="#A9A2F6"/>
<path d="M309.43 606.534L365.697 574.047L424.183 607.813L367.913 640.3L309.43 606.534ZM244.721 504.203L296.615 534.163L240.348 566.649L188.453 536.688L244.721 504.203ZM418.662 463.7L364.044 495.232L312.151 465.272L366.768 433.739L418.662 463.7ZM433.127 535.118L487.743 503.584L546.227 537.35L491.609 568.883L433.127 535.118ZM428.996 537.502L487.481 571.267L428.31 605.429L369.827 571.663L428.996 537.502ZM368.173 497.617L422.789 466.083L483.613 501.2L428.996 532.733L368.173 497.617ZM300.745 531.78L248.85 501.818L308.022 467.656L359.915 497.617L300.745 531.78ZM361.569 571.663L305.3 604.15L244.477 569.034L300.745 536.546L361.569 571.663ZM304.874 534.163L364.044 500.001L424.868 535.118L365.697 569.279L304.874 534.163ZM422.815 461.327L422.803 461.307L422.791 461.315L366.768 428.969L180.194 536.688L367.913 645.068L554.487 537.35L422.815 461.327Z" fill="#F0EFFB"/>
<path d="M108.167 405.634V409.364C108.284 410.396 109.059 411.475 110.537 412.319C112.555 413.492 115.299 413.938 117.622 413.586C118.606 413.446 119.521 413.164 120.272 412.718L162.357 388.415C163.46 387.805 163.976 386.961 164.023 386.092L164.046 382.456L161.372 382.668C158.51 381.143 154.358 381.002 151.941 382.409L116.283 402.984L110.396 406.385L110.279 405.634H108.167Z" fill="#C7784C"/>
<path d="M108.167 405.634V409.364C108.284 410.396 109.059 411.475 110.537 412.319C112.555 413.492 115.299 413.938 117.622 413.586V402.984H116.283L110.396 406.385L110.279 405.634H108.167Z" fill="#DFCFB5"/>
<path d="M120.271 409.207L162.366 384.904C164.861 383.463 164.547 380.948 161.667 379.285V379.284C158.786 377.621 154.43 377.442 151.935 378.882L109.84 403.185C107.345 404.625 107.659 407.141 110.539 408.804C113.42 410.466 117.777 410.647 120.271 409.207Z" fill="white"/>
<path d="M309.839 400.031L309.826 400.008L309.811 400.015L244.691 362.417L64.728 466.04L290.922 596.583L470.884 492.961L309.839 400.031Z" fill="#E8E6F9"/>
<path d="M470.883 459.544L421.744 431.173V398.637L426.956 400.525L421.741 397.534V394.284L386.878 377.209L386.738 377.455L317.776 337.897L314.622 336.755V334.488L276.316 274.579L262.133 282.773L230.685 291.166L104.551 364.039L107.963 363.128L107.864 363.186V385.768L64.7275 410.672V349.63L244.7 246L470.883 376.536V459.544Z" fill="url(#paint0_linear_262_1461)"/>
<path d="M470.884 487.768L421.745 459.397V430.751L470.884 459.122V487.768ZM64.728 460.371V410.25L107.864 385.346V416.19V435.916L64.728 460.371Z" fill="url(#paint1_linear_262_1461)"/>
<path d="M186.436 408.55L107.864 363.187L233.997 290.315L312.569 335.679L186.436 408.55Z" fill="#A8A2F6"/>
<path d="M186.436 502.612V408.551L312.569 335.679V429.741L186.436 502.612Z" fill="#7065F0"/>
<path d="M221.389 478.075L193.859 493.97V431.463L221.389 415.569V478.075Z" fill="#F7F7FD"/>
<path d="M107.864 457.249V363.187L186.436 408.551V502.612L107.864 457.249Z" fill="#A8A2F6"/>
<path d="M118.51 385.579V446.056L129.029 452.116V391.638L118.51 385.579Z" fill="#F7F7FD"/>
<path d="M133.225 394.069V454.546L143.743 460.606V400.128L133.225 394.069Z" fill="#F7F7FD"/>
<path d="M147.939 402.559V463.037L158.459 469.096V408.619L147.939 402.559Z" fill="#F7F7FD"/>
<path d="M162.654 411.049V471.526L173.172 477.586V417.109L162.654 411.049Z" fill="#F7F7FD"/>
<path d="M336.904 447.261L227.724 384.634L312.564 335.674L421.744 398.301L336.904 447.261Z" fill="#7065F0"/>
<path d="M336.904 541.399V447.262L421.744 398.303V492.439L336.904 541.399Z" fill="#7065F0"/>
<path d="M227.724 478.772V384.636L336.904 447.262V541.399L227.724 478.772Z" fill="#A8A2F6"/>
<path d="M329.377 530.434L235.25 476.091V413.872L329.377 468.217V530.434Z" fill="#F7F7FD"/>
<path d="M207.491 408.145L203.195 403.273L222.75 391.975L227.724 394.828V396.938L207.491 408.145Z" fill="#5245ED"/>
<path d="M227.724 396.938V394.828L227.732 394.834L227.734 396.933L227.724 396.938Z" fill="#013BA1"/>
<path d="M104.551 364.04L150.182 351.861L276.316 278.989L230.685 291.167L104.551 364.04Z" fill="#5598E9"/>
<path d="M188.488 411.77L150.182 351.86L276.316 278.988L314.621 338.897L188.488 411.77Z" fill="#3F461D"/>
<path d="M314.622 334.489V338.897L188.489 411.77V407.36L314.622 334.489Z" fill="#7065F0"/>
<path d="M161.442 384.383L147.107 364.063L119.87 370.119L107.864 363.187L110.087 362.563L150.182 351.862L169.475 382.034L161.442 384.383Z" fill="#5245ED"/>
<path d="M107.867 372.787L107.864 363.187L119.87 370.118L107.867 372.787Z" fill="#5245ED"/>
<path d="M110.086 362.562L150.007 351.349L150.182 351.624V351.862L110.086 362.562Z" fill="#073CAE"/>
<path d="M104.551 359.63L150.182 347.453L276.316 274.581L230.685 286.758L104.551 359.63Z" fill="#CBC7FA"/>
<path d="M188.488 407.361L150.182 347.453L276.316 274.58L314.621 334.489L188.488 407.361Z" fill="#A8A2F6"/>
<path d="M214.158 374.63L192.54 366.904L192.542 352.709L210.522 359.347L218.666 368.546L214.158 374.63Z" fill="#5245ED"/>
<path d="M192.539 351.61L184.723 347.098L192.491 342.613L200.307 347.126L192.539 351.61Z" fill="#A8A2F6"/>
<path d="M192.541 351.568L184.146 346.719L192.489 341.902L200.886 346.75L192.541 351.568Z" fill="#CBC7FA"/>
<path d="M192.542 353.026L200.886 348.208V346.75L192.542 351.568V353.026Z" fill="#2516DF"/>
<path d="M184.146 348.178L192.541 353.026V351.568L184.146 346.719V348.178Z" fill="#A8A2F6"/>
<path d="M198.024 347.116L192.53 350.296L192.512 350.277L187.017 347.099L192.494 343.938L192.512 343.956L198.024 347.116Z" fill="#2516DF"/>
<path d="M198.024 347.116L192.529 350.296L192.512 350.277V343.956L198.024 347.116Z" fill="#A8A2F6"/>
<path d="M192.54 366.903L200.307 362.419V347.126L192.54 351.61V366.903Z" fill="#2516DF"/>
<path d="M184.725 354.761L192.54 366.903V351.61L184.725 347.097V354.761Z" fill="#A8A2F6"/>
<path d="M192.544 343.543L191.44 342.905L192.536 342.273L193.64 342.909L192.544 343.543Z" fill="#A8A2F6"/>
<path d="M192.544 351.197L193.64 350.564V342.909L192.544 343.543V351.197Z" fill="#2516DF"/>
<path d="M191.44 350.56L192.544 351.197V343.543L191.44 342.905V350.56Z" fill="#A8A2F6"/>
<path d="M192.544 343.543L191.8 343.113L192.531 342.693L193.282 343.117L192.544 343.543Z" fill="#096EA8"/>
<path d="M192.552 345.892L192.544 345.887V343.544L193.282 343.117L193.637 343.317V345.268L192.552 345.892Z" fill="#093B7D"/>
<path d="M192.544 345.887L191.444 345.247V343.316L191.799 343.114L192.544 343.543V345.887Z" fill="#096EA8"/>
<path d="M199.215 339.687L198.111 339.05L199.207 338.417L200.312 339.053L199.215 339.687Z" fill="#A8A2F6"/>
<path d="M199.214 347.341L200.312 346.708V339.053L199.214 339.687V347.341Z" fill="#2516DF"/>
<path d="M198.111 346.704L199.215 347.341V339.687L198.111 339.05V346.704Z" fill="#A8A2F6"/>
<path d="M199.215 339.687L198.465 339.255L198.945 338.973L199.691 339.412L199.215 339.687Z" fill="#096EA8"/>
<path d="M199.214 342.041V339.688L199.69 339.413L200.312 339.778V341.407L199.214 342.041Z" fill="#093B7D"/>
<path d="M199.211 342.042L198.121 341.536V339.457L198.465 339.255L199.215 339.687V342.04L199.211 342.042Z" fill="#096EA8"/>
<path d="M185.828 339.667L184.723 339.031L185.82 338.397L186.924 339.035L185.828 339.667Z" fill="#A8A2F6"/>
<path d="M185.828 347.323L186.924 346.689V339.035L185.828 339.668V347.323Z" fill="#2516DF"/>
<path d="M184.723 346.685L185.828 347.323V339.668L184.723 339.031V346.685Z" fill="#A8A2F6"/>
<path d="M185.828 339.667L185.337 339.385L186.077 338.953L186.564 339.243L185.828 339.667Z" fill="#096EA8"/>
<path d="M185.828 342.019V339.667L186.564 339.243L186.921 339.457V341.408L185.828 342.019Z" fill="#093B7D"/>
<path d="M185.825 342.02L184.73 341.386V339.738L185.337 339.385L185.828 339.667V342.018L185.825 342.02Z" fill="#096EA8"/>
<path d="M192.545 343.532L183.31 338.199L192.487 332.901L201.723 338.232L192.545 343.532Z" fill="white"/>
<path d="M192.545 345.136L201.723 339.837V338.233L192.545 343.533V345.136Z" fill="#A8A2F6"/>
<path d="M183.31 339.804L192.545 345.136V343.533L183.31 338.2V339.804Z" fill="#CBC7FA"/>
<path d="M331.868 454.567L222.688 391.94L256.841 360.154L366.021 422.781L331.868 454.567Z" fill="#5598E9"/>
<path d="M317.775 337.898L277.696 323.387L386.877 386.014L426.955 400.525L317.775 337.898Z" fill="#DDB79B"/>
<path d="M386.878 386.015L366.021 422.781L256.841 360.154L277.697 323.387L386.878 386.015Z" fill="#433E44"/>
<path d="M336.907 459.543L336.904 449.882V459.452L336.907 459.449V459.543Z" fill="#02288E"/>
<path d="M336.907 459.543L227.733 396.933V394.835L331.868 454.568L336.903 449.882V459.541" fill="#5245ED"/>
<path d="M227.733 387.244V384.687L227.909 384.586L229.568 385.538L227.733 387.244Z" fill="#02288E"/>
<path d="M227.733 384.687V384.485L227.909 384.586L227.733 384.687Z" fill="#0852BE"/>
<path d="M331.868 454.567L227.733 394.835V387.244L229.568 385.538L336.907 447.095L336.903 449.882L331.868 454.567Z" fill="#073CAE"/>
<path d="M344.313 442.986L366.021 422.781L386.878 386.015L385.02 384.948L386.878 386.015L421.386 398.509L411.124 404.431L386.878 395.663L367.684 429.498L344.313 442.986Z" fill="#5245ED"/>
<path d="M336.907 459.449V449.879L344.313 442.987L367.683 429.499L366.021 432.431L336.907 459.449ZM421.741 408.271L411.123 404.431L421.386 398.509L421.741 398.637V408.271Z" fill="#5245ED"/>
<path d="M336.907 449.878V447.095L336.904 440.998L360.158 419.417L366.021 422.781L344.313 442.986L336.907 449.878Z" fill="#033093"/>
<path d="M421.74 397.534L386.737 377.455L386.878 377.209L421.74 394.284V397.534Z" fill="url(#paint2_linear_262_1461)"/>
<path d="M421.741 398.638L421.385 398.51L386.878 386.016L385.019 384.949L386.878 381.673L384.967 380.577L386.737 377.457L421.741 397.536V398.638Z" fill="#073962"/>
<path d="M366.021 422.781L360.158 419.417L363.05 416.733L366.021 418.437L385.019 384.948L386.878 386.015L366.021 422.781Z" fill="#02132B"/>
<path d="M336.904 459.453V449.883L336.907 449.879V459.449L336.904 459.453Z" fill="#000D5A"/>
<path d="M336.904 449.883V447.095L336.907 447.097V449.88L336.904 449.883Z" fill="#00136E"/>
<path d="M331.868 450.226L222.688 387.597L256.841 355.812L366.021 418.439L331.868 450.226Z" fill="#A8A2F6"/>
<path d="M317.775 333.554L277.696 319.044L386.877 381.671L426.955 396.181L317.775 333.554Z" fill="#A8A2F6"/>
<path d="M386.878 381.672L366.021 418.438L256.841 355.812L277.697 319.045L386.878 381.672Z" fill="#CBC7FA"/>
<path d="M150.182 347.453V351.861L104.551 364.04V359.63L150.182 347.453Z" fill="#A8A2F6"/>
<path d="M150.182 347.452V351.86L188.488 411.77V407.36L150.182 347.452Z" fill="#A8A2F6"/>
<path d="M426.956 400.525V396.182L386.878 381.672L366.021 418.439L331.868 450.225V454.567L366.021 422.781L386.878 386.015L426.956 400.525Z" fill="#2516DF"/>
<path d="M331.868 454.567V450.225L222.688 387.596V391.94L331.868 454.567Z" fill="#A8A2F6"/>
<path d="M287.376 368.124V345.659L281.213 342.098L279.93 330.04H287.376L310.28 342.793L309.891 346.094L304.013 355.655L287.376 368.124Z" fill="#5245ED"/>
<path d="M294.888 342.227V354.967L287.376 368.124V345.659L294.888 342.227Z" fill="#2516DF"/>
<path d="M287.376 368.124L272.483 359.519V337.055L287.376 345.659V368.124Z" fill="#A8A2F6"/>
<path d="M285.291 345.151L268.547 335.476L280.207 328.955L296.952 338.63L285.291 345.151Z" fill="#CBC7FA"/>
<path d="M285.291 344.407L268.547 334.731L280.207 328.209L296.952 337.884L285.291 344.407Z" fill="white"/>
<path d="M286.411 346.954L294.889 342.227L296.952 338.631L285.291 345.152L286.411 346.954Z" fill="#2516DF"/>
<path d="M268.547 335.477L269.668 337.278L286.411 346.954L285.291 345.152L268.547 335.477Z" fill="#A8A2F6"/>
<path d="M285.291 345.151V344.406L296.952 337.883V338.63L285.291 345.151Z" fill="#A8A2F6"/>
<path d="M285.291 345.151V344.406L268.547 334.73V335.476L285.291 345.151Z" fill="#CBC7FA"/>
<path d="M273.807 359.145V341.32L286.055 348.387V366.211L273.807 359.145Z" fill="#A8A2F6"/>
<path d="M275.242 343.812V358.317L284.619 363.72V349.214L275.242 343.812Z" fill="white"/>
<path d="M276.858 344.745V357.63L284.619 362.099V363.72L275.242 358.318V343.812L276.858 344.745Z" fill="#2516DF"/>
<path d="M276.858 357.63L275.242 358.318L284.619 363.72V362.099L276.858 357.63Z" fill="#CBC7FA"/>
<path d="M278.052 358.319H275.242L276.858 357.631V344.745L278.084 345.45L278.052 358.319Z" fill="#0C59BE"/>
<path d="M318.833 386.135L313.493 367.857L311.387 348.051H318.833L341.738 360.803L341.348 364.105L335.469 373.666L318.833 386.135Z" fill="#5245ED"/>
<path d="M326.345 360.237V372.977L318.833 386.135V363.671L326.345 360.237Z" fill="#2516DF"/>
<path d="M318.833 386.135L303.94 377.529V355.065L318.833 363.671V386.135Z" fill="#A8A2F6"/>
<path d="M316.748 363.165L300.003 353.49L311.665 346.968L328.408 356.644L316.748 363.165Z" fill="#CBC7FA"/>
<path d="M316.748 362.417L300.003 352.741L311.665 346.22L328.408 355.895L316.748 362.417Z" fill="white"/>
<path d="M317.867 364.966L326.345 360.237L328.408 356.643L316.748 363.164L317.867 364.966Z" fill="#2516DF"/>
<path d="M300.003 353.489L301.123 355.29L317.867 364.966L316.748 363.164L300.003 353.489Z" fill="#A8A2F6"/>
<path d="M316.748 363.165V362.418L328.408 355.896V356.644L316.748 363.165Z" fill="#A8A2F6"/>
<path d="M316.748 363.165V362.418L300.003 352.743V353.49L316.748 363.165Z" fill="#CBC7FA"/>
<path d="M305.262 377.157V359.332L317.511 366.399V384.223L305.262 377.157Z" fill="#A8A2F6"/>
<path d="M306.698 361.824V376.329L316.075 381.732V367.226L306.698 361.824Z" fill="white"/>
<path d="M308.314 362.757V375.643L316.075 380.111V381.732L306.698 376.33V361.824L308.314 362.757Z" fill="#2516DF"/>
<path d="M308.314 375.643L306.698 376.33L316.075 381.732V380.111L308.314 375.643Z" fill="#CBC7FA"/>
<path d="M306.698 376.33H309.51L309.541 363.461L308.314 362.756V375.642L306.698 376.33Z" fill="#2516DF"/>
<path d="M350.29 404.147L344.95 385.869L342.843 366.063H350.29L373.194 378.816L372.804 382.117L366.924 391.678L350.29 404.147Z" fill="#5245ED"/>
<path d="M357.801 378.25V390.991L350.29 404.147V381.683L357.801 378.25Z" fill="#2516DF"/>
<path d="M350.29 404.147L335.397 395.542V373.078L350.29 381.683V404.147Z" fill="#A8A2F6"/>
<path d="M348.203 381.176L331.459 371.501L343.121 364.979L359.864 374.655L348.203 381.176Z" fill="#CBC7FA"/>
<path d="M348.203 380.43L331.459 370.755L343.121 364.233L359.864 373.909L348.203 380.43Z" fill="white"/>
<path d="M349.323 382.978L357.801 378.251L359.864 374.656L348.203 381.176L349.323 382.978Z" fill="#2516DF"/>
<path d="M331.459 371.501L332.58 373.302L349.323 382.978L348.203 381.176L331.459 371.501Z" fill="#A8A2F6"/>
<path d="M348.203 381.176V380.429L359.864 373.909V374.655L348.203 381.176Z" fill="#A8A2F6"/>
<path d="M348.203 381.176V380.429L331.459 370.754V371.501L348.203 381.176Z" fill="#CBC7FA"/>
<path d="M336.718 395.169V377.344L348.967 384.41V402.234L336.718 395.169Z" fill="#A8A2F6"/>
<path d="M338.154 379.837V394.341L347.531 399.744V385.238L338.154 379.837Z" fill="white"/>
<path d="M339.77 380.768V393.655L347.53 398.123V399.744L338.154 394.342V379.836L339.77 380.768Z" fill="#2516DF"/>
<path d="M339.77 393.655L338.154 394.342L347.53 399.744V398.123L339.77 393.655Z" fill="#CBC7FA"/>
<path d="M338.154 394.342H340.966L340.996 381.473L339.77 380.768V393.655L338.154 394.342Z" fill="#2516DF"/>
</g>
<defs>
<linearGradient id="paint0_linear_262_1461" x1="267.806" y1="326.094" x2="267.806" y2="435.715" gradientUnits="userSpaceOnUse">
<stop stop-color="#F7F7FD"/>
<stop offset="1" stop-color="#E8E6F9"/>
</linearGradient>
<linearGradient id="paint1_linear_262_1461" x1="267.807" y1="326.095" x2="267.807" y2="435.717" gradientUnits="userSpaceOnUse">
<stop stop-color="#FFFCF7"/>
<stop offset="1" stop-color="#E8E6F9"/>
</linearGradient>
<linearGradient id="paint2_linear_262_1461" x1="267.806" y1="326.094" x2="267.806" y2="435.715" gradientUnits="userSpaceOnUse">
<stop stop-color="#0850A1"/>
<stop offset="1" stop-color="#074CA1"/>
</linearGradient>
</defs>
</svg>
