<svg width="20" height="21" viewBox="0 0 20 21" fill="none" xmlns="http://www.w3.org/2000/svg">
<path d="M17.4998 9.19954H5.83317V6.69954C5.83317 5.78038 6.58067 5.03288 7.49984 5.03288C8.419 5.03288 9.1665 5.78038 9.1665 6.69954H10.8332C10.8332 4.86121 9.33817 3.36621 7.49984 3.36621C5.6615 3.36621 4.1665 4.86121 4.1665 6.69954V9.19954H2.49984C2.27882 9.19954 2.06686 9.28734 1.91058 9.44362C1.7543 9.5999 1.6665 9.81186 1.6665 10.0329V11.6995C1.6665 13.8712 3.0615 15.7187 4.99984 16.4079V19.1995H6.6665V16.6995H13.3332V19.1995H14.9998V16.4079C16.9382 15.7187 18.3332 13.8712 18.3332 11.6995V10.0329C18.3332 9.81186 18.2454 9.5999 18.0891 9.44362C17.9328 9.28734 17.7209 9.19954 17.4998 9.19954ZM16.6665 11.6995C16.6665 13.5379 15.1715 15.0329 13.3332 15.0329H6.6665C4.82817 15.0329 3.33317 13.5379 3.33317 11.6995V10.8662H16.6665V11.6995Z" fill="#7065F0"/>
</svg>
