<svg width="20" height="21" viewBox="0 0 20 21" fill="none" xmlns="http://www.w3.org/2000/svg">
<path d="M17.4998 9.84938V7.53272C17.4998 6.15772 16.3748 5.03271 14.9998 5.03271H11.6665C11.0248 5.03271 10.4415 5.28272 9.99984 5.68272C9.55817 5.28272 8.97484 5.03271 8.33317 5.03271H4.99984C3.62484 5.03271 2.49984 6.15772 2.49984 7.53272V9.84938C1.9915 10.3077 1.6665 10.966 1.6665 11.6994V16.6994H3.33317V15.0327H16.6665V16.6994H18.3332V11.6994C18.3332 10.966 18.0082 10.3077 17.4998 9.84938ZM11.6665 6.69938H14.9998C15.4582 6.69938 15.8332 7.07438 15.8332 7.53272V9.19938H10.8332V7.53272C10.8332 7.07438 11.2082 6.69938 11.6665 6.69938ZM4.1665 7.53272C4.1665 7.07438 4.5415 6.69938 4.99984 6.69938H8.33317C8.7915 6.69938 9.1665 7.07438 9.1665 7.53272V9.19938H4.1665V7.53272ZM3.33317 13.3661V11.6994C3.33317 11.241 3.70817 10.866 4.1665 10.866H15.8332C16.2915 10.866 16.6665 11.241 16.6665 11.6994V13.3661H3.33317Z" fill="#7065F0"/>
</svg>
