<svg width="288" height="82" viewBox="0 0 288 82" fill="none" xmlns="http://www.w3.org/2000/svg">
<path d="M60.4851 20.8303L47.5423 68.3518L12.9636 33.773L60.4851 20.8303Z" fill="url(#paint0_linear_264_2048)"/>
<path d="M51.7737 50.9849V39.0649H56.7817C57.4537 39.0649 58.0351 39.1929 58.5257 39.4489C59.0271 39.6942 59.4111 40.0409 59.6777 40.4889C59.9551 40.9369 60.0937 41.4595 60.0937 42.0569C60.0937 42.6755 59.9391 43.2249 59.6297 43.7049C59.3311 44.1742 58.8991 44.5315 58.3337 44.7769L58.3177 44.3929C58.7871 44.5635 59.1871 44.8035 59.5177 45.1129C59.8591 45.4222 60.1204 45.7849 60.3017 46.2009C60.4831 46.6062 60.5737 47.0435 60.5737 47.5129C60.5737 48.5795 60.2324 49.4275 59.5497 50.0569C58.8777 50.6755 57.9604 50.9849 56.7977 50.9849H51.7737ZM53.0537 49.7849H56.7977C57.5551 49.7849 58.1577 49.5875 58.6057 49.1929C59.0644 48.7875 59.2937 48.2329 59.2937 47.5289C59.2937 46.8355 59.0644 46.2862 58.6057 45.8809C58.1577 45.4649 57.5551 45.2569 56.7977 45.2569H53.0537V49.7849ZM53.0537 44.1049H56.6857C57.3257 44.1049 57.8377 43.9182 58.2217 43.5449C58.6164 43.1715 58.8137 42.6915 58.8137 42.1049C58.8137 41.5075 58.6164 41.0542 58.2217 40.7449C57.8377 40.4249 57.3257 40.2649 56.6857 40.2649H53.0537V44.1049ZM62.6915 50.9849V42.4089H63.8915V43.8169L63.7315 43.6089C63.9341 43.2035 64.2381 42.8835 64.6435 42.6489C65.0595 42.4142 65.5608 42.2969 66.1475 42.2969H66.6915V43.4969H65.9395C65.3208 43.4969 64.8248 43.6889 64.4515 44.0729C64.0781 44.4569 63.8915 45.0009 63.8915 45.7049V50.9849H62.6915ZM72.1137 51.1769C71.3031 51.1769 70.5671 50.9849 69.9057 50.6009C69.2444 50.2062 68.7164 49.6729 68.3217 49.0009C67.9377 48.3182 67.7457 47.5449 67.7457 46.6809C67.7457 45.8275 67.9377 45.0649 68.3217 44.3929C68.7057 43.7209 69.2231 43.1929 69.8737 42.8089C70.5351 42.4142 71.2817 42.2169 72.1137 42.2169C72.9457 42.2169 73.6871 42.4089 74.3377 42.7929C74.9991 43.1769 75.5164 43.7049 75.8897 44.3769C76.2737 45.0489 76.4657 45.8169 76.4657 46.6809C76.4657 47.5555 76.2684 48.3342 75.8737 49.0169C75.4791 49.6889 74.9511 50.2169 74.2897 50.6009C73.6391 50.9849 72.9137 51.1769 72.1137 51.1769ZM72.1137 49.9769C72.6897 49.9769 73.2071 49.8329 73.6657 49.5449C74.1351 49.2569 74.5031 48.8622 74.7697 48.3609C75.0471 47.8595 75.1857 47.2995 75.1857 46.6809C75.1857 46.0622 75.0471 45.5075 74.7697 45.0169C74.5031 44.5262 74.1351 44.1369 73.6657 43.8489C73.2071 43.5609 72.6897 43.4169 72.1137 43.4169C71.5377 43.4169 71.0151 43.5609 70.5457 43.8489C70.0871 44.1369 69.7191 44.5262 69.4417 45.0169C69.1644 45.5075 69.0257 46.0622 69.0257 46.6809C69.0257 47.2995 69.1644 47.8595 69.4417 48.3609C69.7191 48.8622 70.0871 49.2569 70.5457 49.5449C71.0151 49.8329 71.5377 49.9769 72.1137 49.9769ZM80.3138 50.9849L77.3698 42.4089H78.7298L81.1618 49.9129H80.6818L82.9698 42.4089H84.1698L86.4578 49.9129H85.9778L88.4258 42.4089H89.7698L86.8258 50.9849H85.6258L83.4018 43.6409H83.7378L81.5138 50.9849H80.3138ZM94.1518 51.1769C93.3305 51.1769 92.6105 50.9689 91.9918 50.5529C91.3732 50.1369 90.9252 49.5715 90.6478 48.8569L91.6558 48.3769C91.9012 48.8995 92.2425 49.3155 92.6798 49.6249C93.1278 49.9342 93.6185 50.0889 94.1518 50.0889C94.6638 50.0889 95.0958 49.9662 95.4478 49.7209C95.7998 49.4649 95.9758 49.1342 95.9758 48.7289C95.9758 48.4302 95.8905 48.1955 95.7198 48.0249C95.5492 47.8435 95.3518 47.7049 95.1278 47.6089C94.9038 47.5129 94.7065 47.4435 94.5358 47.4009L93.3038 47.0489C92.5145 46.8249 91.9438 46.5102 91.5918 46.1049C91.2398 45.6995 91.0638 45.2302 91.0638 44.6969C91.0638 44.1955 91.1918 43.7582 91.4478 43.3849C91.7038 43.0115 92.0505 42.7235 92.4878 42.5209C92.9252 42.3182 93.4105 42.2169 93.9438 42.2169C94.6692 42.2169 95.3252 42.4089 95.9118 42.7929C96.5092 43.1662 96.9305 43.6889 97.1758 44.3609L96.1518 44.8409C95.9385 44.3609 95.6292 43.9875 95.2238 43.7209C94.8292 43.4435 94.3865 43.3049 93.8958 43.3049C93.4158 43.3049 93.0318 43.4275 92.7438 43.6729C92.4558 43.9182 92.3118 44.2275 92.3118 44.6009C92.3118 44.8889 92.3865 45.1182 92.5358 45.2889C92.6852 45.4595 92.8558 45.5875 93.0478 45.6729C93.2505 45.7582 93.4265 45.8222 93.5758 45.8649L94.9998 46.2809C95.6932 46.4835 96.2318 46.7982 96.6158 47.2249C97.0105 47.6515 97.2078 48.1529 97.2078 48.7289C97.2078 49.1982 97.0745 49.6195 96.8078 49.9929C96.5518 50.3662 96.1945 50.6595 95.7358 50.8729C95.2772 51.0755 94.7492 51.1769 94.1518 51.1769ZM103.22 51.1769C102.42 51.1769 101.695 50.9849 101.044 50.6009C100.404 50.2062 99.8978 49.6675 99.5245 48.9849C99.1511 48.3022 98.9645 47.5289 98.9645 46.6649C98.9645 45.8009 99.1458 45.0382 99.5085 44.3769C99.8711 43.7049 100.362 43.1769 100.98 42.7929C101.61 42.4089 102.314 42.2169 103.092 42.2169C103.711 42.2169 104.26 42.3342 104.74 42.5689C105.231 42.7929 105.647 43.1022 105.988 43.4969C106.33 43.8809 106.591 44.3182 106.772 44.8089C106.954 45.2889 107.044 45.7849 107.044 46.2969C107.044 46.4035 107.039 46.5262 107.028 46.6649C107.018 46.7929 107.002 46.9262 106.98 47.0649H99.7325V45.9449H106.292L105.716 46.4249C105.812 45.8382 105.743 45.3155 105.508 44.8569C105.284 44.3875 104.959 44.0195 104.532 43.7529C104.106 43.4755 103.626 43.3369 103.092 43.3369C102.559 43.3369 102.063 43.4755 101.604 43.7529C101.156 44.0302 100.804 44.4195 100.548 44.9209C100.292 45.4115 100.191 45.9982 100.244 46.6809C100.191 47.3635 100.298 47.9609 100.564 48.4729C100.842 48.9742 101.215 49.3635 101.684 49.6409C102.164 49.9182 102.676 50.0569 103.22 50.0569C103.85 50.0569 104.378 49.9075 104.804 49.6089C105.231 49.3102 105.578 48.9369 105.844 48.4889L106.868 49.0329C106.698 49.4169 106.436 49.7742 106.084 50.1049C105.732 50.4249 105.311 50.6862 104.82 50.8889C104.34 51.0809 103.807 51.1769 103.22 51.1769ZM111.879 50.9849V42.4089H113.079V44.0409L112.887 43.8009C113.122 43.2995 113.468 42.9102 113.927 42.6329C114.396 42.3555 114.908 42.2169 115.463 42.2169C116.124 42.2169 116.722 42.4035 117.255 42.7769C117.788 43.1502 118.167 43.6355 118.391 44.2329L118.055 44.2489C118.268 43.5875 118.636 43.0862 119.159 42.7449C119.692 42.3929 120.279 42.2169 120.919 42.2169C121.495 42.2169 122.023 42.3555 122.503 42.6329C122.994 42.9102 123.383 43.2942 123.671 43.7849C123.97 44.2649 124.119 44.8089 124.119 45.4169V50.9849H122.919V45.8809C122.919 45.3582 122.823 44.9155 122.631 44.5529C122.45 44.1902 122.199 43.9129 121.879 43.7209C121.559 43.5182 121.191 43.4169 120.775 43.4169C120.37 43.4169 120.002 43.5182 119.671 43.7209C119.34 43.9129 119.079 44.1955 118.887 44.5689C118.695 44.9315 118.599 45.3689 118.599 45.8809V50.9849H117.399V45.8809C117.399 45.3582 117.303 44.9155 117.111 44.5529C116.93 44.1902 116.679 43.9129 116.359 43.7209C116.039 43.5182 115.671 43.4169 115.255 43.4169C114.839 43.4169 114.466 43.5182 114.135 43.7209C113.815 43.9129 113.559 44.1955 113.367 44.5689C113.175 44.9315 113.079 45.3689 113.079 45.8809V50.9849H111.879ZM130.426 51.1769C129.616 51.1769 128.88 50.9849 128.218 50.6009C127.557 50.2062 127.029 49.6729 126.634 49.0009C126.25 48.3182 126.058 47.5449 126.058 46.6809C126.058 45.8275 126.25 45.0649 126.634 44.3929C127.018 43.7209 127.536 43.1929 128.186 42.8089C128.848 42.4142 129.594 42.2169 130.426 42.2169C131.258 42.2169 132 42.4089 132.65 42.7929C133.312 43.1769 133.829 43.7049 134.202 44.3769C134.586 45.0489 134.778 45.8169 134.778 46.6809C134.778 47.5555 134.581 48.3342 134.186 49.0169C133.792 49.6889 133.264 50.2169 132.602 50.6009C131.952 50.9849 131.226 51.1769 130.426 51.1769ZM130.426 49.9769C131.002 49.9769 131.52 49.8329 131.978 49.5449C132.448 49.2569 132.816 48.8622 133.082 48.3609C133.36 47.8595 133.498 47.2995 133.498 46.6809C133.498 46.0622 133.36 45.5075 133.082 45.0169C132.816 44.5262 132.448 44.1369 131.978 43.8489C131.52 43.5609 131.002 43.4169 130.426 43.4169C129.85 43.4169 129.328 43.5609 128.858 43.8489C128.4 44.1369 128.032 44.5262 127.754 45.0169C127.477 45.5075 127.338 46.0622 127.338 46.6809C127.338 47.2995 127.477 47.8595 127.754 48.3609C128.032 48.8622 128.4 49.2569 128.858 49.5449C129.328 49.8329 129.85 49.9769 130.426 49.9769ZM136.895 50.9849V42.4089H138.095V43.8169L137.935 43.6089C138.137 43.2035 138.441 42.8835 138.847 42.6489C139.263 42.4142 139.764 42.2969 140.351 42.2969H140.895V43.4969H140.143C139.524 43.4969 139.028 43.6889 138.655 44.0729C138.281 44.4569 138.095 45.0009 138.095 45.7049V50.9849H136.895ZM146.205 51.1769C145.405 51.1769 144.68 50.9849 144.029 50.6009C143.389 50.2062 142.882 49.6675 142.509 48.9849C142.136 48.3022 141.949 47.5289 141.949 46.6649C141.949 45.8009 142.13 45.0382 142.493 44.3769C142.856 43.7049 143.346 43.1769 143.965 42.7929C144.594 42.4089 145.298 42.2169 146.077 42.2169C146.696 42.2169 147.245 42.3342 147.725 42.5689C148.216 42.7929 148.632 43.1022 148.973 43.4969C149.314 43.8809 149.576 44.3182 149.757 44.8089C149.938 45.2889 150.029 45.7849 150.029 46.2969C150.029 46.4035 150.024 46.5262 150.013 46.6649C150.002 46.7929 149.986 46.9262 149.965 47.0649H142.717V45.9449H149.277L148.701 46.4249C148.797 45.8382 148.728 45.3155 148.493 44.8569C148.269 44.3875 147.944 44.0195 147.517 43.7529C147.09 43.4755 146.61 43.3369 146.077 43.3369C145.544 43.3369 145.048 43.4755 144.589 43.7529C144.141 44.0302 143.789 44.4195 143.533 44.9209C143.277 45.4115 143.176 45.9982 143.229 46.6809C143.176 47.3635 143.282 47.9609 143.549 48.4729C143.826 48.9742 144.2 49.3635 144.669 49.6409C145.149 49.9182 145.661 50.0569 146.205 50.0569C146.834 50.0569 147.362 49.9075 147.789 49.6089C148.216 49.3102 148.562 48.9369 148.829 48.4889L149.853 49.0329C149.682 49.4169 149.421 49.7742 149.069 50.1049C148.717 50.4249 148.296 50.6862 147.805 50.8889C147.325 51.0809 146.792 51.1769 146.205 51.1769ZM154.863 54.1849V42.4089H156.063V44.3289L155.871 43.9929C156.213 43.4489 156.666 43.0169 157.231 42.6969C157.807 42.3769 158.463 42.2169 159.199 42.2169C160.01 42.2169 160.73 42.4142 161.359 42.8089C161.999 43.1929 162.501 43.7209 162.863 44.3929C163.237 45.0649 163.423 45.8329 163.423 46.6969C163.423 47.5502 163.237 48.3182 162.863 49.0009C162.501 49.6729 161.999 50.2062 161.359 50.6009C160.73 50.9849 160.01 51.1769 159.199 51.1769C158.463 51.1769 157.797 51.0115 157.199 50.6809C156.613 50.3395 156.17 49.8595 155.871 49.2409L156.063 49.0649V54.1849H154.863ZM159.135 49.9769C159.711 49.9769 160.223 49.8329 160.671 49.5449C161.13 49.2569 161.487 48.8675 161.743 48.3769C162.01 47.8755 162.143 47.3155 162.143 46.6969C162.143 46.0675 162.01 45.5075 161.743 45.0169C161.487 44.5262 161.13 44.1369 160.671 43.8489C160.223 43.5609 159.711 43.4169 159.135 43.4169C158.559 43.4169 158.037 43.5609 157.567 43.8489C157.109 44.1369 156.741 44.5315 156.463 45.0329C156.197 45.5235 156.063 46.0782 156.063 46.6969C156.063 47.3155 156.197 47.8755 156.463 48.3769C156.741 48.8675 157.109 49.2569 157.567 49.5449C158.037 49.8329 158.559 49.9769 159.135 49.9769ZM165.535 50.9849V42.4089H166.735V43.8169L166.575 43.6089C166.778 43.2035 167.082 42.8835 167.487 42.6489C167.903 42.4142 168.405 42.2969 168.991 42.2969H169.535V43.4969H168.783C168.165 43.4969 167.669 43.6889 167.295 44.0729C166.922 44.4569 166.735 45.0009 166.735 45.7049V50.9849H165.535ZM174.957 51.1769C174.147 51.1769 173.411 50.9849 172.749 50.6009C172.088 50.2062 171.56 49.6729 171.165 49.0009C170.781 48.3182 170.589 47.5449 170.589 46.6809C170.589 45.8275 170.781 45.0649 171.165 44.3929C171.549 43.7209 172.067 43.1929 172.717 42.8089C173.379 42.4142 174.125 42.2169 174.957 42.2169C175.789 42.2169 176.531 42.4089 177.181 42.7929C177.843 43.1769 178.36 43.7049 178.733 44.3769C179.117 45.0489 179.309 45.8169 179.309 46.6809C179.309 47.5555 179.112 48.3342 178.717 49.0169C178.323 49.6889 177.795 50.2169 177.133 50.6009C176.483 50.9849 175.757 51.1769 174.957 51.1769ZM174.957 49.9769C175.533 49.9769 176.051 49.8329 176.509 49.5449C176.979 49.2569 177.347 48.8622 177.613 48.3609C177.891 47.8595 178.029 47.2995 178.029 46.6809C178.029 46.0622 177.891 45.5075 177.613 45.0169C177.347 44.5262 176.979 44.1369 176.509 43.8489C176.051 43.5609 175.533 43.4169 174.957 43.4169C174.381 43.4169 173.859 43.5609 173.389 43.8489C172.931 44.1369 172.563 44.5262 172.285 45.0169C172.008 45.5075 171.869 46.0622 171.869 46.6809C171.869 47.2995 172.008 47.8595 172.285 48.3609C172.563 48.8622 172.931 49.2569 173.389 49.5449C173.859 49.8329 174.381 49.9769 174.957 49.9769ZM181.426 54.1849V42.4089H182.626V44.3289L182.434 43.9929C182.775 43.4489 183.229 43.0169 183.794 42.6969C184.37 42.3769 185.026 42.2169 185.762 42.2169C186.573 42.2169 187.293 42.4142 187.922 42.8089C188.562 43.1929 189.063 43.7209 189.426 44.3929C189.799 45.0649 189.986 45.8329 189.986 46.6969C189.986 47.5502 189.799 48.3182 189.426 49.0009C189.063 49.6729 188.562 50.2062 187.922 50.6009C187.293 50.9849 186.573 51.1769 185.762 51.1769C185.026 51.1769 184.359 51.0115 183.762 50.6809C183.175 50.3395 182.733 49.8595 182.434 49.2409L182.626 49.0649V54.1849H181.426ZM185.698 49.9769C186.274 49.9769 186.786 49.8329 187.234 49.5449C187.693 49.2569 188.05 48.8675 188.306 48.3769C188.573 47.8755 188.706 47.3155 188.706 46.6969C188.706 46.0675 188.573 45.5075 188.306 45.0169C188.05 44.5262 187.693 44.1369 187.234 43.8489C186.786 43.5609 186.274 43.4169 185.698 43.4169C185.122 43.4169 184.599 43.5609 184.13 43.8489C183.671 44.1369 183.303 44.5315 183.026 45.0329C182.759 45.5235 182.626 46.0782 182.626 46.6969C182.626 47.3155 182.759 47.8755 183.026 48.3769C183.303 48.8675 183.671 49.2569 184.13 49.5449C184.599 49.8329 185.122 49.9769 185.698 49.9769ZM196.002 51.1769C195.202 51.1769 194.476 50.9849 193.826 50.6009C193.186 50.2062 192.679 49.6675 192.306 48.9849C191.932 48.3022 191.746 47.5289 191.746 46.6649C191.746 45.8009 191.927 45.0382 192.29 44.3769C192.652 43.7049 193.143 43.1769 193.762 42.7929C194.391 42.4089 195.095 42.2169 195.874 42.2169C196.492 42.2169 197.042 42.3342 197.522 42.5689C198.012 42.7929 198.428 43.1022 198.77 43.4969C199.111 43.8809 199.372 44.3182 199.554 44.8089C199.735 45.2889 199.826 45.7849 199.826 46.2969C199.826 46.4035 199.82 46.5262 199.81 46.6649C199.799 46.7929 199.783 46.9262 199.762 47.0649H192.514V45.9449H199.074L198.498 46.4249C198.594 45.8382 198.524 45.3155 198.29 44.8569C198.066 44.3875 197.74 44.0195 197.314 43.7529C196.887 43.4755 196.407 43.3369 195.874 43.3369C195.34 43.3369 194.844 43.4755 194.386 43.7529C193.938 44.0302 193.586 44.4195 193.33 44.9209C193.074 45.4115 192.972 45.9982 193.026 46.6809C192.972 47.3635 193.079 47.9609 193.346 48.4729C193.623 48.9742 193.996 49.3635 194.466 49.6409C194.946 49.9182 195.458 50.0569 196.002 50.0569C196.631 50.0569 197.159 49.9075 197.586 49.6089C198.012 49.3102 198.359 48.9369 198.626 48.4889L199.65 49.0329C199.479 49.4169 199.218 49.7742 198.866 50.1049C198.514 50.4249 198.092 50.6862 197.602 50.8889C197.122 51.0809 196.588 51.1769 196.002 51.1769ZM201.941 50.9849V42.4089H203.141V43.8169L202.981 43.6089C203.184 43.2035 203.488 42.8835 203.893 42.6489C204.309 42.4142 204.811 42.2969 205.397 42.2969H205.941V43.4969H205.189C204.571 43.4969 204.075 43.6889 203.701 44.0729C203.328 44.4569 203.141 45.0009 203.141 45.7049V50.9849H201.941ZM210.628 51.0809C209.86 51.0809 209.268 50.8569 208.852 50.4089C208.436 49.9609 208.228 49.3209 208.228 48.4889V43.6089H206.644V42.4089H207.044C207.406 42.4089 207.694 42.2915 207.908 42.0569C208.121 41.8115 208.228 41.5075 208.228 41.1449V40.4249H209.428V42.4089H211.316V43.6089H209.428V48.4889C209.428 48.7769 209.47 49.0329 209.556 49.2569C209.641 49.4702 209.785 49.6409 209.988 49.7689C210.201 49.8969 210.484 49.9609 210.836 49.9609C210.921 49.9609 211.022 49.9555 211.14 49.9449C211.257 49.9342 211.358 49.9235 211.444 49.9129V50.9849C211.316 51.0169 211.172 51.0382 211.012 51.0489C210.852 51.0702 210.724 51.0809 210.628 51.0809ZM213.551 50.9849V42.4089H214.751V50.9849H213.551ZM213.551 40.8249V39.0649H214.751V40.8249H213.551ZM221.111 51.1769C220.311 51.1769 219.586 50.9849 218.935 50.6009C218.295 50.2062 217.788 49.6675 217.415 48.9849C217.042 48.3022 216.855 47.5289 216.855 46.6649C216.855 45.8009 217.036 45.0382 217.399 44.3769C217.762 43.7049 218.252 43.1769 218.871 42.7929C219.5 42.4089 220.204 42.2169 220.983 42.2169C221.602 42.2169 222.151 42.3342 222.631 42.5689C223.122 42.7929 223.538 43.1022 223.879 43.4969C224.22 43.8809 224.482 44.3182 224.663 44.8089C224.844 45.2889 224.935 45.7849 224.935 46.2969C224.935 46.4035 224.93 46.5262 224.919 46.6649C224.908 46.7929 224.892 46.9262 224.871 47.0649H217.623V45.9449H224.183L223.607 46.4249C223.703 45.8382 223.634 45.3155 223.399 44.8569C223.175 44.3875 222.85 44.0195 222.423 43.7529C221.996 43.4755 221.516 43.3369 220.983 43.3369C220.45 43.3369 219.954 43.4755 219.495 43.7529C219.047 44.0302 218.695 44.4195 218.439 44.9209C218.183 45.4115 218.082 45.9982 218.135 46.6809C218.082 47.3635 218.188 47.9609 218.455 48.4729C218.732 48.9742 219.106 49.3635 219.575 49.6409C220.055 49.9182 220.567 50.0569 221.111 50.0569C221.74 50.0569 222.268 49.9075 222.695 49.6089C223.122 49.3102 223.468 48.9369 223.735 48.4889L224.759 49.0329C224.588 49.4169 224.327 49.7742 223.975 50.1049C223.623 50.4249 223.202 50.6862 222.711 50.8889C222.231 51.0809 221.698 51.1769 221.111 51.1769ZM230.027 51.1769C229.206 51.1769 228.486 50.9689 227.867 50.5529C227.248 50.1369 226.8 49.5715 226.523 48.8569L227.531 48.3769C227.776 48.8995 228.118 49.3155 228.555 49.6249C229.003 49.9342 229.494 50.0889 230.027 50.0889C230.539 50.0889 230.971 49.9662 231.323 49.7209C231.675 49.4649 231.851 49.1342 231.851 48.7289C231.851 48.4302 231.766 48.1955 231.595 48.0249C231.424 47.8435 231.227 47.7049 231.003 47.6089C230.779 47.5129 230.582 47.4435 230.411 47.4009L229.179 47.0489C228.39 46.8249 227.819 46.5102 227.467 46.1049C227.115 45.6995 226.939 45.2302 226.939 44.6969C226.939 44.1955 227.067 43.7582 227.323 43.3849C227.579 43.0115 227.926 42.7235 228.363 42.5209C228.8 42.3182 229.286 42.2169 229.819 42.2169C230.544 42.2169 231.2 42.4089 231.787 42.7929C232.384 43.1662 232.806 43.6889 233.051 44.3609L232.027 44.8409C231.814 44.3609 231.504 43.9875 231.099 43.7209C230.704 43.4435 230.262 43.3049 229.771 43.3049C229.291 43.3049 228.907 43.4275 228.619 43.6729C228.331 43.9182 228.187 44.2275 228.187 44.6009C228.187 44.8889 228.262 45.1182 228.411 45.2889C228.56 45.4595 228.731 45.5875 228.923 45.6729C229.126 45.7582 229.302 45.8222 229.451 45.8649L230.875 46.2809C231.568 46.4835 232.107 46.7982 232.491 47.2249C232.886 47.6515 233.083 48.1529 233.083 48.7289C233.083 49.1982 232.95 49.6195 232.683 49.9929C232.427 50.3662 232.07 50.6595 231.611 50.8729C231.152 51.0755 230.624 51.1769 230.027 51.1769Z" fill="black"/>
<path d="M286.849 47.0455C287.435 46.4597 287.435 45.51 286.849 44.9242L277.303 35.3783C276.718 34.7925 275.768 34.7925 275.182 35.3783C274.596 35.964 274.596 36.9138 275.182 37.4996L283.667 45.9849L275.182 54.4701C274.596 55.0559 274.596 56.0057 275.182 56.5915C275.768 57.1773 276.718 57.1773 277.303 56.5915L286.849 47.0455ZM253.789 47.4849H285.789V44.4849H253.789V47.4849Z" fill="#A78EE9"/>
<defs>
<linearGradient id="paint0_linear_264_2048" x1="49.4782" y1="59.1133" x2="15.8586" y2="36.9958" gradientUnits="userSpaceOnUse">
<stop stop-color="#C17FFF"/>
<stop offset="1" stop-color="#5245ED"/>
</linearGradient>
</defs>
</svg>
