<svg width="35" height="19" viewBox="0 0 35 19" fill="none" xmlns="http://www.w3.org/2000/svg">
<g id="cart">
<g id="rectangle">
<path id="cartshape" d="M34.341 4.13434C34.1624 3.82495 33.9067 3.56712 33.5988 3.386C33.2909 3.20488 32.9413 3.10666 32.5841 3.10091H19.3562L18.7568 0.765347C18.6962 0.539891 18.5611 0.341581 18.3735 0.202717C18.1858 0.063852 17.9567 -0.0073857 17.7233 0.000606088H15.6565C15.3824 0.000606088 15.1195 0.109485 14.9257 0.303292C14.7319 0.497098 14.623 0.759956 14.623 1.03404C14.623 1.30812 14.7319 1.57098 14.9257 1.76479C15.1195 1.95859 15.3824 2.06747 15.6565 2.06747H16.9379L19.7902 12.6705C19.8508 12.896 19.9859 13.0943 20.1735 13.2331C20.3612 13.372 20.5903 13.4432 20.8236 13.4352H30.1245C30.3154 13.4347 30.5023 13.3812 30.6647 13.2809C30.827 13.1806 30.9584 13.0373 31.0443 12.8669L34.434 6.08753C34.5809 5.77958 34.6493 5.44005 34.633 5.09924C34.6168 4.75843 34.5165 4.42693 34.341 4.13434ZM29.4838 11.3684H21.6091L19.9246 5.16777H32.5841L29.4838 11.3684Z" fill="white"/>
<path id="circle2" d="M20.307 18.6024C21.1631 18.6024 21.8571 17.9083 21.8571 17.0522C21.8571 16.1961 21.1631 15.5021 20.307 15.5021C19.4509 15.5021 18.7568 16.1961 18.7568 17.0522C18.7568 17.9083 19.4509 18.6024 20.307 18.6024Z" fill="white"/>
<path id="circle1" d="M30.641 18.6024C31.4971 18.6024 32.1911 17.9083 32.1911 17.0522C32.1911 16.1961 31.4971 15.5021 30.641 15.5021C29.7848 15.5021 29.0908 16.1961 29.0908 17.0522C29.0908 17.9083 29.7848 18.6024 30.641 18.6024Z" fill="white"/>
</g>
<path id="dash3" d="M0 3.31769H15.4829V4.97657H3.31776L0 3.31769Z" fill="white"/>
<path id="dash2" d="M4.97656 6.6355H16.0357V8.29438H7.45033L4.97656 6.6355Z" fill="white"/>
<path id="dash1" d="M8.84766 9.95337H17.142V11.6122H11.2788L8.84766 9.95337Z" fill="white"/>
</g>
</svg>
