<svg width="113" height="41" viewBox="0 0 113 41" fill="none" xmlns="http://www.w3.org/2000/svg">
<path d="M8 40.8662L0 32.8662H8V40.8662Z" fill="#5245ED"/>
<path d="M0 8.86621C0 4.44793 3.58172 0.866211 8 0.866211H105C109.418 0.866211 113 4.44793 113 8.86621V24.8662C113 29.2845 109.418 32.8662 105 32.8662H0V8.86621Z" fill="#7065F0"/>
<path fill-rule="evenodd" clip-rule="evenodd" d="M20.0001 10.4663C20.2123 10.4663 20.4158 10.5506 20.5658 10.7006C20.7158 10.8507 20.8001 11.0541 20.8001 11.2663V12.0663H21.6001C21.8123 12.0663 22.0158 12.1506 22.1658 12.3006C22.3158 12.4507 22.4001 12.6541 22.4001 12.8663C22.4001 13.0785 22.3158 13.282 22.1658 13.432C22.0158 13.582 21.8123 13.6663 21.6001 13.6663H20.8001V14.4663C20.8001 14.6785 20.7158 14.882 20.5658 15.032C20.4158 15.182 20.2123 15.2663 20.0001 15.2663C19.7879 15.2663 19.5844 15.182 19.4344 15.032C19.2844 14.882 19.2001 14.6785 19.2001 14.4663V13.6663H18.4001C18.1879 13.6663 17.9844 13.582 17.8344 13.432C17.6844 13.282 17.6001 13.0785 17.6001 12.8663C17.6001 12.6541 17.6844 12.4507 17.8344 12.3006C17.9844 12.1506 18.1879 12.0663 18.4001 12.0663H19.2001V11.2663C19.2001 11.0541 19.2844 10.8507 19.4344 10.7006C19.5844 10.5506 19.7879 10.4663 20.0001 10.4663ZM20.0001 18.4663C20.2123 18.4663 20.4158 18.5506 20.5658 18.7006C20.7158 18.8507 20.8001 19.0541 20.8001 19.2663V20.0663H21.6001C21.8123 20.0663 22.0158 20.1506 22.1658 20.3006C22.3158 20.4507 22.4001 20.6541 22.4001 20.8663C22.4001 21.0785 22.3158 21.282 22.1658 21.432C22.0158 21.582 21.8123 21.6663 21.6001 21.6663H20.8001V22.4663C20.8001 22.6785 20.7158 22.882 20.5658 23.032C20.4158 23.182 20.2123 23.2663 20.0001 23.2663C19.7879 23.2663 19.5844 23.182 19.4344 23.032C19.2844 22.882 19.2001 22.6785 19.2001 22.4663V21.6663H18.4001C18.1879 21.6663 17.9844 21.582 17.8344 21.432C17.6844 21.282 17.6001 21.0785 17.6001 20.8663C17.6001 20.6541 17.6844 20.4507 17.8344 20.3006C17.9844 20.1506 18.1879 20.0663 18.4001 20.0663H19.2001V19.2663C19.2001 19.0541 19.2844 18.8507 19.4344 18.7006C19.5844 18.5506 19.7879 18.4663 20.0001 18.4663ZM25.6001 10.4663C25.7766 10.4663 25.9483 10.5246 26.0882 10.6323C26.2281 10.7399 26.3285 10.8908 26.3737 11.0615L27.3169 14.6263L30.0001 16.1735C30.1217 16.2437 30.2227 16.3447 30.2929 16.4663C30.3631 16.5879 30.4001 16.7259 30.4001 16.8663C30.4001 17.0067 30.3631 17.1447 30.2929 17.2663C30.2227 17.3879 30.1217 17.4889 30.0001 17.5591L27.3169 19.1071L26.3729 22.6711C26.3276 22.8416 26.2273 22.9924 26.0874 23.0999C25.9476 23.2075 25.7761 23.2658 25.5997 23.2658C25.4233 23.2658 25.2518 23.2075 25.112 23.0999C24.9721 22.9924 24.8718 22.8416 24.8265 22.6711L23.8833 19.1063L21.2001 17.5591C21.0785 17.4889 20.9775 17.3879 20.9073 17.2663C20.8371 17.1447 20.8001 17.0067 20.8001 16.8663C20.8001 16.7259 20.8371 16.5879 20.9073 16.4663C20.9775 16.3447 21.0785 16.2437 21.2001 16.1735L23.8833 14.6255L24.8273 11.0615C24.8725 10.891 24.9727 10.7401 25.1125 10.6325C25.2523 10.5249 25.4237 10.4664 25.6001 10.4663Z" fill="white"/>
<path d="M36.864 21.8662H38.496V18.5662H40.2C40.808 18.5662 41.344 18.4582 41.808 18.2422C42.272 18.0182 42.636 17.6942 42.9 17.2702C43.172 16.8462 43.308 16.3382 43.308 15.7462C43.308 15.1382 43.176 14.6262 42.912 14.2102C42.648 13.7942 42.28 13.4782 41.808 13.2622C41.344 13.0382 40.808 12.9262 40.2 12.9262H36.864V21.8662ZM38.496 17.1262V14.3662H40.224C40.664 14.3662 41.016 14.4902 41.28 14.7382C41.544 14.9862 41.676 15.3222 41.676 15.7462C41.676 16.1622 41.544 16.4982 41.28 16.7542C41.016 17.0022 40.664 17.1262 40.224 17.1262H38.496ZM49.5493 22.0102C50.2133 22.0102 50.8293 21.8942 51.3973 21.6622C51.9653 21.4302 52.4613 21.1062 52.8853 20.6902C53.3093 20.2742 53.6373 19.7862 53.8693 19.2262C54.1093 18.6582 54.2293 18.0462 54.2293 17.3902C54.2293 16.7262 54.1093 16.1142 53.8693 15.5542C53.6373 14.9942 53.3093 14.5102 52.8853 14.1022C52.4613 13.6862 51.9653 13.3622 51.3973 13.1302C50.8293 12.8982 50.2133 12.7822 49.5493 12.7822C48.8853 12.7822 48.2693 12.8982 47.7013 13.1302C47.1333 13.3622 46.6373 13.6862 46.2133 14.1022C45.7973 14.5102 45.4693 14.9942 45.2293 15.5542C44.9973 16.1142 44.8813 16.7262 44.8813 17.3902C44.8813 18.0462 44.9973 18.6582 45.2293 19.2262C45.4693 19.7862 45.8013 20.2742 46.2253 20.6902C46.6493 21.1062 47.1453 21.4302 47.7133 21.6622C48.2813 21.8942 48.8933 22.0102 49.5493 22.0102ZM49.5493 20.5222C48.9733 20.5222 48.4533 20.3862 47.9893 20.1142C47.5333 19.8422 47.1733 19.4702 46.9093 18.9982C46.6453 18.5262 46.5133 17.9902 46.5133 17.3902C46.5133 16.7902 46.6453 16.2582 46.9093 15.7942C47.1733 15.3222 47.5333 14.9502 47.9893 14.6782C48.4533 14.4062 48.9733 14.2702 49.5493 14.2702C50.1333 14.2702 50.6533 14.4062 51.1093 14.6782C51.5653 14.9502 51.9253 15.3222 52.1893 15.7942C52.4533 16.2582 52.5853 16.7902 52.5853 17.3902C52.5853 17.9902 52.4533 18.5262 52.1893 18.9982C51.9253 19.4702 51.5653 19.8422 51.1093 20.1142C50.6533 20.3862 50.1333 20.5222 49.5493 20.5222ZM56.1804 21.8662H57.8124V18.5662H59.5164C60.1244 18.5662 60.6604 18.4582 61.1244 18.2422C61.5884 18.0182 61.9524 17.6942 62.2164 17.2702C62.4884 16.8462 62.6244 16.3382 62.6244 15.7462C62.6244 15.1382 62.4924 14.6262 62.2284 14.2102C61.9644 13.7942 61.5964 13.4782 61.1244 13.2622C60.6604 13.0382 60.1244 12.9262 59.5164 12.9262H56.1804V21.8662ZM57.8124 17.1262V14.3662H59.5404C59.9804 14.3662 60.3324 14.4902 60.5964 14.7382C60.8604 14.9862 60.9924 15.3222 60.9924 15.7462C60.9924 16.1622 60.8604 16.4982 60.5964 16.7542C60.3324 17.0022 59.9804 17.1262 59.5404 17.1262H57.8124ZM67.9057 22.0102C68.5937 22.0102 69.2017 21.8662 69.7297 21.5782C70.2657 21.2902 70.6857 20.8942 70.9897 20.3902C71.2937 19.8862 71.4457 19.3142 71.4457 18.6742V12.9262H69.8137V18.5902C69.8137 18.9662 69.7297 19.3022 69.5617 19.5982C69.4017 19.8862 69.1777 20.1142 68.8897 20.2822C68.6097 20.4422 68.2817 20.5222 67.9057 20.5222C67.5377 20.5222 67.2097 20.4422 66.9217 20.2822C66.6337 20.1142 66.4057 19.8862 66.2377 19.5982C66.0777 19.3022 65.9977 18.9662 65.9977 18.5902V12.9262H64.3657V18.6742C64.3657 19.3142 64.5177 19.8862 64.8217 20.3902C65.1257 20.8942 65.5417 21.2902 66.0697 21.5782C66.6057 21.8662 67.2177 22.0102 67.9057 22.0102ZM73.5749 21.8662H79.0349V20.4262H75.2069V12.9262H73.5749V21.8662ZM79.8586 21.8662H81.6226L82.2706 19.9462H85.7266L86.3626 21.8662H88.1386L85.0546 12.9262H82.9426L79.8586 21.8662ZM82.7386 18.5062L83.9986 14.7382L85.2586 18.5062H82.7386ZM89.6335 21.8662H91.2655V18.5662H92.8015L94.6495 21.8662H96.4975L94.4455 18.2782C94.9415 18.0702 95.3335 17.7502 95.6215 17.3182C95.9175 16.8862 96.0655 16.3622 96.0655 15.7462C96.0655 15.1382 95.9335 14.6262 95.6695 14.2102C95.4055 13.7942 95.0375 13.4782 94.5655 13.2622C94.1015 13.0382 93.5655 12.9262 92.9575 12.9262H89.6335V21.8662ZM91.2655 17.1262V14.3662H92.9815C93.4215 14.3662 93.7735 14.4902 94.0375 14.7382C94.3015 14.9862 94.4335 15.3222 94.4335 15.7462C94.4335 16.1622 94.3015 16.4982 94.0375 16.7542C93.7735 17.0022 93.4215 17.1262 92.9815 17.1262H91.2655Z" fill="white"/>
</svg>
