<svg width="124" height="32" viewBox="0 0 124 32" fill="none" xmlns="http://www.w3.org/2000/svg">
<path d="M37.44 24V9.1H43.72C44.7067 9.1 45.5467 9.27333 46.24 9.62C46.9467 9.95333 47.4867 10.4333 47.86 11.06C48.2467 11.6733 48.44 12.42 48.44 13.3C48.44 13.98 48.2533 14.62 47.88 15.22C47.52 15.8067 46.94 16.2933 46.14 16.68V15.42C46.8733 15.7 47.4533 16.0467 47.88 16.46C48.3067 16.8733 48.6067 17.3333 48.78 17.84C48.9533 18.3467 49.04 18.88 49.04 19.44C49.04 20.8667 48.5667 21.9867 47.62 22.8C46.6867 23.6 45.3867 24 43.72 24H37.44ZM40.16 21.6H44C44.7067 21.6 45.2667 21.4067 45.68 21.02C46.1067 20.62 46.32 20.0933 46.32 19.44C46.32 18.7867 46.1067 18.26 45.68 17.86C45.2667 17.46 44.7067 17.26 44 17.26H40.16V21.6ZM40.16 14.88H43.86C44.42 14.88 44.8667 14.72 45.2 14.4C45.5333 14.0667 45.7 13.64 45.7 13.12C45.7 12.6 45.5333 12.1867 45.2 11.88C44.8667 11.5733 44.42 11.42 43.86 11.42H40.16V14.88ZM51.0481 24V13.12H53.6681V24H51.0481ZM51.0481 11.9V9.1H53.6681V11.9H51.0481ZM61.0472 24.12C59.8205 24.12 58.8672 23.7867 58.1872 23.12C57.5205 22.44 57.1872 21.4867 57.1872 20.26V15.46H55.3072V13.12H55.5072C56.0405 13.12 56.4539 12.98 56.7472 12.7C57.0405 12.42 57.1872 12.0133 57.1872 11.48V10.64H59.8072V13.12H62.3072V15.46H59.8072V20.12C59.8072 20.48 59.8672 20.7867 59.9872 21.04C60.1205 21.2933 60.3205 21.4867 60.5872 21.62C60.8672 21.7533 61.2205 21.82 61.6472 21.82C61.7405 21.82 61.8472 21.8133 61.9672 21.8C62.1005 21.7867 62.2272 21.7733 62.3472 21.76V24C62.1605 24.0267 61.9472 24.0533 61.7072 24.08C61.4672 24.1067 61.2472 24.12 61.0472 24.12ZM70.2889 24.24C69.5022 24.24 68.7756 24.0867 68.1089 23.78C67.4556 23.46 66.9356 23.0067 66.5489 22.42L66.8089 21.9V24H64.3489V8.86H66.9689V15.28L66.5689 14.74C66.9422 14.1533 67.4489 13.7 68.0889 13.38C68.7289 13.0467 69.4689 12.88 70.3089 12.88C71.3356 12.88 72.2622 13.1333 73.0889 13.64C73.9156 14.1467 74.5689 14.8267 75.0489 15.68C75.5422 16.5333 75.7889 17.4933 75.7889 18.56C75.7889 19.6133 75.5489 20.5733 75.0689 21.44C74.5889 22.3067 73.9356 22.9933 73.1089 23.5C72.2822 23.9933 71.3422 24.24 70.2889 24.24ZM69.9889 21.84C70.5889 21.84 71.1222 21.7 71.5889 21.42C72.0556 21.14 72.4156 20.7533 72.6689 20.26C72.9356 19.7667 73.0689 19.2 73.0689 18.56C73.0689 17.92 72.9356 17.36 72.6689 16.88C72.4156 16.3867 72.0556 16 71.5889 15.72C71.1222 15.4267 70.5889 15.28 69.9889 15.28C69.4156 15.28 68.8956 15.42 68.4289 15.7C67.9756 15.98 67.6156 16.3733 67.3489 16.88C67.0956 17.3733 66.9689 17.9333 66.9689 18.56C66.9689 19.2 67.0956 19.7667 67.3489 20.26C67.6156 20.7533 67.9756 21.14 68.4289 21.42C68.8956 21.7 69.4156 21.84 69.9889 21.84ZM77.7864 24V13.12H80.2464V15.54L80.0464 15.18C80.2997 14.3667 80.6931 13.8 81.2264 13.48C81.7731 13.16 82.4264 13 83.1864 13H83.8264V15.32H82.8864C82.1397 15.32 81.5397 15.5533 81.0864 16.02C80.6331 16.4733 80.4064 17.1133 80.4064 17.94V24H77.7864ZM85.2669 24V13.12H87.8869V24H85.2669ZM85.2669 11.9V9.1H87.8869V11.9H85.2669ZM95.5459 24.24C94.4659 24.24 93.4926 23.9933 92.6259 23.5C91.7726 22.9933 91.0993 22.3133 90.6059 21.46C90.1126 20.5933 89.8659 19.62 89.8659 18.54C89.8659 17.46 90.1126 16.4933 90.6059 15.64C91.0993 14.7867 91.7726 14.1133 92.6259 13.62C93.4926 13.1267 94.4659 12.88 95.5459 12.88C96.3193 12.88 97.0393 13.02 97.7059 13.3C98.3726 13.5667 98.9459 13.94 99.4259 14.42C99.9193 14.8867 100.273 15.4467 100.486 16.1L98.1859 17.1C97.9859 16.5533 97.6459 16.1133 97.1659 15.78C96.6993 15.4467 96.1593 15.28 95.5459 15.28C94.9726 15.28 94.4593 15.42 94.0059 15.7C93.5659 15.98 93.2193 16.3667 92.9659 16.86C92.7126 17.3533 92.5859 17.92 92.5859 18.56C92.5859 19.2 92.7126 19.7667 92.9659 20.26C93.2193 20.7533 93.5659 21.14 94.0059 21.42C94.4593 21.7 94.9726 21.84 95.5459 21.84C96.1726 21.84 96.7193 21.6733 97.1859 21.34C97.6526 21.0067 97.9859 20.56 98.1859 20L100.486 21.04C100.273 21.6533 99.9259 22.2067 99.4459 22.7C98.9659 23.18 98.3926 23.56 97.7259 23.84C97.0593 24.1067 96.3326 24.24 95.5459 24.24ZM102.474 24V8.86H105.094V18.78L104.094 18.48L109.214 13.12H112.474L108.454 17.5L112.554 24H109.554L105.994 18.36L107.554 18.04L104.274 21.56L105.094 19.96V24H102.474ZM118.157 24.24C116.997 24.24 115.984 23.9667 115.117 23.42C114.264 22.86 113.677 22.1067 113.357 21.16L115.317 20.22C115.597 20.8333 115.984 21.3133 116.477 21.66C116.984 22.0067 117.544 22.18 118.157 22.18C118.637 22.18 119.017 22.0733 119.297 21.86C119.577 21.6467 119.717 21.3667 119.717 21.02C119.717 20.8067 119.657 20.6333 119.537 20.5C119.43 20.3533 119.277 20.2333 119.077 20.14C118.89 20.0333 118.684 19.9467 118.457 19.88L116.677 19.38C115.757 19.1133 115.057 18.7067 114.577 18.16C114.11 17.6133 113.877 16.9667 113.877 16.22C113.877 15.5533 114.044 14.9733 114.377 14.48C114.724 13.9733 115.197 13.58 115.797 13.3C116.41 13.02 117.11 12.88 117.897 12.88C118.924 12.88 119.83 13.1267 120.617 13.62C121.404 14.1133 121.964 14.8067 122.297 15.7L120.297 16.64C120.11 16.1467 119.797 15.7533 119.357 15.46C118.917 15.1667 118.424 15.02 117.877 15.02C117.437 15.02 117.09 15.12 116.837 15.32C116.584 15.52 116.457 15.78 116.457 16.1C116.457 16.3 116.51 16.4733 116.617 16.62C116.724 16.7667 116.87 16.8867 117.057 16.98C117.257 17.0733 117.484 17.16 117.737 17.24L119.477 17.76C120.37 18.0267 121.057 18.4267 121.537 18.96C122.03 19.4933 122.277 20.1467 122.277 20.92C122.277 21.5733 122.104 22.1533 121.757 22.66C121.41 23.1533 120.93 23.54 120.317 23.82C119.704 24.1 118.984 24.24 118.157 24.24Z" fill="#100A55"/>
<g clip-path="url(#clip0_458_18)">
<path d="M25.3333 11.6134L18.2226 6.0827C17.5986 5.59725 16.8306 5.33368 16.04 5.33368C15.2494 5.33368 14.4813 5.59725 13.8573 6.0827L6.74529 11.6134C6.31788 11.9458 5.97208 12.3714 5.7343 12.8578C5.49651 13.3443 5.37304 13.8786 5.37329 14.42V24.02C5.37329 24.7273 5.65424 25.4056 6.15434 25.9057C6.65444 26.4058 7.33271 26.6867 8.03996 26.6867H24.04C24.7472 26.6867 25.4255 26.4058 25.9256 25.9057C26.4257 25.4056 26.7066 24.7273 26.7066 24.02V14.42C26.7066 13.3227 26.2 12.2867 25.3333 11.6134Z" fill="#7065F0" stroke="#7065F0" stroke-width="3" stroke-linecap="round" stroke-linejoin="round"/>
<path d="M21.3334 20C18.3867 21.7774 13.6107 21.7774 10.6667 20" stroke="#F9FAFB" stroke-width="3" stroke-linecap="round" stroke-linejoin="round"/>
</g>
<defs>
<clipPath id="clip0_458_18">
<rect width="32" height="32" fill="white"/>
</clipPath>
</defs>
</svg>
