<svg width="145" height="16" viewBox="0 0 145 16" fill="none" xmlns="http://www.w3.org/2000/svg">
<path opacity="0.5" d="M0.996 13H2.172V6.208L5.088 10.36H5.184L8.088 6.268V13H9.276V4.06H8.196L5.148 8.428L2.076 4.06H0.996V13ZM14.2616 13.144C14.8696 13.144 15.4256 13 15.9296 12.712C16.4336 12.424 16.8336 12.024 17.1296 11.512C17.4336 11 17.5856 10.416 17.5856 9.76C17.5856 9.112 17.4376 8.536 17.1416 8.032C16.8536 7.52 16.4576 7.12 15.9536 6.832C15.4496 6.536 14.8856 6.388 14.2616 6.388C13.6296 6.388 13.0616 6.536 12.5576 6.832C12.0536 7.12 11.6536 7.52 11.3576 8.032C11.0696 8.536 10.9256 9.112 10.9256 9.76C10.9256 10.408 11.0736 10.988 11.3696 11.5C11.6656 12.012 12.0656 12.416 12.5696 12.712C13.0736 13 13.6376 13.144 14.2616 13.144ZM14.2616 12.064C13.8536 12.064 13.4856 11.964 13.1576 11.764C12.8376 11.564 12.5816 11.292 12.3896 10.948C12.1976 10.596 12.1016 10.2 12.1016 9.76C12.1016 9.32 12.1976 8.928 12.3896 8.584C12.5816 8.24 12.8376 7.968 13.1576 7.768C13.4856 7.568 13.8536 7.468 14.2616 7.468C14.6616 7.468 15.0216 7.568 15.3416 7.768C15.6696 7.968 15.9256 8.24 16.1096 8.584C16.3016 8.928 16.3976 9.32 16.3976 9.76C16.3976 10.2 16.3016 10.596 16.1096 10.948C15.9256 11.292 15.6696 11.564 15.3416 11.764C15.0216 11.964 14.6616 12.064 14.2616 12.064ZM20.784 13H21.84L24.384 6.532H23.136L21.312 11.428L19.5 6.532H18.252L20.784 13ZM28.3013 13.144C28.9653 13.144 29.5413 12.988 30.0293 12.676C30.5173 12.364 30.8613 11.984 31.0613 11.536L30.1253 11.056C29.9413 11.368 29.7013 11.624 29.4053 11.824C29.1093 12.024 28.7453 12.124 28.3133 12.124C27.9533 12.124 27.6173 12.044 27.3053 11.884C27.0013 11.716 26.7493 11.48 26.5493 11.176C26.3573 10.872 26.2533 10.512 26.2373 10.096H31.1813C31.2213 9.88 31.2413 9.68 31.2413 9.496C31.2413 8.96 31.1213 8.456 30.8813 7.984C30.6413 7.512 30.2933 7.128 29.8373 6.832C29.3893 6.536 28.8453 6.388 28.2053 6.388C27.6053 6.388 27.0693 6.532 26.5973 6.82C26.1253 7.108 25.7493 7.508 25.4693 8.02C25.1973 8.524 25.0613 9.1 25.0613 9.748C25.0613 10.396 25.2013 10.976 25.4813 11.488C25.7613 12 26.1453 12.404 26.6333 12.7C27.1213 12.996 27.6773 13.144 28.3013 13.144ZM28.2053 7.384C28.5333 7.384 28.8333 7.46 29.1053 7.612C29.3773 7.756 29.5973 7.96 29.7653 8.224C29.9333 8.488 30.0213 8.792 30.0293 9.136H26.2613C26.3413 8.592 26.5653 8.164 26.9333 7.852C27.3013 7.54 27.7253 7.384 28.2053 7.384ZM35.6963 13.144C36.1763 13.144 36.6123 13.052 37.0043 12.868C37.4043 12.676 37.7243 12.404 37.9643 12.052V13H39.0563V3.916H37.9283V7.396C37.6803 7.076 37.3643 6.828 36.9803 6.652C36.5963 6.476 36.1683 6.388 35.6963 6.388C35.0883 6.388 34.5403 6.536 34.0523 6.832C33.5723 7.128 33.1923 7.532 32.9123 8.044C32.6323 8.548 32.4923 9.124 32.4923 9.772C32.4923 10.412 32.6323 10.988 32.9123 11.5C33.1923 12.004 33.5723 12.404 34.0523 12.7C34.5403 12.996 35.0883 13.144 35.6963 13.144ZM35.7923 12.064C35.3843 12.064 35.0203 11.964 34.7003 11.764C34.3803 11.564 34.1283 11.292 33.9443 10.948C33.7603 10.596 33.6683 10.204 33.6683 9.772C33.6683 9.332 33.7603 8.94 33.9443 8.596C34.1283 8.244 34.3803 7.968 34.7003 7.768C35.0283 7.568 35.3923 7.468 35.7923 7.468C36.2003 7.468 36.5643 7.572 36.8843 7.78C37.2043 7.98 37.4563 8.252 37.6403 8.596C37.8323 8.94 37.9283 9.332 37.9283 9.772C37.9283 10.204 37.8323 10.596 37.6403 10.948C37.4563 11.292 37.2043 11.564 36.8843 11.764C36.5643 11.964 36.2003 12.064 35.7923 12.064ZM44.4659 13H45.5339L47.0699 8.128L48.6059 13H49.6739L51.8939 6.532H50.6699L49.1099 11.272L47.5979 6.532H46.5419L45.0299 11.272L43.4819 6.532H42.2459L44.4659 13ZM52.952 5.5H54.068V4.06H52.952V5.5ZM52.952 13H54.068V6.532H52.952V13ZM58.4876 13.072C58.5756 13.072 58.6836 13.068 58.8116 13.06C58.9396 13.052 59.0556 13.036 59.1596 13.012V12.016C59.0876 12.024 59.0116 12.032 58.9316 12.04C58.8516 12.048 58.7796 12.052 58.7156 12.052C58.3236 12.052 58.0436 11.956 57.8756 11.764C57.7156 11.564 57.6356 11.3 57.6356 10.972V7.6H59.0876V6.532H57.6356V5.044H56.5196V5.572C56.5196 5.868 56.4356 6.104 56.2676 6.28C56.0996 6.448 55.8716 6.532 55.5836 6.532H55.3436V7.6H56.5196V11.008C56.5196 11.664 56.6876 12.172 57.0236 12.532C57.3676 12.892 57.8556 13.072 58.4876 13.072ZM60.6774 13H61.7934V9.172C61.7934 8.644 61.9414 8.228 62.2374 7.924C62.5414 7.62 62.9174 7.468 63.3654 7.468C63.8134 7.468 64.1814 7.62 64.4694 7.924C64.7654 8.22 64.9134 8.636 64.9134 9.172V13H66.0414V8.812C66.0414 8.348 65.9334 7.936 65.7174 7.576C65.5094 7.208 65.2214 6.92 64.8534 6.712C64.4934 6.496 64.0814 6.388 63.6174 6.388C63.2254 6.388 62.8694 6.468 62.5494 6.628C62.2374 6.78 61.9854 7 61.7934 7.288V3.916H60.6774V13Z" fill="#000929"/>
<path d="M92.864 13V4.06H96.632C97.224 4.06 97.728 4.164 98.144 4.372C98.568 4.572 98.892 4.86 99.116 5.236C99.348 5.604 99.464 6.052 99.464 6.58C99.464 6.988 99.352 7.372 99.128 7.732C98.912 8.084 98.564 8.376 98.084 8.608V7.852C98.524 8.02 98.872 8.228 99.128 8.476C99.384 8.724 99.564 9 99.668 9.304C99.772 9.608 99.824 9.928 99.824 10.264C99.824 11.12 99.54 11.792 98.972 12.28C98.412 12.76 97.632 13 96.632 13H92.864ZM94.496 11.56H96.8C97.224 11.56 97.56 11.444 97.808 11.212C98.064 10.972 98.192 10.656 98.192 10.264C98.192 9.872 98.064 9.556 97.808 9.316C97.56 9.076 97.224 8.956 96.8 8.956H94.496V11.56ZM94.496 7.528H96.716C97.052 7.528 97.32 7.432 97.52 7.24C97.72 7.04 97.82 6.784 97.82 6.472C97.82 6.16 97.72 5.912 97.52 5.728C97.32 5.544 97.052 5.452 96.716 5.452H94.496V7.528ZM101.029 13V6.472H102.601V13H101.029ZM101.029 5.74V4.06H102.601V5.74H101.029ZM107.028 13.072C106.292 13.072 105.72 12.872 105.312 12.472C104.912 12.064 104.712 11.492 104.712 10.756V7.876H103.584V6.472H103.704C104.024 6.472 104.272 6.388 104.448 6.22C104.624 6.052 104.712 5.808 104.712 5.488V4.984H106.284V6.472H107.784V7.876H106.284V10.672C106.284 10.888 106.32 11.072 106.392 11.224C106.472 11.376 106.592 11.492 106.752 11.572C106.92 11.652 107.132 11.692 107.388 11.692C107.444 11.692 107.508 11.688 107.58 11.68C107.66 11.672 107.736 11.664 107.808 11.656V13C107.696 13.016 107.568 13.032 107.424 13.048C107.28 13.064 107.148 13.072 107.028 13.072ZM112.573 13.144C112.101 13.144 111.665 13.052 111.265 12.868C110.873 12.676 110.561 12.404 110.329 12.052L110.485 11.74V13H109.009V3.916H110.581V7.768L110.341 7.444C110.565 7.092 110.869 6.82 111.253 6.628C111.637 6.428 112.081 6.328 112.585 6.328C113.201 6.328 113.757 6.48 114.253 6.784C114.749 7.088 115.141 7.496 115.429 8.008C115.725 8.52 115.873 9.096 115.873 9.736C115.873 10.368 115.729 10.944 115.441 11.464C115.153 11.984 114.761 12.396 114.265 12.7C113.769 12.996 113.205 13.144 112.573 13.144ZM112.393 11.704C112.753 11.704 113.073 11.62 113.353 11.452C113.633 11.284 113.849 11.052 114.001 10.756C114.161 10.46 114.241 10.12 114.241 9.736C114.241 9.352 114.161 9.016 114.001 8.728C113.849 8.432 113.633 8.2 113.353 8.032C113.073 7.856 112.753 7.768 112.393 7.768C112.049 7.768 111.737 7.852 111.457 8.02C111.185 8.188 110.969 8.424 110.809 8.728C110.657 9.024 110.581 9.36 110.581 9.736C110.581 10.12 110.657 10.46 110.809 10.756C110.969 11.052 111.185 11.284 111.457 11.452C111.737 11.62 112.049 11.704 112.393 11.704ZM117.072 13V6.472H118.548V7.924L118.428 7.708C118.58 7.22 118.816 6.88 119.136 6.688C119.464 6.496 119.856 6.4 120.312 6.4H120.696V7.792H120.132C119.684 7.792 119.324 7.932 119.052 8.212C118.78 8.484 118.644 8.868 118.644 9.364V13H117.072ZM121.56 13V6.472H123.132V13H121.56ZM121.56 5.74V4.06H123.132V5.74H121.56ZM127.728 13.144C127.08 13.144 126.496 12.996 125.976 12.7C125.464 12.396 125.06 11.988 124.764 11.476C124.468 10.956 124.32 10.372 124.32 9.724C124.32 9.076 124.468 8.496 124.764 7.984C125.06 7.472 125.464 7.068 125.976 6.772C126.496 6.476 127.08 6.328 127.728 6.328C128.192 6.328 128.624 6.412 129.024 6.58C129.424 6.74 129.768 6.964 130.056 7.252C130.352 7.532 130.564 7.868 130.692 8.26L129.312 8.86C129.192 8.532 128.988 8.268 128.7 8.068C128.42 7.868 128.096 7.768 127.728 7.768C127.384 7.768 127.076 7.852 126.804 8.02C126.54 8.188 126.332 8.42 126.18 8.716C126.028 9.012 125.952 9.352 125.952 9.736C125.952 10.12 126.028 10.46 126.18 10.756C126.332 11.052 126.54 11.284 126.804 11.452C127.076 11.62 127.384 11.704 127.728 11.704C128.104 11.704 128.432 11.604 128.712 11.404C128.992 11.204 129.192 10.936 129.312 10.6L130.692 11.224C130.564 11.592 130.356 11.924 130.068 12.22C129.78 12.508 129.436 12.736 129.036 12.904C128.636 13.064 128.2 13.144 127.728 13.144ZM131.884 13V3.916H133.456V9.868L132.856 9.688L135.928 6.472H137.884L135.472 9.1L137.932 13H136.132L133.996 9.616L134.932 9.424L132.964 11.536L133.456 10.576V13H131.884ZM141.294 13.144C140.598 13.144 139.99 12.98 139.47 12.652C138.958 12.316 138.606 11.864 138.414 11.296L139.59 10.732C139.758 11.1 139.99 11.388 140.286 11.596C140.59 11.804 140.926 11.908 141.294 11.908C141.582 11.908 141.81 11.844 141.978 11.716C142.146 11.588 142.23 11.42 142.23 11.212C142.23 11.084 142.194 10.98 142.122 10.9C142.058 10.812 141.966 10.74 141.846 10.684C141.734 10.62 141.61 10.568 141.474 10.528L140.406 10.228C139.854 10.068 139.434 9.824 139.146 9.496C138.866 9.168 138.726 8.78 138.726 8.332C138.726 7.932 138.826 7.584 139.026 7.288C139.234 6.984 139.518 6.748 139.878 6.58C140.246 6.412 140.666 6.328 141.138 6.328C141.754 6.328 142.298 6.476 142.77 6.772C143.242 7.068 143.578 7.484 143.778 8.02L142.578 8.584C142.466 8.288 142.278 8.052 142.014 7.876C141.75 7.7 141.454 7.612 141.126 7.612C140.862 7.612 140.654 7.672 140.502 7.792C140.35 7.912 140.274 8.068 140.274 8.26C140.274 8.38 140.306 8.484 140.37 8.572C140.434 8.66 140.522 8.732 140.634 8.788C140.754 8.844 140.89 8.896 141.042 8.944L142.086 9.256C142.622 9.416 143.034 9.656 143.322 9.976C143.618 10.296 143.766 10.688 143.766 11.152C143.766 11.544 143.662 11.892 143.454 12.196C143.246 12.492 142.958 12.724 142.59 12.892C142.222 13.06 141.79 13.144 141.294 13.144Z" fill="#000929"/>
<g clip-path="url(#clip0_262_1750)">
<path d="M85.5001 6.35488L82.8336 4.28088C82.5996 4.09884 82.3116 4 82.0151 4C81.7187 4 81.4306 4.09884 81.1966 4.28088L78.5296 6.35488C78.3694 6.47953 78.2397 6.63915 78.1505 6.82156C78.0613 7.00397 78.015 7.20435 78.0151 7.40738V11.0074C78.0151 11.2726 78.1205 11.527 78.308 11.7145C78.4956 11.902 78.7499 12.0074 79.0151 12.0074H85.0151C85.2804 12.0074 85.5347 11.902 85.7222 11.7145C85.9098 11.527 86.0151 11.2726 86.0151 11.0074V7.40738C86.0151 6.99588 85.8251 6.60738 85.5001 6.35488Z" fill="#7065F0" stroke="#7065F0" stroke-width="3" stroke-linecap="round" stroke-linejoin="round"/>
<path d="M84 9.5C82.895 10.1665 81.104 10.1665 80 9.5" stroke="#F9FAFB" stroke-width="2" stroke-linecap="round" stroke-linejoin="round"/>
</g>
<defs>
<clipPath id="clip0_262_1750">
<rect width="12" height="12" fill="white" transform="translate(76 2)"/>
</clipPath>
</defs>
</svg>
