<svg width="14" height="30" viewBox="0 0 14 30" fill="none" xmlns="http://www.w3.org/2000/svg">
<path d="M7.00096 27.6869L7.00096 21.5876L0.530003 18.4403L7.00096 27.6869ZM-9.76639e-08 17.5013L7.00096 20.9089L7.00096 7.49042L-9.76639e-08 17.5013Z" fill="url(#paint0_linear_373_521)"/>
<path d="M6.99902 27.6868L13.47 18.4402L6.99902 21.5875L6.99902 27.6868ZM6.99902 7.4903L6.99902 20.9088L14 17.5011L6.99902 7.4903Z" fill="url(#paint1_linear_373_521)"/>
<path style="mix-blend-mode:color-dodge" d="M6.99646 30C7.63039 30 8.14429 23.2843 8.14429 15C8.14429 6.71573 7.63039 5.71376e-08 6.99646 3.68087e-08C6.36253 1.64799e-08 5.84863 6.71573 5.84863 15C5.84863 23.2843 6.36253 30 6.99646 30Z" fill="url(#paint2_radial_373_521)"/>
<path style="mix-blend-mode:screen" d="M6.77627 20.9571C8.86184 20.9571 10.5525 18.5043 10.5525 15.4785C10.5525 12.4528 8.86184 10 6.77627 10C4.69069 10 3 12.4528 3 15.4785C3 18.5043 4.69069 20.9571 6.77627 20.9571Z" fill="url(#paint3_radial_373_521)"/>
<defs>
<linearGradient id="paint0_linear_373_521" x1="3.08449" y1="10.5148" x2="5.02909" y2="25.6532" gradientUnits="userSpaceOnUse">
<stop stop-color="#7F70D1"/>
<stop offset="1" stop-color="#402F9E"/>
</linearGradient>
<linearGradient id="paint1_linear_373_521" x1="8.18383" y1="28.2232" x2="9.72319" y2="11.1427" gradientUnits="userSpaceOnUse">
<stop stop-color="#7760BD"/>
<stop offset="1" stop-color="#C17FFF"/>
</linearGradient>
<radialGradient id="paint2_radial_373_521" cx="0" cy="0" r="1" gradientUnits="userSpaceOnUse" gradientTransform="translate(6.74871 15.1891) rotate(90) scale(15.0269 1.18197)">
<stop stop-color="white"/>
<stop offset="0.02" stop-color="#F7F7F7" stop-opacity="0.97"/>
<stop offset="0.13" stop-color="#BEBEBE" stop-opacity="0.74"/>
<stop offset="0.25" stop-color="#8B8B8B" stop-opacity="0.54"/>
<stop offset="0.37" stop-color="#606060" stop-opacity="0.38"/>
<stop offset="0.49" stop-color="#3D3D3D" stop-opacity="0.24"/>
<stop offset="0.62" stop-color="#222222" stop-opacity="0.14"/>
<stop offset="0.74" stop-color="#0F0F0F" stop-opacity="0.06"/>
<stop offset="0.87" stop-color="#040404" stop-opacity="0.01"/>
<stop offset="1" stop-opacity="0"/>
</radialGradient>
<radialGradient id="paint3_radial_373_521" cx="0" cy="0" r="1" gradientUnits="userSpaceOnUse" gradientTransform="translate(7.01791 15.4426) rotate(90) scale(5.47306 3.74407)">
<stop stop-color="#D065D6"/>
<stop offset="0.34" stop-color="#803E84" stop-opacity="0.62"/>
<stop offset="0.66" stop-color="#3B1D3D" stop-opacity="0.28"/>
<stop offset="0.88" stop-color="#100811" stop-opacity="0.08"/>
<stop offset="1" stop-opacity="0"/>
</radialGradient>
</defs>
</svg>
