<svg width="480" height="152" viewBox="0 0 480 152" fill="none" xmlns="http://www.w3.org/2000/svg">
<circle cx="32" cy="32" r="31.5" fill="white" stroke="#E0DEF7"/>
<circle cx="32" cy="32" r="28" fill="#E0DEF7"/>
<path d="M39.3734 26.36C39.2801 26.3466 39.1867 26.3466 39.0934 26.36C37.0267 26.2933 35.3867 24.6 35.3867 22.52C35.3867 20.4 37.1067 18.6666 39.2401 18.6666C41.3601 18.6666 43.0934 20.3866 43.0934 22.52C43.0801 24.6 41.4401 26.2933 39.3734 26.36Z" fill="white"/>
<path d="M43.72 35.6C42.2266 36.6 40.1333 36.9734 38.2 36.72C38.7066 35.6267 38.9733 34.4134 38.9866 33.1334C38.9866 31.8001 38.6933 30.5334 38.1333 29.4267C40.1066 29.16 42.2 29.5334 43.7066 30.5334C45.8133 31.92 45.8133 34.2 43.72 35.6Z" fill="white"/>
<path d="M24.5865 26.36C24.6799 26.3466 24.7732 26.3466 24.8665 26.36C26.9332 26.2933 28.5732 24.6 28.5732 22.52C28.5732 20.3866 26.8532 18.6666 24.7199 18.6666C22.5999 18.6666 20.8799 20.3866 20.8799 22.52C20.8799 24.6 22.5199 26.2933 24.5865 26.36Z" fill="white"/>
<path d="M24.7332 33.1334C24.7332 34.4267 25.0132 35.6534 25.5199 36.7601C23.6399 36.9601 21.6799 36.5601 20.2399 35.6134C18.1332 34.2134 18.1332 31.9334 20.2399 30.5334C21.6666 29.5734 23.6799 29.1867 25.5732 29.4001C25.0266 30.5201 24.7332 31.7867 24.7332 33.1334Z" fill="white"/>
<path d="M32.1599 37.16C32.0532 37.1467 31.9332 37.1467 31.8132 37.16C29.3599 37.08 27.3999 35.0667 27.3999 32.5867C27.4132 30.0533 29.4532 28 31.9999 28C34.5332 28 36.5866 30.0533 36.5866 32.5867C36.5732 35.0667 34.6266 37.08 32.1599 37.16Z" fill="white"/>
<path d="M27.8267 39.92C25.8133 41.2667 25.8133 43.48 27.8267 44.8134C30.12 46.3467 33.88 46.3467 36.1733 44.8134C38.1867 43.4667 38.1867 41.2534 36.1733 39.92C33.8933 38.3867 30.1333 38.3867 27.8267 39.92Z" fill="white"/>
<path d="M40 48C40 43.5817 43.5817 40 48 40H56C60.4183 40 64 43.5817 64 48V56C64 60.4183 60.4183 64 56 64H48C43.5817 64 40 60.4183 40 56V48Z" fill="#7065F0"/>
<path d="M57.1933 53.9534C55.8199 55.32 53.8533 55.74 52.1266 55.2L48.9866 58.3334C48.7599 58.5667 48.3133 58.7067 47.9933 58.66L46.5399 58.46C46.0599 58.3934 45.6133 57.94 45.5399 57.46L45.3399 56.0067C45.2933 55.6867 45.4466 55.24 45.6666 55.0134L48.7999 51.88C48.2666 50.1467 48.6799 48.18 50.0533 46.8134C52.0199 44.8467 55.2133 44.8467 57.1866 46.8134C59.1599 48.78 59.1599 51.9867 57.1933 53.9534Z" fill="white"/>
<path d="M48.5933 55.66L50.1266 57.1934" stroke="#7065F0" stroke-width="2" stroke-miterlimit="10" stroke-linecap="round" stroke-linejoin="round"/>
<path d="M53.6667 51.3334C54.219 51.3334 54.6667 50.8857 54.6667 50.3334C54.6667 49.7811 54.219 49.3334 53.6667 49.3334C53.1145 49.3334 52.6667 49.7811 52.6667 50.3334C52.6667 50.8857 53.1145 51.3334 53.6667 51.3334Z" fill="#7065F0" stroke="#7065F0" stroke-width="2" stroke-linecap="round" stroke-linejoin="round"/>
<path d="M1.464 116V102.944H4.416V105.848L4.176 105.416C4.48 104.44 4.952 103.76 5.592 103.376C6.248 102.992 7.032 102.8 7.944 102.8H8.712V105.584H7.584C6.688 105.584 5.968 105.864 5.424 106.424C4.88 106.968 4.608 107.736 4.608 108.728V116H1.464ZM16.3926 116.288C15.0486 116.288 13.8726 115.984 12.8646 115.376C11.8566 114.768 11.0726 113.944 10.5126 112.904C9.95256 111.864 9.67256 110.712 9.67256 109.448C9.67256 108.136 9.95256 106.976 10.5126 105.968C11.0886 104.944 11.8646 104.136 12.8406 103.544C13.8326 102.952 14.9366 102.656 16.1526 102.656C17.1766 102.656 18.0726 102.824 18.8406 103.16C19.6246 103.496 20.2886 103.96 20.8326 104.552C21.3766 105.144 21.7926 105.824 22.0806 106.592C22.3686 107.344 22.5126 108.16 22.5126 109.04C22.5126 109.264 22.4966 109.496 22.4646 109.736C22.4486 109.976 22.4086 110.184 22.3446 110.36H12.2646V107.96H20.5686L19.0806 109.088C19.2246 108.352 19.1846 107.696 18.9606 107.12C18.7526 106.544 18.4006 106.088 17.9046 105.752C17.4246 105.416 16.8406 105.248 16.1526 105.248C15.4966 105.248 14.9126 105.416 14.4006 105.752C13.8886 106.072 13.4966 106.552 13.2246 107.192C12.9686 107.816 12.8726 108.576 12.9366 109.472C12.8726 110.272 12.9766 110.984 13.2486 111.608C13.5366 112.216 13.9526 112.688 14.4966 113.024C15.0566 113.36 15.6966 113.528 16.4166 113.528C17.1366 113.528 17.7446 113.376 18.2406 113.072C18.7526 112.768 19.1526 112.36 19.4406 111.848L21.9846 113.096C21.7286 113.72 21.3286 114.272 20.7846 114.752C20.2406 115.232 19.5926 115.608 18.8406 115.88C18.1046 116.152 17.2886 116.288 16.3926 116.288ZM24.6559 116V102.944H27.6079V105.512L27.3679 105.056C27.6719 104.272 28.1679 103.68 28.8559 103.28C29.5599 102.864 30.3759 102.656 31.3039 102.656C32.2639 102.656 33.1119 102.864 33.8479 103.28C34.5999 103.696 35.1839 104.28 35.5999 105.032C36.0159 105.768 36.2239 106.624 36.2239 107.6V116H33.0799V108.344C33.0799 107.768 32.9679 107.272 32.7439 106.856C32.5199 106.44 32.2079 106.12 31.8079 105.896C31.4239 105.656 30.9679 105.536 30.4399 105.536C29.9279 105.536 29.4719 105.656 29.0719 105.896C28.6719 106.12 28.3599 106.44 28.1359 106.856C27.9119 107.272 27.7999 107.768 27.7999 108.344V116H24.6559ZM44.5944 116.144C43.1224 116.144 41.9784 115.744 41.1624 114.944C40.3624 114.128 39.9624 112.984 39.9624 111.512V105.752H37.7064V102.944H37.9464C38.5864 102.944 39.0824 102.776 39.4344 102.44C39.7864 102.104 39.9624 101.616 39.9624 100.976V99.968H43.1064V102.944H46.1064V105.752H43.1064V111.344C43.1064 111.776 43.1784 112.144 43.3224 112.448C43.4824 112.752 43.7224 112.984 44.0424 113.144C44.3784 113.304 44.8024 113.384 45.3144 113.384C45.4264 113.384 45.5544 113.376 45.6984 113.36C45.8584 113.344 46.0104 113.328 46.1544 113.312V116C45.9304 116.032 45.6744 116.064 45.3864 116.096C45.0984 116.128 44.8344 116.144 44.5944 116.144ZM54.3913 116.288C53.0473 116.288 51.8713 115.984 50.8633 115.376C49.8553 114.768 49.0713 113.944 48.5113 112.904C47.9513 111.864 47.6713 110.712 47.6713 109.448C47.6713 108.136 47.9513 106.976 48.5113 105.968C49.0873 104.944 49.8633 104.136 50.8393 103.544C51.8313 102.952 52.9353 102.656 54.1513 102.656C55.1753 102.656 56.0713 102.824 56.8393 103.16C57.6233 103.496 58.2873 103.96 58.8313 104.552C59.3753 105.144 59.7913 105.824 60.0793 106.592C60.3673 107.344 60.5113 108.16 60.5113 109.04C60.5113 109.264 60.4953 109.496 60.4633 109.736C60.4473 109.976 60.4073 110.184 60.3433 110.36H50.2633V107.96H58.5673L57.0793 109.088C57.2233 108.352 57.1833 107.696 56.9593 107.12C56.7513 106.544 56.3993 106.088 55.9033 105.752C55.4233 105.416 54.8393 105.248 54.1513 105.248C53.4953 105.248 52.9113 105.416 52.3993 105.752C51.8873 106.072 51.4953 106.552 51.2233 107.192C50.9673 107.816 50.8713 108.576 50.9353 109.472C50.8713 110.272 50.9753 110.984 51.2473 111.608C51.5353 112.216 51.9513 112.688 52.4953 113.024C53.0553 113.36 53.6953 113.528 54.4153 113.528C55.1353 113.528 55.7433 113.376 56.2393 113.072C56.7513 112.768 57.1513 112.36 57.4393 111.848L59.9833 113.096C59.7273 113.72 59.3273 114.272 58.7833 114.752C58.2393 115.232 57.5913 115.608 56.8393 115.88C56.1033 116.152 55.2873 116.288 54.3913 116.288ZM62.6546 116V102.944H65.6066V105.848L65.3666 105.416C65.6706 104.44 66.1426 103.76 66.7826 103.376C67.4386 102.992 68.2226 102.8 69.1346 102.8H69.9026V105.584H68.7746C67.8786 105.584 67.1586 105.864 66.6146 106.424C66.0706 106.968 65.7986 107.736 65.7986 108.728V116H62.6546ZM76.3592 116.288C74.9672 116.288 73.7512 115.96 72.7112 115.304C71.6872 114.632 70.9832 113.728 70.5992 112.592L72.9512 111.464C73.2872 112.2 73.7512 112.776 74.3432 113.192C74.9512 113.608 75.6232 113.816 76.3592 113.816C76.9352 113.816 77.3912 113.688 77.7272 113.432C78.0632 113.176 78.2312 112.84 78.2312 112.424C78.2312 112.168 78.1592 111.96 78.0152 111.8C77.8872 111.624 77.7032 111.48 77.4632 111.368C77.2392 111.24 76.9912 111.136 76.7192 111.056L74.5832 110.456C73.4792 110.136 72.6392 109.648 72.0632 108.992C71.5032 108.336 71.2232 107.56 71.2232 106.664C71.2232 105.864 71.4232 105.168 71.8232 104.576C72.2392 103.968 72.8072 103.496 73.5272 103.16C74.2632 102.824 75.1032 102.656 76.0472 102.656C77.2792 102.656 78.3672 102.952 79.3112 103.544C80.2552 104.136 80.9272 104.968 81.3272 106.04L78.9272 107.168C78.7032 106.576 78.3272 106.104 77.7992 105.752C77.2712 105.4 76.6792 105.224 76.0232 105.224C75.4952 105.224 75.0792 105.344 74.7752 105.584C74.4712 105.824 74.3192 106.136 74.3192 106.52C74.3192 106.76 74.3832 106.968 74.5112 107.144C74.6392 107.32 74.8152 107.464 75.0392 107.576C75.2792 107.688 75.5512 107.792 75.8552 107.888L77.9432 108.512C79.0152 108.832 79.8392 109.312 80.4152 109.952C81.0072 110.592 81.3032 111.376 81.3032 112.304C81.3032 113.088 81.0952 113.784 80.6792 114.392C80.2632 114.984 79.6872 115.448 78.9512 115.784C78.2152 116.12 77.3512 116.288 76.3592 116.288Z" fill="#7065F0"/>
<path d="M5.616 147.192C6.43733 147.192 7.168 146.995 7.808 146.6C8.45867 146.205 8.97067 145.672 9.344 145C9.71733 144.317 9.904 143.549 9.904 142.696C9.904 141.832 9.71733 141.064 9.344 140.392C8.97067 139.709 8.464 139.171 7.824 138.776C7.184 138.381 6.45333 138.184 5.632 138.184C4.992 138.184 4.416 138.307 3.904 138.552C3.392 138.787 2.97067 139.117 2.64 139.544V134.888H1.152V147H2.608V145.752C2.93867 146.211 3.36533 146.568 3.888 146.824C4.42133 147.069 4.99733 147.192 5.616 147.192ZM5.504 145.752C4.97067 145.752 4.48533 145.619 4.048 145.352C3.61067 145.085 3.264 144.723 3.008 144.264C2.76267 143.795 2.64 143.272 2.64 142.696C2.64 142.109 2.76267 141.587 3.008 141.128C3.264 140.669 3.61067 140.307 4.048 140.04C4.48533 139.763 4.97067 139.624 5.504 139.624C6.048 139.624 6.528 139.757 6.944 140.024C7.37067 140.291 7.70667 140.659 7.952 141.128C8.19733 141.587 8.32 142.109 8.32 142.696C8.32 143.272 8.19733 143.795 7.952 144.264C7.70667 144.723 7.37067 145.085 6.944 145.352C6.528 145.619 6.048 145.752 5.504 145.752ZM15.8231 147.192C16.7085 147.192 17.4765 146.984 18.1271 146.568C18.7778 146.152 19.2365 145.645 19.5031 145.048L18.2551 144.408C18.0098 144.824 17.6898 145.165 17.2951 145.432C16.9005 145.699 16.4151 145.832 15.8391 145.832C15.3591 145.832 14.9111 145.725 14.4951 145.512C14.0898 145.288 13.7538 144.973 13.4871 144.568C13.2311 144.163 13.0925 143.683 13.0711 143.128H19.6631C19.7165 142.84 19.7431 142.573 19.7431 142.328C19.7431 141.613 19.5831 140.941 19.2631 140.312C18.9431 139.683 18.4791 139.171 17.8711 138.776C17.2738 138.381 16.5485 138.184 15.6951 138.184C14.8951 138.184 14.1805 138.376 13.5511 138.76C12.9218 139.144 12.4205 139.677 12.0471 140.36C11.6845 141.032 11.5031 141.8 11.5031 142.664C11.5031 143.528 11.6898 144.301 12.0631 144.984C12.4365 145.667 12.9485 146.205 13.5991 146.6C14.2498 146.995 14.9911 147.192 15.8231 147.192ZM15.6951 139.512C16.1325 139.512 16.5325 139.613 16.8951 139.816C17.2578 140.008 17.5511 140.28 17.7751 140.632C17.9991 140.984 18.1165 141.389 18.1271 141.848H13.1031C13.2098 141.123 13.5085 140.552 13.9991 140.136C14.4898 139.72 15.0551 139.512 15.6951 139.512ZM21.6833 147H23.1713V134.888H21.6833V147ZM25.4801 137H26.9681V135.08H25.4801V137ZM25.4801 147H26.9681V138.376H25.4801V147ZM33.245 147.192C34.1303 147.192 34.8983 146.984 35.549 146.568C36.1997 146.152 36.6583 145.645 36.925 145.048L35.677 144.408C35.4317 144.824 35.1117 145.165 34.717 145.432C34.3223 145.699 33.837 145.832 33.261 145.832C32.781 145.832 32.333 145.725 31.917 145.512C31.5117 145.288 31.1757 144.973 30.909 144.568C30.653 144.163 30.5143 143.683 30.493 143.128H37.085C37.1383 142.84 37.165 142.573 37.165 142.328C37.165 141.613 37.005 140.941 36.685 140.312C36.365 139.683 35.901 139.171 35.293 138.776C34.6957 138.381 33.9703 138.184 33.117 138.184C32.317 138.184 31.6023 138.376 30.973 138.76C30.3437 139.144 29.8423 139.677 29.469 140.36C29.1063 141.032 28.925 141.8 28.925 142.664C28.925 143.528 29.1117 144.301 29.485 144.984C29.8583 145.667 30.3703 146.205 31.021 146.6C31.6717 146.995 32.413 147.192 33.245 147.192ZM33.117 139.512C33.5543 139.512 33.9543 139.613 34.317 139.816C34.6797 140.008 34.973 140.28 35.197 140.632C35.421 140.984 35.5383 141.389 35.549 141.848H30.525C30.6317 141.123 30.9303 140.552 31.421 140.136C31.9117 139.72 32.477 139.512 33.117 139.512ZM41.3489 147H42.7569L46.1489 138.376H44.4849L42.0529 144.904L39.6369 138.376H37.9729L41.3489 147ZM51.2919 147.192C52.1772 147.192 52.9452 146.984 53.5959 146.568C54.2465 146.152 54.7052 145.645 54.9719 145.048L53.7239 144.408C53.4785 144.824 53.1585 145.165 52.7639 145.432C52.3692 145.699 51.8839 145.832 51.3079 145.832C50.8279 145.832 50.3799 145.725 49.9639 145.512C49.5585 145.288 49.2225 144.973 48.9559 144.568C48.6999 144.163 48.5612 143.683 48.5399 143.128H55.1319C55.1852 142.84 55.2119 142.573 55.2119 142.328C55.2119 141.613 55.0519 140.941 54.7319 140.312C54.4119 139.683 53.9479 139.171 53.3399 138.776C52.7425 138.381 52.0172 138.184 51.1639 138.184C50.3639 138.184 49.6492 138.376 49.0199 138.76C48.3905 139.144 47.8892 139.677 47.5159 140.36C47.1532 141.032 46.9719 141.8 46.9719 142.664C46.9719 143.528 47.1585 144.301 47.5319 144.984C47.9052 145.667 48.4172 146.205 49.0679 146.6C49.7185 146.995 50.4599 147.192 51.2919 147.192ZM51.1639 139.512C51.6012 139.512 52.0012 139.613 52.3639 139.816C52.7265 140.008 53.0199 140.28 53.2439 140.632C53.4679 140.984 53.5852 141.389 53.5959 141.848H48.5719C48.6785 141.123 48.9772 140.552 49.4679 140.136C49.9585 139.72 50.5239 139.512 51.1639 139.512ZM59.9176 137H61.4056V135.08H59.9176V137ZM59.9176 147H61.4056V138.376H59.9176V147ZM63.7145 147H65.2025V141.896C65.2025 141.192 65.3998 140.637 65.7945 140.232C66.1892 139.827 66.6905 139.624 67.2985 139.624C67.9065 139.624 68.4025 139.827 68.7865 140.232C69.1705 140.627 69.3625 141.181 69.3625 141.896V147H70.8665V141.416C70.8665 140.797 70.7225 140.248 70.4345 139.768C70.1572 139.277 69.7732 138.893 69.2825 138.616C68.8025 138.328 68.2532 138.184 67.6345 138.184C67.1012 138.184 66.6212 138.296 66.1945 138.52C65.7678 138.733 65.4265 139.037 65.1705 139.432V138.376H63.7145V147ZM79.8574 147.192C80.668 147.192 81.4094 147 82.0814 146.616C82.7534 146.232 83.2867 145.699 83.6814 145.016C84.0867 144.333 84.2894 143.555 84.2894 142.68C84.2894 141.816 84.092 141.048 83.6974 140.376C83.3134 139.693 82.7854 139.16 82.1134 138.776C81.4414 138.381 80.6894 138.184 79.8574 138.184C79.0147 138.184 78.2574 138.381 77.5854 138.776C76.9134 139.16 76.38 139.693 75.9854 140.376C75.6014 141.048 75.4094 141.816 75.4094 142.68C75.4094 143.544 75.6067 144.317 76.0014 145C76.396 145.683 76.9294 146.221 77.6014 146.616C78.2734 147 79.0254 147.192 79.8574 147.192ZM79.8574 145.752C79.3134 145.752 78.8227 145.619 78.3854 145.352C77.9587 145.085 77.6174 144.723 77.3614 144.264C77.1054 143.795 76.9774 143.267 76.9774 142.68C76.9774 142.093 77.1054 141.571 77.3614 141.112C77.6174 140.653 77.9587 140.291 78.3854 140.024C78.8227 139.757 79.3134 139.624 79.8574 139.624C80.3907 139.624 80.8707 139.757 81.2974 140.024C81.7347 140.291 82.076 140.653 82.3214 141.112C82.5774 141.571 82.7054 142.093 82.7054 142.68C82.7054 143.267 82.5774 143.795 82.3214 144.264C82.076 144.723 81.7347 145.085 81.2974 145.352C80.8707 145.619 80.3907 145.752 79.8574 145.752ZM89.2861 147.192C89.8195 147.192 90.2995 147.085 90.7261 146.872C91.1528 146.648 91.4941 146.339 91.7501 145.944V147H93.2061V138.376H91.7021V143.48C91.7021 144.184 91.5048 144.739 91.1101 145.144C90.7261 145.549 90.2301 145.752 89.6221 145.752C89.0035 145.752 88.5021 145.56 88.1181 145.176C87.7341 144.781 87.5421 144.259 87.5421 143.608V138.376H86.0541V143.768C86.0541 144.44 86.1928 145.037 86.4701 145.56C86.7475 146.072 87.1261 146.472 87.6061 146.76C88.0968 147.048 88.6568 147.192 89.2861 147.192ZM95.5114 147H96.9994V141.864C96.9994 141.171 97.186 140.637 97.5594 140.264C97.9327 139.88 98.4234 139.688 99.0314 139.688H99.7834V138.28H99.2554C98.722 138.28 98.2634 138.376 97.8794 138.568C97.4954 138.749 97.1914 139.027 96.9674 139.4V138.376H95.5114V147ZM106.959 147.192C107.577 147.192 108.121 147.085 108.591 146.872C109.06 146.659 109.428 146.365 109.695 145.992C109.961 145.608 110.095 145.171 110.095 144.68C110.095 144.083 109.897 143.571 109.503 143.144C109.108 142.717 108.564 142.403 107.871 142.2L106.463 141.784C106.292 141.731 106.116 141.667 105.935 141.592C105.753 141.507 105.599 141.389 105.471 141.24C105.343 141.08 105.279 140.877 105.279 140.632C105.279 140.291 105.407 140.013 105.663 139.8C105.929 139.587 106.276 139.48 106.703 139.48C107.172 139.48 107.599 139.613 107.983 139.88C108.377 140.136 108.671 140.488 108.863 140.936L110.079 140.376C109.823 139.683 109.391 139.144 108.783 138.76C108.185 138.376 107.508 138.184 106.751 138.184C106.185 138.184 105.673 138.291 105.215 138.504C104.767 138.717 104.409 139.016 104.143 139.4C103.887 139.773 103.759 140.216 103.759 140.728C103.759 141.283 103.935 141.773 104.287 142.2C104.649 142.616 105.22 142.931 105.999 143.144L107.295 143.512C107.476 143.555 107.663 143.624 107.855 143.72C108.057 143.805 108.228 143.928 108.367 144.088C108.516 144.237 108.591 144.44 108.591 144.696C108.591 145.059 108.436 145.352 108.127 145.576C107.817 145.8 107.428 145.912 106.959 145.912C106.436 145.912 105.961 145.768 105.535 145.48C105.108 145.181 104.772 144.771 104.527 144.248L103.343 144.824C103.609 145.549 104.063 146.125 104.703 146.552C105.343 146.979 106.095 147.192 106.959 147.192ZM116.011 147.192C116.896 147.192 117.664 146.984 118.315 146.568C118.965 146.152 119.424 145.645 119.691 145.048L118.443 144.408C118.197 144.824 117.877 145.165 117.483 145.432C117.088 145.699 116.603 145.832 116.027 145.832C115.547 145.832 115.099 145.725 114.683 145.512C114.277 145.288 113.941 144.973 113.675 144.568C113.419 144.163 113.28 143.683 113.259 143.128H119.851C119.904 142.84 119.931 142.573 119.931 142.328C119.931 141.613 119.771 140.941 119.451 140.312C119.131 139.683 118.667 139.171 118.059 138.776C117.461 138.381 116.736 138.184 115.883 138.184C115.083 138.184 114.368 138.376 113.739 138.76C113.109 139.144 112.608 139.677 112.235 140.36C111.872 141.032 111.691 141.8 111.691 142.664C111.691 143.528 111.877 144.301 112.251 144.984C112.624 145.667 113.136 146.205 113.787 146.6C114.437 146.995 115.179 147.192 116.011 147.192ZM115.883 139.512C116.32 139.512 116.72 139.613 117.083 139.816C117.445 140.008 117.739 140.28 117.963 140.632C118.187 140.984 118.304 141.389 118.315 141.848H113.291C113.397 141.123 113.696 140.552 114.187 140.136C114.677 139.72 115.243 139.512 115.883 139.512ZM121.871 147H123.359V141.864C123.359 141.171 123.545 140.637 123.919 140.264C124.292 139.88 124.783 139.688 125.391 139.688H126.143V138.28H125.615C125.081 138.28 124.623 138.376 124.239 138.568C123.855 138.749 123.551 139.027 123.327 139.4V138.376H121.871V147ZM129.865 147H131.273L134.665 138.376H133.001L130.569 144.904L128.153 138.376H126.489L129.865 147ZM135.996 137H137.484V135.08H135.996V137ZM135.996 147H137.484V138.376H135.996V147ZM143.793 147.192C144.358 147.192 144.886 147.091 145.377 146.888C145.878 146.685 146.31 146.408 146.673 146.056C147.035 145.704 147.307 145.309 147.489 144.872L146.161 144.2C145.958 144.669 145.649 145.048 145.233 145.336C144.827 145.613 144.347 145.752 143.793 145.752C143.27 145.752 142.795 145.619 142.369 145.352C141.953 145.085 141.622 144.723 141.377 144.264C141.131 143.795 141.009 143.272 141.009 142.696C141.009 142.099 141.131 141.571 141.377 141.112C141.622 140.653 141.953 140.291 142.369 140.024C142.795 139.757 143.27 139.624 143.793 139.624C144.337 139.624 144.817 139.768 145.233 140.056C145.649 140.333 145.958 140.696 146.161 141.144L147.489 140.504C147.307 140.056 147.03 139.656 146.657 139.304C146.294 138.952 145.867 138.68 145.377 138.488C144.886 138.285 144.358 138.184 143.793 138.184C142.95 138.184 142.198 138.381 141.537 138.776C140.886 139.16 140.374 139.693 140.001 140.376C139.627 141.048 139.441 141.816 139.441 142.68C139.441 143.533 139.627 144.301 140.001 144.984C140.374 145.667 140.886 146.205 141.537 146.6C142.198 146.995 142.95 147.192 143.793 147.192ZM153.401 147.192C154.287 147.192 155.055 146.984 155.705 146.568C156.356 146.152 156.815 145.645 157.081 145.048L155.833 144.408C155.588 144.824 155.268 145.165 154.873 145.432C154.479 145.699 153.993 145.832 153.417 145.832C152.937 145.832 152.489 145.725 152.073 145.512C151.668 145.288 151.332 144.973 151.065 144.568C150.809 144.163 150.671 143.683 150.649 143.128H157.241C157.295 142.84 157.321 142.573 157.321 142.328C157.321 141.613 157.161 140.941 156.841 140.312C156.521 139.683 156.057 139.171 155.449 138.776C154.852 138.381 154.127 138.184 153.273 138.184C152.473 138.184 151.759 138.376 151.129 138.76C150.5 139.144 149.999 139.677 149.625 140.36C149.263 141.032 149.081 141.8 149.081 142.664C149.081 143.528 149.268 144.301 149.641 144.984C150.015 145.667 150.527 146.205 151.177 146.6C151.828 146.995 152.569 147.192 153.401 147.192ZM153.273 139.512C153.711 139.512 154.111 139.613 154.473 139.816C154.836 140.008 155.129 140.28 155.353 140.632C155.577 140.984 155.695 141.389 155.705 141.848H150.681C150.788 141.123 151.087 140.552 151.577 140.136C152.068 139.72 152.633 139.512 153.273 139.512Z" fill="#000929"/>
<circle cx="271" cy="32" r="31.5" fill="white" stroke="#E0DEF7"/>
<circle cx="271" cy="32" r="28" fill="#E0DEF7"/>
<path d="M261.667 26.6666C259.453 26.6666 257.667 28.4533 257.667 30.6666V41.3333C257.667 43.5466 259.453 45.3333 261.667 45.3333H263.667C265.133 45.3333 266.333 44.1333 266.333 42.6666V29.3333C266.333 27.8666 265.133 26.6666 263.667 26.6666H261.667ZM263 38.6666C263 39.2133 262.547 39.6666 262 39.6666C261.453 39.6666 261 39.2133 261 38.6666V33.3333C261 32.7866 261.453 32.3333 262 32.3333C262.547 32.3333 263 32.7866 263 33.3333V38.6666Z" fill="white"/>
<path d="M280.333 18.6666H272.333C270.12 18.6666 268.333 20.4533 268.333 22.6666V41.3333C268.333 43.5466 270.12 45.3333 272.333 45.3333H273C273.373 45.3333 273.667 45.04 273.667 44.6666V40C273.667 39.2666 274.267 38.6666 275 38.6666H277.667C278.4 38.6666 279 39.2666 279 40V44.6666C279 45.04 279.293 45.3333 279.667 45.3333H280.333C282.547 45.3333 284.333 43.5466 284.333 41.3333V22.6666C284.333 20.4533 282.547 18.6666 280.333 18.6666ZM274.667 33.3333C274.667 33.88 274.213 34.3333 273.667 34.3333C273.12 34.3333 272.667 33.88 272.667 33.3333V26.6666C272.667 26.12 273.12 25.6666 273.667 25.6666C274.213 25.6666 274.667 26.12 274.667 26.6666V33.3333ZM280 33.3333C280 33.88 279.547 34.3333 279 34.3333C278.453 34.3333 278 33.88 278 33.3333V26.6666C278 26.12 278.453 25.6666 279 25.6666C279.547 25.6666 280 26.12 280 26.6666V33.3333Z" fill="white"/>
<path d="M279 48C279 43.5817 282.582 40 287 40H295C299.418 40 303 43.5817 303 48V56C303 60.4183 299.418 64 295 64H287C282.582 64 279 60.4183 279 56V48Z" fill="#7065F0"/>
<path d="M290.667 58C294.165 58 297 55.1645 297 51.6667C297 48.1689 294.165 45.3334 290.667 45.3334C287.169 45.3334 284.333 48.1689 284.333 51.6667C284.333 55.1645 287.169 58 290.667 58Z" stroke="white" stroke-width="2" stroke-linecap="round" stroke-linejoin="round"/>
<path d="M297.667 58.6667L296.333 57.3334" stroke="white" stroke-width="2" stroke-linecap="round" stroke-linejoin="round"/>
<path d="M240.464 120.8V102.944H243.416V105.536L243.128 104.888C243.576 104.184 244.184 103.64 244.952 103.256C245.72 102.856 246.608 102.656 247.616 102.656C248.848 102.656 249.96 102.96 250.952 103.568C251.944 104.176 252.728 104.992 253.304 106.016C253.896 107.04 254.192 108.192 254.192 109.472C254.192 110.736 253.904 111.888 253.328 112.928C252.752 113.968 251.968 114.792 250.976 115.4C249.984 115.992 248.856 116.288 247.592 116.288C246.648 116.288 245.776 116.104 244.976 115.736C244.192 115.352 243.568 114.808 243.104 114.104L243.608 113.48V120.8H240.464ZM247.232 113.408C247.952 113.408 248.592 113.24 249.152 112.904C249.712 112.568 250.144 112.104 250.448 111.512C250.768 110.92 250.928 110.24 250.928 109.472C250.928 108.704 250.768 108.032 250.448 107.456C250.144 106.864 249.712 106.4 249.152 106.064C248.592 105.712 247.952 105.536 247.232 105.536C246.544 105.536 245.92 105.704 245.36 106.04C244.816 106.376 244.384 106.848 244.064 107.456C243.76 108.048 243.608 108.72 243.608 109.472C243.608 110.24 243.76 110.92 244.064 111.512C244.384 112.104 244.816 112.568 245.36 112.904C245.92 113.24 246.544 113.408 247.232 113.408ZM256.349 116V102.944H259.301V105.848L259.061 105.416C259.365 104.44 259.837 103.76 260.477 103.376C261.133 102.992 261.917 102.8 262.829 102.8H263.597V105.584H262.469C261.573 105.584 260.853 105.864 260.309 106.424C259.765 106.968 259.493 107.736 259.493 108.728V116H256.349ZM271.47 116.288C270.19 116.288 269.022 115.992 267.966 115.4C266.926 114.808 266.094 114 265.47 112.976C264.862 111.952 264.558 110.784 264.558 109.472C264.558 108.16 264.862 106.992 265.47 105.968C266.094 104.944 266.926 104.136 267.966 103.544C269.006 102.952 270.174 102.656 271.47 102.656C272.75 102.656 273.91 102.952 274.95 103.544C275.99 104.136 276.814 104.944 277.422 105.968C278.046 106.976 278.358 108.144 278.358 109.472C278.358 110.784 278.046 111.952 277.422 112.976C276.798 114 275.966 114.808 274.926 115.4C273.886 115.992 272.734 116.288 271.47 116.288ZM271.47 113.408C272.174 113.408 272.79 113.24 273.318 112.904C273.862 112.568 274.286 112.104 274.59 111.512C274.91 110.904 275.07 110.224 275.07 109.472C275.07 108.704 274.91 108.032 274.59 107.456C274.286 106.864 273.862 106.4 273.318 106.064C272.79 105.712 272.174 105.536 271.47 105.536C270.75 105.536 270.118 105.712 269.574 106.064C269.03 106.4 268.598 106.864 268.278 107.456C267.974 108.032 267.822 108.704 267.822 109.472C267.822 110.224 267.974 110.904 268.278 111.512C268.598 112.104 269.03 112.568 269.574 112.904C270.118 113.24 270.75 113.408 271.47 113.408ZM280.502 120.8V102.944H283.454V105.536L283.166 104.888C283.614 104.184 284.222 103.64 284.99 103.256C285.758 102.856 286.646 102.656 287.654 102.656C288.886 102.656 289.998 102.96 290.99 103.568C291.982 104.176 292.766 104.992 293.342 106.016C293.934 107.04 294.23 108.192 294.23 109.472C294.23 110.736 293.942 111.888 293.366 112.928C292.79 113.968 292.006 114.792 291.014 115.4C290.022 115.992 288.894 116.288 287.63 116.288C286.686 116.288 285.814 116.104 285.014 115.736C284.23 115.352 283.606 114.808 283.142 114.104L283.646 113.48V120.8H280.502ZM287.27 113.408C287.99 113.408 288.63 113.24 289.19 112.904C289.75 112.568 290.182 112.104 290.486 111.512C290.806 110.92 290.966 110.24 290.966 109.472C290.966 108.704 290.806 108.032 290.486 107.456C290.182 106.864 289.75 106.4 289.19 106.064C288.63 105.712 287.99 105.536 287.27 105.536C286.582 105.536 285.958 105.704 285.398 106.04C284.854 106.376 284.422 106.848 284.102 107.456C283.798 108.048 283.646 108.72 283.646 109.472C283.646 110.24 283.798 110.92 284.102 111.512C284.422 112.104 284.854 112.568 285.398 112.904C285.958 113.24 286.582 113.408 287.27 113.408ZM302.579 116.288C301.235 116.288 300.059 115.984 299.051 115.376C298.043 114.768 297.259 113.944 296.699 112.904C296.139 111.864 295.859 110.712 295.859 109.448C295.859 108.136 296.139 106.976 296.699 105.968C297.275 104.944 298.051 104.136 299.027 103.544C300.019 102.952 301.123 102.656 302.339 102.656C303.363 102.656 304.259 102.824 305.027 103.16C305.811 103.496 306.475 103.96 307.019 104.552C307.563 105.144 307.979 105.824 308.267 106.592C308.555 107.344 308.699 108.16 308.699 109.04C308.699 109.264 308.683 109.496 308.651 109.736C308.635 109.976 308.595 110.184 308.531 110.36H298.451V107.96H306.755L305.267 109.088C305.411 108.352 305.371 107.696 305.147 107.12C304.939 106.544 304.587 106.088 304.091 105.752C303.611 105.416 303.027 105.248 302.339 105.248C301.683 105.248 301.099 105.416 300.587 105.752C300.075 106.072 299.683 106.552 299.411 107.192C299.155 107.816 299.059 108.576 299.123 109.472C299.059 110.272 299.163 110.984 299.435 111.608C299.723 112.216 300.139 112.688 300.683 113.024C301.243 113.36 301.883 113.528 302.603 113.528C303.323 113.528 303.931 113.376 304.427 113.072C304.939 112.768 305.339 112.36 305.627 111.848L308.171 113.096C307.915 113.72 307.515 114.272 306.971 114.752C306.427 115.232 305.779 115.608 305.027 115.88C304.291 116.152 303.475 116.288 302.579 116.288ZM310.842 116V102.944H313.794V105.848L313.554 105.416C313.858 104.44 314.33 103.76 314.97 103.376C315.626 102.992 316.41 102.8 317.322 102.8H318.09V105.584H316.962C316.066 105.584 315.346 105.864 314.802 106.424C314.258 106.968 313.986 107.736 313.986 108.728V116H310.842ZM325.882 116.144C324.41 116.144 323.266 115.744 322.45 114.944C321.65 114.128 321.25 112.984 321.25 111.512V105.752H318.994V102.944H319.234C319.874 102.944 320.37 102.776 320.722 102.44C321.074 102.104 321.25 101.616 321.25 100.976V99.968H324.394V102.944H327.394V105.752H324.394V111.344C324.394 111.776 324.466 112.144 324.61 112.448C324.77 112.752 325.01 112.984 325.33 113.144C325.666 113.304 326.09 113.384 326.602 113.384C326.714 113.384 326.842 113.376 326.986 113.36C327.146 113.344 327.298 113.328 327.442 113.312V116C327.218 116.032 326.962 116.064 326.674 116.096C326.386 116.128 326.122 116.144 325.882 116.144ZM329.604 116V102.944H332.748V116H329.604ZM329.604 101.48V98.12H332.748V101.48H329.604ZM341.603 116.288C340.259 116.288 339.083 115.984 338.075 115.376C337.067 114.768 336.283 113.944 335.723 112.904C335.163 111.864 334.883 110.712 334.883 109.448C334.883 108.136 335.163 106.976 335.723 105.968C336.299 104.944 337.075 104.136 338.051 103.544C339.043 102.952 340.147 102.656 341.363 102.656C342.387 102.656 343.283 102.824 344.051 103.16C344.835 103.496 345.499 103.96 346.043 104.552C346.587 105.144 347.003 105.824 347.291 106.592C347.579 107.344 347.723 108.16 347.723 109.04C347.723 109.264 347.707 109.496 347.675 109.736C347.659 109.976 347.619 110.184 347.555 110.36H337.475V107.96H345.779L344.291 109.088C344.435 108.352 344.395 107.696 344.171 107.12C343.963 106.544 343.611 106.088 343.115 105.752C342.635 105.416 342.051 105.248 341.363 105.248C340.707 105.248 340.123 105.416 339.611 105.752C339.099 106.072 338.707 106.552 338.435 107.192C338.179 107.816 338.083 108.576 338.147 109.472C338.083 110.272 338.187 110.984 338.459 111.608C338.747 112.216 339.163 112.688 339.707 113.024C340.267 113.36 340.907 113.528 341.627 113.528C342.347 113.528 342.955 113.376 343.451 113.072C343.963 112.768 344.363 112.36 344.651 111.848L347.195 113.096C346.939 113.72 346.539 114.272 345.995 114.752C345.451 115.232 344.803 115.608 344.051 115.88C343.315 116.152 342.499 116.288 341.603 116.288ZM354.834 116.288C353.442 116.288 352.226 115.96 351.186 115.304C350.162 114.632 349.458 113.728 349.074 112.592L351.426 111.464C351.762 112.2 352.226 112.776 352.818 113.192C353.426 113.608 354.098 113.816 354.834 113.816C355.41 113.816 355.866 113.688 356.202 113.432C356.538 113.176 356.706 112.84 356.706 112.424C356.706 112.168 356.634 111.96 356.49 111.8C356.362 111.624 356.178 111.48 355.938 111.368C355.714 111.24 355.466 111.136 355.194 111.056L353.058 110.456C351.954 110.136 351.114 109.648 350.538 108.992C349.978 108.336 349.698 107.56 349.698 106.664C349.698 105.864 349.898 105.168 350.298 104.576C350.714 103.968 351.282 103.496 352.002 103.16C352.738 102.824 353.578 102.656 354.522 102.656C355.754 102.656 356.842 102.952 357.786 103.544C358.73 104.136 359.402 104.968 359.802 106.04L357.402 107.168C357.178 106.576 356.802 106.104 356.274 105.752C355.746 105.4 355.154 105.224 354.498 105.224C353.97 105.224 353.554 105.344 353.25 105.584C352.946 105.824 352.794 106.136 352.794 106.52C352.794 106.76 352.858 106.968 352.986 107.144C353.114 107.32 353.29 107.464 353.514 107.576C353.754 107.688 354.026 107.792 354.33 107.888L356.418 108.512C357.49 108.832 358.314 109.312 358.89 109.952C359.482 110.592 359.778 111.376 359.778 112.304C359.778 113.088 359.57 113.784 359.154 114.392C358.738 114.984 358.162 115.448 357.426 115.784C356.69 116.12 355.826 116.288 354.834 116.288Z" fill="#7065F0"/>
<path d="M242.68 147.192C243.309 147.192 243.875 147.075 244.376 146.84C244.877 146.595 245.283 146.275 245.592 145.88V147H247.048V141.144C247.048 140.557 246.904 140.045 246.616 139.608C246.339 139.16 245.949 138.813 245.448 138.568C244.947 138.312 244.365 138.184 243.704 138.184C243.192 138.184 242.701 138.275 242.232 138.456C241.763 138.637 241.352 138.888 241 139.208C240.648 139.517 240.392 139.869 240.232 140.264L241.528 140.936C241.709 140.531 241.987 140.2 242.36 139.944C242.733 139.688 243.171 139.56 243.672 139.56C244.237 139.56 244.691 139.709 245.032 140.008C245.384 140.296 245.56 140.675 245.56 141.144V141.544L242.616 142.024C241.645 142.184 240.931 142.509 240.472 143C240.024 143.48 239.8 144.061 239.8 144.744C239.8 145.469 240.067 146.061 240.6 146.52C241.144 146.968 241.837 147.192 242.68 147.192ZM241.368 144.696C241.368 144.323 241.491 144.008 241.736 143.752C241.992 143.496 242.397 143.32 242.952 143.224L245.56 142.792V143.336C245.56 143.816 245.448 144.253 245.224 144.648C245 145.043 244.685 145.357 244.28 145.592C243.875 145.816 243.4 145.928 242.856 145.928C242.429 145.928 242.072 145.811 241.784 145.576C241.507 145.341 241.368 145.048 241.368 144.696ZM249.355 147H250.843V141.896C250.843 141.192 251.04 140.637 251.435 140.232C251.83 139.827 252.331 139.624 252.939 139.624C253.547 139.624 254.043 139.827 254.427 140.232C254.811 140.627 255.003 141.181 255.003 141.896V147H256.507V141.416C256.507 140.797 256.363 140.248 256.075 139.768C255.798 139.277 255.414 138.893 254.923 138.616C254.443 138.328 253.894 138.184 253.275 138.184C252.742 138.184 252.262 138.296 251.835 138.52C251.408 138.733 251.067 139.037 250.811 139.432V138.376H249.355V147ZM262.556 147.192C263.196 147.192 263.778 147.069 264.3 146.824C264.834 146.568 265.26 146.205 265.58 145.736V147H267.036V134.888H265.532V139.528C265.202 139.101 264.78 138.771 264.268 138.536C263.756 138.301 263.186 138.184 262.556 138.184C261.746 138.184 261.015 138.381 260.364 138.776C259.724 139.171 259.218 139.709 258.844 140.392C258.471 141.064 258.284 141.832 258.284 142.696C258.284 143.549 258.471 144.317 258.844 145C259.218 145.672 259.724 146.205 260.364 146.6C261.015 146.995 261.746 147.192 262.556 147.192ZM262.684 145.752C262.14 145.752 261.655 145.619 261.228 145.352C260.802 145.085 260.466 144.723 260.22 144.264C259.975 143.795 259.852 143.272 259.852 142.696C259.852 142.109 259.975 141.587 260.22 141.128C260.466 140.659 260.802 140.291 261.228 140.024C261.666 139.757 262.151 139.624 262.684 139.624C263.228 139.624 263.714 139.763 264.14 140.04C264.567 140.307 264.903 140.669 265.148 141.128C265.404 141.587 265.532 142.109 265.532 142.696C265.532 143.272 265.404 143.795 265.148 144.264C264.903 144.723 264.567 145.085 264.14 145.352C263.714 145.619 263.228 145.752 262.684 145.752ZM272.105 147H273.593V141.896C273.593 141.192 273.79 140.637 274.185 140.232C274.59 139.827 275.092 139.624 275.689 139.624C276.286 139.624 276.777 139.827 277.161 140.232C277.556 140.627 277.753 141.181 277.753 141.896V147H279.257V141.416C279.257 140.797 279.113 140.248 278.825 139.768C278.548 139.277 278.164 138.893 277.673 138.616C277.193 138.328 276.644 138.184 276.025 138.184C275.502 138.184 275.028 138.291 274.601 138.504C274.185 138.707 273.849 139 273.593 139.384V134.888H272.105V147ZM285.482 147.192C286.293 147.192 287.034 147 287.706 146.616C288.378 146.232 288.912 145.699 289.306 145.016C289.712 144.333 289.914 143.555 289.914 142.68C289.914 141.816 289.717 141.048 289.322 140.376C288.938 139.693 288.41 139.16 287.738 138.776C287.066 138.381 286.314 138.184 285.482 138.184C284.64 138.184 283.882 138.381 283.21 138.776C282.538 139.16 282.005 139.693 281.61 140.376C281.226 141.048 281.034 141.816 281.034 142.68C281.034 143.544 281.232 144.317 281.626 145C282.021 145.683 282.554 146.221 283.226 146.616C283.898 147 284.65 147.192 285.482 147.192ZM285.482 145.752C284.938 145.752 284.448 145.619 284.01 145.352C283.584 145.085 283.242 144.723 282.986 144.264C282.73 143.795 282.602 143.267 282.602 142.68C282.602 142.093 282.73 141.571 282.986 141.112C283.242 140.653 283.584 140.291 284.01 140.024C284.448 139.757 284.938 139.624 285.482 139.624C286.016 139.624 286.496 139.757 286.922 140.024C287.36 140.291 287.701 140.653 287.946 141.112C288.202 141.571 288.33 142.093 288.33 142.68C288.33 143.267 288.202 143.795 287.946 144.264C287.701 144.723 287.36 145.085 286.922 145.352C286.496 145.619 286.016 145.752 285.482 145.752ZM294.911 147.192C295.444 147.192 295.924 147.085 296.351 146.872C296.778 146.648 297.119 146.339 297.375 145.944V147H298.831V138.376H297.327V143.48C297.327 144.184 297.13 144.739 296.735 145.144C296.351 145.549 295.855 145.752 295.247 145.752C294.628 145.752 294.127 145.56 293.743 145.176C293.359 144.781 293.167 144.259 293.167 143.608V138.376H291.679V143.768C291.679 144.44 291.818 145.037 292.095 145.56C292.372 146.072 292.751 146.472 293.231 146.76C293.722 147.048 294.282 147.192 294.911 147.192ZM304.224 147.192C304.843 147.192 305.387 147.085 305.856 146.872C306.326 146.659 306.694 146.365 306.96 145.992C307.227 145.608 307.36 145.171 307.36 144.68C307.36 144.083 307.163 143.571 306.768 143.144C306.374 142.717 305.83 142.403 305.136 142.2L303.728 141.784C303.558 141.731 303.382 141.667 303.2 141.592C303.019 141.507 302.864 141.389 302.736 141.24C302.608 141.08 302.544 140.877 302.544 140.632C302.544 140.291 302.672 140.013 302.928 139.8C303.195 139.587 303.542 139.48 303.968 139.48C304.438 139.48 304.864 139.613 305.248 139.88C305.643 140.136 305.936 140.488 306.128 140.936L307.344 140.376C307.088 139.683 306.656 139.144 306.048 138.76C305.451 138.376 304.774 138.184 304.016 138.184C303.451 138.184 302.939 138.291 302.48 138.504C302.032 138.717 301.675 139.016 301.408 139.4C301.152 139.773 301.024 140.216 301.024 140.728C301.024 141.283 301.2 141.773 301.552 142.2C301.915 142.616 302.486 142.931 303.264 143.144L304.56 143.512C304.742 143.555 304.928 143.624 305.12 143.72C305.323 143.805 305.494 143.928 305.632 144.088C305.782 144.237 305.856 144.44 305.856 144.696C305.856 145.059 305.702 145.352 305.392 145.576C305.083 145.8 304.694 145.912 304.224 145.912C303.702 145.912 303.227 145.768 302.8 145.48C302.374 145.181 302.038 144.771 301.792 144.248L300.608 144.824C300.875 145.549 301.328 146.125 301.968 146.552C302.608 146.979 303.36 147.192 304.224 147.192ZM313.276 147.192C314.162 147.192 314.93 146.984 315.58 146.568C316.231 146.152 316.69 145.645 316.956 145.048L315.708 144.408C315.463 144.824 315.143 145.165 314.748 145.432C314.354 145.699 313.868 145.832 313.292 145.832C312.812 145.832 312.364 145.725 311.948 145.512C311.543 145.288 311.207 144.973 310.94 144.568C310.684 144.163 310.546 143.683 310.524 143.128H317.116C317.17 142.84 317.196 142.573 317.196 142.328C317.196 141.613 317.036 140.941 316.716 140.312C316.396 139.683 315.932 139.171 315.324 138.776C314.727 138.381 314.002 138.184 313.148 138.184C312.348 138.184 311.634 138.376 311.004 138.76C310.375 139.144 309.874 139.677 309.5 140.36C309.138 141.032 308.956 141.8 308.956 142.664C308.956 143.528 309.143 144.301 309.516 144.984C309.89 145.667 310.402 146.205 311.052 146.6C311.703 146.995 312.444 147.192 313.276 147.192ZM313.148 139.512C313.586 139.512 313.986 139.613 314.348 139.816C314.711 140.008 315.004 140.28 315.228 140.632C315.452 140.984 315.57 141.389 315.58 141.848H310.556C310.663 141.123 310.962 140.552 311.452 140.136C311.943 139.72 312.508 139.512 313.148 139.512ZM321.902 147H323.39V141.864C323.39 141.171 323.577 140.637 323.95 140.264C324.323 139.88 324.814 139.688 325.422 139.688H326.174V138.28H325.646C325.113 138.28 324.654 138.376 324.27 138.568C323.886 138.749 323.582 139.027 323.358 139.4V138.376H321.902V147ZM331.464 147.192C332.349 147.192 333.117 146.984 333.768 146.568C334.418 146.152 334.877 145.645 335.144 145.048L333.896 144.408C333.65 144.824 333.33 145.165 332.936 145.432C332.541 145.699 332.056 145.832 331.48 145.832C331 145.832 330.552 145.725 330.136 145.512C329.73 145.288 329.394 144.973 329.128 144.568C328.872 144.163 328.733 143.683 328.712 143.128H335.304C335.357 142.84 335.384 142.573 335.384 142.328C335.384 141.613 335.224 140.941 334.904 140.312C334.584 139.683 334.12 139.171 333.512 138.776C332.914 138.381 332.189 138.184 331.336 138.184C330.536 138.184 329.821 138.376 329.192 138.76C328.562 139.144 328.061 139.677 327.688 140.36C327.325 141.032 327.144 141.8 327.144 142.664C327.144 143.528 327.33 144.301 327.704 144.984C328.077 145.667 328.589 146.205 329.24 146.6C329.89 146.995 330.632 147.192 331.464 147.192ZM331.336 139.512C331.773 139.512 332.173 139.613 332.536 139.816C332.898 140.008 333.192 140.28 333.416 140.632C333.64 140.984 333.757 141.389 333.768 141.848H328.744C328.85 141.123 329.149 140.552 329.64 140.136C330.13 139.72 330.696 139.512 331.336 139.512ZM339.727 147.192C340.356 147.192 340.922 147.075 341.423 146.84C341.924 146.595 342.33 146.275 342.639 145.88V147H344.095V141.144C344.095 140.557 343.951 140.045 343.663 139.608C343.386 139.16 342.996 138.813 342.495 138.568C341.994 138.312 341.412 138.184 340.751 138.184C340.239 138.184 339.748 138.275 339.279 138.456C338.81 138.637 338.399 138.888 338.047 139.208C337.695 139.517 337.439 139.869 337.279 140.264L338.575 140.936C338.756 140.531 339.034 140.2 339.407 139.944C339.78 139.688 340.218 139.56 340.719 139.56C341.284 139.56 341.738 139.709 342.079 140.008C342.431 140.296 342.607 140.675 342.607 141.144V141.544L339.663 142.024C338.692 142.184 337.978 142.509 337.519 143C337.071 143.48 336.847 144.061 336.847 144.744C336.847 145.469 337.114 146.061 337.647 146.52C338.191 146.968 338.884 147.192 339.727 147.192ZM338.415 144.696C338.415 144.323 338.538 144.008 338.783 143.752C339.039 143.496 339.444 143.32 339.999 143.224L342.607 142.792V143.336C342.607 143.816 342.495 144.253 342.271 144.648C342.047 145.043 341.732 145.357 341.327 145.592C340.922 145.816 340.447 145.928 339.903 145.928C339.476 145.928 339.119 145.811 338.831 145.576C338.554 145.341 338.415 145.048 338.415 144.696ZM350.322 147.192C350.962 147.192 351.543 147.069 352.066 146.824C352.599 146.568 353.026 146.205 353.346 145.736V147H354.802V134.888H353.298V139.528C352.967 139.101 352.546 138.771 352.034 138.536C351.522 138.301 350.951 138.184 350.322 138.184C349.511 138.184 348.781 138.381 348.13 138.776C347.49 139.171 346.983 139.709 346.61 140.392C346.237 141.064 346.05 141.832 346.05 142.696C346.05 143.549 346.237 144.317 346.61 145C346.983 145.672 347.49 146.205 348.13 146.6C348.781 146.995 349.511 147.192 350.322 147.192ZM350.45 145.752C349.906 145.752 349.421 145.619 348.994 145.352C348.567 145.085 348.231 144.723 347.986 144.264C347.741 143.795 347.618 143.272 347.618 142.696C347.618 142.109 347.741 141.587 347.986 141.128C348.231 140.659 348.567 140.291 348.994 140.024C349.431 139.757 349.917 139.624 350.45 139.624C350.994 139.624 351.479 139.763 351.906 140.04C352.333 140.307 352.669 140.669 352.914 141.128C353.17 141.587 353.298 142.109 353.298 142.696C353.298 143.272 353.17 143.795 352.914 144.264C352.669 144.723 352.333 145.085 351.906 145.352C351.479 145.619 350.994 145.752 350.45 145.752ZM357.569 150.52C358.134 150.52 358.614 150.408 359.009 150.184C359.414 149.96 359.756 149.656 360.033 149.272C360.321 148.899 360.556 148.483 360.737 148.024L364.625 138.376H362.977L360.369 145.112L357.745 138.376H356.129L359.553 147.016L359.297 147.64C359.062 148.173 358.812 148.552 358.545 148.776C358.289 149 357.91 149.112 357.409 149.112C357.238 149.112 357.062 149.096 356.881 149.064C356.71 149.043 356.566 149.021 356.449 149V150.328C356.62 150.403 356.801 150.451 356.993 150.472C357.185 150.504 357.377 150.52 357.569 150.52ZM369.627 147H371.131V139.8H373.179V138.376H371.131V137.768C371.131 137.213 371.285 136.824 371.595 136.6C371.915 136.365 372.32 136.248 372.811 136.248C372.875 136.248 372.965 136.253 373.083 136.264C373.211 136.264 373.312 136.275 373.387 136.296V134.968C373.291 134.947 373.168 134.931 373.019 134.92C372.88 134.899 372.752 134.888 372.635 134.888C372.08 134.888 371.573 135 371.115 135.224C370.667 135.448 370.304 135.773 370.027 136.2C369.76 136.627 369.627 137.149 369.627 137.768V138.376H367.979V139.8H369.627V147ZM378.764 147.192C379.574 147.192 380.316 147 380.988 146.616C381.66 146.232 382.193 145.699 382.588 145.016C382.993 144.333 383.196 143.555 383.196 142.68C383.196 141.816 382.998 141.048 382.604 140.376C382.22 139.693 381.692 139.16 381.02 138.776C380.348 138.381 379.596 138.184 378.764 138.184C377.921 138.184 377.164 138.381 376.492 138.776C375.82 139.16 375.286 139.693 374.892 140.376C374.508 141.048 374.316 141.816 374.316 142.68C374.316 143.544 374.513 144.317 374.908 145C375.302 145.683 375.836 146.221 376.508 146.616C377.18 147 377.932 147.192 378.764 147.192ZM378.764 145.752C378.22 145.752 377.729 145.619 377.292 145.352C376.865 145.085 376.524 144.723 376.268 144.264C376.012 143.795 375.884 143.267 375.884 142.68C375.884 142.093 376.012 141.571 376.268 141.112C376.524 140.653 376.865 140.291 377.292 140.024C377.729 139.757 378.22 139.624 378.764 139.624C379.297 139.624 379.777 139.757 380.204 140.024C380.641 140.291 380.982 140.653 381.228 141.112C381.484 141.571 381.612 142.093 381.612 142.68C381.612 143.267 381.484 143.795 381.228 144.264C380.982 144.723 380.641 145.085 380.204 145.352C379.777 145.619 379.297 145.752 378.764 145.752ZM385.136 147H386.624V141.864C386.624 141.171 386.811 140.637 387.184 140.264C387.558 139.88 388.048 139.688 388.656 139.688H389.408V138.28H388.88C388.347 138.28 387.888 138.376 387.504 138.568C387.12 138.749 386.816 139.027 386.592 139.4V138.376H385.136V147ZM397.592 147.192C398.402 147.192 399.144 147 399.816 146.616C400.488 146.232 401.021 145.699 401.416 145.016C401.821 144.333 402.024 143.555 402.024 142.68C402.024 141.816 401.826 141.048 401.432 140.376C401.048 139.693 400.52 139.16 399.848 138.776C399.176 138.381 398.424 138.184 397.592 138.184C396.749 138.184 395.992 138.381 395.32 138.776C394.648 139.16 394.114 139.693 393.72 140.376C393.336 141.048 393.144 141.816 393.144 142.68C393.144 143.544 393.341 144.317 393.736 145C394.13 145.683 394.664 146.221 395.336 146.616C396.008 147 396.76 147.192 397.592 147.192ZM397.592 145.752C397.048 145.752 396.557 145.619 396.12 145.352C395.693 145.085 395.352 144.723 395.096 144.264C394.84 143.795 394.712 143.267 394.712 142.68C394.712 142.093 394.84 141.571 395.096 141.112C395.352 140.653 395.693 140.291 396.12 140.024C396.557 139.757 397.048 139.624 397.592 139.624C398.125 139.624 398.605 139.757 399.032 140.024C399.469 140.291 399.81 140.653 400.056 141.112C400.312 141.571 400.44 142.093 400.44 142.68C400.44 143.267 400.312 143.795 400.056 144.264C399.81 144.723 399.469 145.085 399.032 145.352C398.605 145.619 398.125 145.752 397.592 145.752ZM407.965 147.192C408.53 147.192 409.058 147.091 409.549 146.888C410.05 146.685 410.482 146.408 410.845 146.056C411.207 145.704 411.479 145.309 411.661 144.872L410.333 144.2C410.13 144.669 409.821 145.048 409.405 145.336C408.999 145.613 408.519 145.752 407.965 145.752C407.442 145.752 406.967 145.619 406.541 145.352C406.125 145.085 405.794 144.723 405.549 144.264C405.303 143.795 405.181 143.272 405.181 142.696C405.181 142.099 405.303 141.571 405.549 141.112C405.794 140.653 406.125 140.291 406.541 140.024C406.967 139.757 407.442 139.624 407.965 139.624C408.509 139.624 408.989 139.768 409.405 140.056C409.821 140.333 410.13 140.696 410.333 141.144L411.661 140.504C411.479 140.056 411.202 139.656 410.829 139.304C410.466 138.952 410.039 138.68 409.549 138.488C409.058 138.285 408.53 138.184 407.965 138.184C407.122 138.184 406.37 138.381 405.709 138.776C405.058 139.16 404.546 139.693 404.173 140.376C403.799 141.048 403.613 141.816 403.613 142.68C403.613 143.533 403.799 144.301 404.173 144.984C404.546 145.667 405.058 146.205 405.709 146.6C406.37 146.995 407.122 147.192 407.965 147.192ZM417.605 147.192C418.17 147.192 418.698 147.091 419.189 146.888C419.69 146.685 420.122 146.408 420.485 146.056C420.848 145.704 421.12 145.309 421.301 144.872L419.973 144.2C419.77 144.669 419.461 145.048 419.045 145.336C418.64 145.613 418.16 145.752 417.605 145.752C417.082 145.752 416.608 145.619 416.181 145.352C415.765 145.085 415.434 144.723 415.189 144.264C414.944 143.795 414.821 143.272 414.821 142.696C414.821 142.099 414.944 141.571 415.189 141.112C415.434 140.653 415.765 140.291 416.181 140.024C416.608 139.757 417.082 139.624 417.605 139.624C418.149 139.624 418.629 139.768 419.045 140.056C419.461 140.333 419.77 140.696 419.973 141.144L421.301 140.504C421.12 140.056 420.842 139.656 420.469 139.304C420.106 138.952 419.68 138.68 419.189 138.488C418.698 138.285 418.17 138.184 417.605 138.184C416.762 138.184 416.01 138.381 415.349 138.776C414.698 139.16 414.186 139.693 413.813 140.376C413.44 141.048 413.253 141.816 413.253 142.68C413.253 143.533 413.44 144.301 413.813 144.984C414.186 145.667 414.698 146.205 415.349 146.6C416.01 146.995 416.762 147.192 417.605 147.192ZM426.302 147.192C426.835 147.192 427.315 147.085 427.742 146.872C428.168 146.648 428.51 146.339 428.766 145.944V147H430.222V138.376H428.718V143.48C428.718 144.184 428.52 144.739 428.126 145.144C427.742 145.549 427.246 145.752 426.638 145.752C426.019 145.752 425.518 145.56 425.134 145.176C424.75 144.781 424.558 144.259 424.558 143.608V138.376H423.07V143.768C423.07 144.44 423.208 145.037 423.486 145.56C423.763 146.072 424.142 146.472 424.622 146.76C425.112 147.048 425.672 147.192 426.302 147.192ZM432.527 150.2H434.015V145.8C434.346 146.248 434.767 146.595 435.279 146.84C435.802 147.075 436.372 147.192 436.991 147.192C437.812 147.192 438.543 146.995 439.183 146.6C439.834 146.205 440.346 145.672 440.719 145C441.092 144.317 441.279 143.549 441.279 142.696C441.279 141.832 441.092 141.064 440.719 140.392C440.346 139.709 439.839 139.171 439.199 138.776C438.559 138.381 437.828 138.184 437.007 138.184C436.356 138.184 435.77 138.312 435.247 138.568C434.735 138.813 434.314 139.155 433.983 139.592V138.376H432.527V150.2ZM436.879 145.752C436.346 145.752 435.86 145.619 435.423 145.352C434.986 145.085 434.639 144.723 434.383 144.264C434.138 143.795 434.015 143.272 434.015 142.696C434.015 142.109 434.138 141.587 434.383 141.128C434.639 140.669 434.986 140.307 435.423 140.04C435.86 139.763 436.346 139.624 436.879 139.624C437.423 139.624 437.903 139.757 438.319 140.024C438.746 140.291 439.082 140.659 439.327 141.128C439.572 141.587 439.695 142.109 439.695 142.696C439.695 143.272 439.572 143.795 439.327 144.264C439.082 144.723 438.746 145.085 438.319 145.352C437.903 145.619 437.423 145.752 436.879 145.752ZM445.758 147.192C446.387 147.192 446.953 147.075 447.454 146.84C447.955 146.595 448.361 146.275 448.67 145.88V147H450.126V141.144C450.126 140.557 449.982 140.045 449.694 139.608C449.417 139.16 449.027 138.813 448.526 138.568C448.025 138.312 447.443 138.184 446.782 138.184C446.27 138.184 445.779 138.275 445.31 138.456C444.841 138.637 444.43 138.888 444.078 139.208C443.726 139.517 443.47 139.869 443.31 140.264L444.606 140.936C444.787 140.531 445.065 140.2 445.438 139.944C445.811 139.688 446.249 139.56 446.75 139.56C447.315 139.56 447.769 139.709 448.11 140.008C448.462 140.296 448.638 140.675 448.638 141.144V141.544L445.694 142.024C444.723 142.184 444.009 142.509 443.55 143C443.102 143.48 442.878 144.061 442.878 144.744C442.878 145.469 443.145 146.061 443.678 146.52C444.222 146.968 444.915 147.192 445.758 147.192ZM444.446 144.696C444.446 144.323 444.569 144.008 444.814 143.752C445.07 143.496 445.475 143.32 446.03 143.224L448.638 142.792V143.336C448.638 143.816 448.526 144.253 448.302 144.648C448.078 145.043 447.763 145.357 447.358 145.592C446.953 145.816 446.478 145.928 445.934 145.928C445.507 145.928 445.15 145.811 444.862 145.576C444.585 145.341 444.446 145.048 444.446 144.696ZM452.433 147H453.921V141.896C453.921 141.192 454.119 140.637 454.513 140.232C454.908 139.827 455.409 139.624 456.017 139.624C456.625 139.624 457.121 139.827 457.505 140.232C457.889 140.627 458.081 141.181 458.081 141.896V147H459.585V141.416C459.585 140.797 459.441 140.248 459.153 139.768C458.876 139.277 458.492 138.893 458.001 138.616C457.521 138.328 456.972 138.184 456.353 138.184C455.82 138.184 455.34 138.296 454.913 138.52C454.487 138.733 454.145 139.037 453.889 139.432V138.376H452.433V147ZM465.715 147.192C466.28 147.192 466.808 147.091 467.299 146.888C467.8 146.685 468.232 146.408 468.595 146.056C468.957 145.704 469.229 145.309 469.411 144.872L468.083 144.2C467.88 144.669 467.571 145.048 467.155 145.336C466.749 145.613 466.269 145.752 465.715 145.752C465.192 145.752 464.717 145.619 464.291 145.352C463.875 145.085 463.544 144.723 463.299 144.264C463.053 143.795 462.931 143.272 462.931 142.696C462.931 142.099 463.053 141.571 463.299 141.112C463.544 140.653 463.875 140.291 464.291 140.024C464.717 139.757 465.192 139.624 465.715 139.624C466.259 139.624 466.739 139.768 467.155 140.056C467.571 140.333 467.88 140.696 468.083 141.144L469.411 140.504C469.229 140.056 468.952 139.656 468.579 139.304C468.216 138.952 467.789 138.68 467.299 138.488C466.808 138.285 466.28 138.184 465.715 138.184C464.872 138.184 464.12 138.381 463.459 138.776C462.808 139.16 462.296 139.693 461.923 140.376C461.549 141.048 461.363 141.816 461.363 142.68C461.363 143.533 461.549 144.301 461.923 144.984C462.296 145.667 462.808 146.205 463.459 146.6C464.12 146.995 464.872 147.192 465.715 147.192ZM471.819 150.52C472.384 150.52 472.864 150.408 473.259 150.184C473.664 149.96 474.006 149.656 474.283 149.272C474.571 148.899 474.806 148.483 474.987 148.024L478.875 138.376H477.227L474.619 145.112L471.995 138.376H470.379L473.803 147.016L473.547 147.64C473.312 148.173 473.062 148.552 472.795 148.776C472.539 149 472.16 149.112 471.659 149.112C471.488 149.112 471.312 149.096 471.131 149.064C470.96 149.043 470.816 149.021 470.699 149V150.328C470.87 150.403 471.051 150.451 471.243 150.472C471.435 150.504 471.627 150.52 471.819 150.52Z" fill="#000929"/>
</svg>
