<svg width="32" height="32" viewBox="0 0 32 32" fill="none" xmlns="http://www.w3.org/2000/svg">
<circle cx="16" cy="16" r="16" fill="#000929"/>
<path d="M12.6391 11.032C13.3858 11.032 14.0045 11.2773 14.4951 11.768C14.9858 12.2587 15.2311 12.888 15.2311 13.656C15.2311 14.04 15.1778 14.4133 15.0711 14.776C14.9858 15.1387 14.8045 15.6827 14.5271 16.408L12.8631 20.952H10.2711L11.5511 16.024C11.0818 15.8533 10.7085 15.5653 10.4311 15.16C10.1751 14.7333 10.0471 14.232 10.0471 13.656C10.0471 12.888 10.2925 12.2587 10.7831 11.768C11.2738 11.2773 11.8925 11.032 12.6391 11.032ZM19.4231 11.032C20.1698 11.032 20.7885 11.2773 21.2791 11.768C21.7698 12.2587 22.0151 12.888 22.0151 13.656C22.0151 14.04 21.9618 14.4133 21.8551 14.776C21.7698 15.1387 21.5885 15.6827 21.3111 16.408L19.6471 20.952H17.0551L18.3351 16.024C17.8658 15.8533 17.4925 15.5653 17.2151 15.16C16.9591 14.7333 16.8311 14.232 16.8311 13.656C16.8311 12.888 17.0765 12.2587 17.5671 11.768C18.0578 11.2773 18.6765 11.032 19.4231 11.032Z" fill="white"/>
</svg>
