<svg width="221" height="57" viewBox="0 0 221 57" fill="none" xmlns="http://www.w3.org/2000/svg">
<circle cx="16" cy="16" r="16" fill="#000929"/>
<path d="M12.6391 11.032C13.3858 11.032 14.0045 11.2773 14.4951 11.768C14.9858 12.2587 15.2311 12.888 15.2311 13.656C15.2311 14.04 15.1778 14.4133 15.0711 14.776C14.9858 15.1387 14.8045 15.6827 14.5271 16.408L12.8631 20.952H10.2711L11.5511 16.024C11.0818 15.8533 10.7085 15.5653 10.4311 15.16C10.1751 14.7333 10.0471 14.232 10.0471 13.656C10.0471 12.888 10.2925 12.2587 10.7831 11.768C11.2738 11.2773 11.8925 11.032 12.6391 11.032ZM19.4231 11.032C20.1698 11.032 20.7885 11.2773 21.2791 11.768C21.7698 12.2587 22.0151 12.888 22.0151 13.656C22.0151 14.04 21.9618 14.4133 21.8551 14.776C21.7698 15.1387 21.5885 15.6827 21.3111 16.408L19.6471 20.952H17.0551L18.3351 16.024C17.8658 15.8533 17.4925 15.5653 17.2151 15.16C16.9591 14.7333 16.8311 14.232 16.8311 13.656C16.8311 12.888 17.0765 12.2587 17.5671 11.768C18.0578 11.2773 18.6765 11.032 19.4231 11.032Z" fill="white"/>
<path d="M48.996 14H50.172V5.06H48.996V14ZM53.8623 14H54.9783V4.916H53.8623V14ZM59.6619 14.144C60.2699 14.144 60.8259 14 61.3299 13.712C61.8339 13.424 62.2339 13.024 62.5299 12.512C62.8339 12 62.9859 11.416 62.9859 10.76C62.9859 10.112 62.8379 9.536 62.5419 9.032C62.2539 8.52 61.8579 8.12 61.3539 7.832C60.8499 7.536 60.2859 7.388 59.6619 7.388C59.0299 7.388 58.4619 7.536 57.9579 7.832C57.4539 8.12 57.0539 8.52 56.7579 9.032C56.4699 9.536 56.3259 10.112 56.3259 10.76C56.3259 11.408 56.4739 11.988 56.7699 12.5C57.0659 13.012 57.4659 13.416 57.9699 13.712C58.4739 14 59.0379 14.144 59.6619 14.144ZM59.6619 13.064C59.2539 13.064 58.8859 12.964 58.5579 12.764C58.2379 12.564 57.9819 12.292 57.7899 11.948C57.5979 11.596 57.5019 11.2 57.5019 10.76C57.5019 10.32 57.5979 9.928 57.7899 9.584C57.9819 9.24 58.2379 8.968 58.5579 8.768C58.8859 8.568 59.2539 8.468 59.6619 8.468C60.0619 8.468 60.4219 8.568 60.7419 8.768C61.0699 8.968 61.3259 9.24 61.5099 9.584C61.7019 9.928 61.7979 10.32 61.7979 10.76C61.7979 11.2 61.7019 11.596 61.5099 11.948C61.3259 12.292 61.0699 12.564 60.7419 12.764C60.4219 12.964 60.0619 13.064 59.6619 13.064ZM66.0043 14H67.0603L69.6043 7.532H68.3563L66.5323 12.428L64.7203 7.532H63.4723L66.0043 14ZM73.3416 14.144C74.0056 14.144 74.5816 13.988 75.0696 13.676C75.5576 13.364 75.9016 12.984 76.1016 12.536L75.1656 12.056C74.9816 12.368 74.7416 12.624 74.4456 12.824C74.1496 13.024 73.7856 13.124 73.3536 13.124C72.9936 13.124 72.6576 13.044 72.3456 12.884C72.0416 12.716 71.7896 12.48 71.5896 12.176C71.3976 11.872 71.2936 11.512 71.2776 11.096H76.2216C76.2616 10.88 76.2816 10.68 76.2816 10.496C76.2816 9.96 76.1616 9.456 75.9216 8.984C75.6816 8.512 75.3336 8.128 74.8776 7.832C74.4296 7.536 73.8856 7.388 73.2456 7.388C72.6456 7.388 72.1096 7.532 71.6376 7.82C71.1656 8.108 70.7896 8.508 70.5096 9.02C70.2376 9.524 70.1016 10.1 70.1016 10.748C70.1016 11.396 70.2416 11.976 70.5216 12.488C70.8016 13 71.1856 13.404 71.6736 13.7C72.1616 13.996 72.7176 14.144 73.3416 14.144ZM73.2456 8.384C73.5736 8.384 73.8736 8.46 74.1456 8.612C74.4176 8.756 74.6376 8.96 74.8056 9.224C74.9736 9.488 75.0616 9.792 75.0696 10.136H71.3016C71.3816 9.592 71.6056 9.164 71.9736 8.852C72.3416 8.54 72.7656 8.384 73.2456 8.384ZM80.5567 14.144C81.0367 14.144 81.4727 14.052 81.8647 13.868C82.2647 13.676 82.5847 13.404 82.8247 13.052V14H83.9167V4.916H82.7887V8.396C82.5407 8.076 82.2247 7.828 81.8407 7.652C81.4567 7.476 81.0287 7.388 80.5567 7.388C79.9487 7.388 79.4007 7.536 78.9127 7.832C78.4327 8.128 78.0527 8.532 77.7727 9.044C77.4927 9.548 77.3527 10.124 77.3527 10.772C77.3527 11.412 77.4927 11.988 77.7727 12.5C78.0527 13.004 78.4327 13.404 78.9127 13.7C79.4007 13.996 79.9487 14.144 80.5567 14.144ZM80.6527 13.064C80.2447 13.064 79.8807 12.964 79.5607 12.764C79.2407 12.564 78.9887 12.292 78.8047 11.948C78.6207 11.596 78.5287 11.204 78.5287 10.772C78.5287 10.332 78.6207 9.94 78.8047 9.596C78.9887 9.244 79.2407 8.968 79.5607 8.768C79.8887 8.568 80.2527 8.468 80.6527 8.468C81.0607 8.468 81.4247 8.572 81.7447 8.78C82.0647 8.98 82.3167 9.252 82.5007 9.596C82.6927 9.94 82.7887 10.332 82.7887 10.772C82.7887 11.204 82.6927 11.596 82.5007 11.948C82.3167 12.292 82.0647 12.564 81.7447 12.764C81.4247 12.964 81.0607 13.064 80.6527 13.064ZM87.4782 14H88.5942V10.172C88.5942 9.644 88.7422 9.228 89.0382 8.924C89.3422 8.62 89.7182 8.468 90.1662 8.468C90.6142 8.468 90.9822 8.62 91.2702 8.924C91.5662 9.22 91.7142 9.636 91.7142 10.172V14H92.8422V9.812C92.8422 9.348 92.7342 8.936 92.5182 8.576C92.3102 8.208 92.0222 7.92 91.6542 7.712C91.2942 7.496 90.8822 7.388 90.4182 7.388C90.0262 7.388 89.6702 7.468 89.3502 7.628C89.0382 7.78 88.7862 8 88.5942 8.288V4.916H87.4782V14ZM97.3912 14.144C97.9992 14.144 98.5552 14 99.0592 13.712C99.5632 13.424 99.9632 13.024 100.259 12.512C100.563 12 100.715 11.416 100.715 10.76C100.715 10.112 100.567 9.536 100.271 9.032C99.9832 8.52 99.5872 8.12 99.0832 7.832C98.5792 7.536 98.0152 7.388 97.3912 7.388C96.7592 7.388 96.1912 7.536 95.6872 7.832C95.1832 8.12 94.7832 8.52 94.4872 9.032C94.1992 9.536 94.0552 10.112 94.0552 10.76C94.0552 11.408 94.2032 11.988 94.4992 12.5C94.7952 13.012 95.1952 13.416 95.6992 13.712C96.2032 14 96.7672 14.144 97.3912 14.144ZM97.3912 13.064C96.9832 13.064 96.6152 12.964 96.2872 12.764C95.9672 12.564 95.7112 12.292 95.5192 11.948C95.3272 11.596 95.2312 11.2 95.2312 10.76C95.2312 10.32 95.3272 9.928 95.5192 9.584C95.7112 9.24 95.9672 8.968 96.2872 8.768C96.6152 8.568 96.9832 8.468 97.3912 8.468C97.7912 8.468 98.1512 8.568 98.4712 8.768C98.7992 8.968 99.0552 9.24 99.2392 9.584C99.4312 9.928 99.5272 10.32 99.5272 10.76C99.5272 11.2 99.4312 11.596 99.2392 11.948C99.0552 12.292 98.7992 12.564 98.4712 12.764C98.1512 12.964 97.7912 13.064 97.3912 13.064ZM103.422 14H104.49L106.026 9.128L107.562 14H108.63L110.85 7.532H109.626L108.066 12.272L106.554 7.532H105.498L103.986 12.272L102.438 7.532H101.202L103.422 14ZM115.998 14.144C116.462 14.144 116.87 14.064 117.222 13.904C117.574 13.744 117.85 13.524 118.05 13.244C118.25 12.956 118.35 12.628 118.35 12.26C118.35 11.812 118.202 11.428 117.906 11.108C117.61 10.788 117.202 10.552 116.682 10.4L115.626 10.088C115.498 10.048 115.366 10 115.23 9.944C115.094 9.88 114.978 9.792 114.882 9.68C114.786 9.56 114.738 9.408 114.738 9.224C114.738 8.968 114.834 8.76 115.026 8.6C115.226 8.44 115.486 8.36 115.806 8.36C116.158 8.36 116.478 8.46 116.766 8.66C117.062 8.852 117.282 9.116 117.426 9.452L118.338 9.032C118.146 8.512 117.822 8.108 117.366 7.82C116.918 7.532 116.41 7.388 115.842 7.388C115.418 7.388 115.034 7.468 114.69 7.628C114.354 7.788 114.086 8.012 113.886 8.3C113.694 8.58 113.598 8.912 113.598 9.296C113.598 9.712 113.73 10.08 113.994 10.4C114.266 10.712 114.694 10.948 115.278 11.108L116.25 11.384C116.386 11.416 116.526 11.468 116.67 11.54C116.822 11.604 116.95 11.696 117.054 11.816C117.166 11.928 117.222 12.08 117.222 12.272C117.222 12.544 117.106 12.764 116.874 12.932C116.642 13.1 116.35 13.184 115.998 13.184C115.606 13.184 115.25 13.076 114.93 12.86C114.61 12.636 114.358 12.328 114.174 11.936L113.286 12.368C113.486 12.912 113.826 13.344 114.306 13.664C114.786 13.984 115.35 14.144 115.998 14.144ZM119.691 14H120.807V10.172C120.807 9.644 120.951 9.228 121.239 8.924C121.527 8.62 121.887 8.468 122.319 8.468C122.759 8.468 123.115 8.62 123.387 8.924C123.667 9.22 123.807 9.636 123.807 10.172V14H124.935V10.172C124.935 9.644 125.075 9.228 125.355 8.924C125.643 8.62 126.007 8.468 126.447 8.468C126.879 8.468 127.235 8.62 127.515 8.924C127.795 9.22 127.935 9.636 127.935 10.172V14H129.063V9.812C129.063 9.348 128.955 8.936 128.739 8.576C128.523 8.208 128.231 7.92 127.863 7.712C127.503 7.496 127.099 7.388 126.651 7.388C126.219 7.388 125.823 7.488 125.463 7.688C125.111 7.888 124.831 8.18 124.623 8.564C124.431 8.204 124.151 7.92 123.783 7.712C123.423 7.496 123.023 7.388 122.583 7.388C122.199 7.388 121.847 7.472 121.527 7.64C121.215 7.8 120.967 8.032 120.783 8.336V7.532H119.691V14ZM133.6 14.144C134.208 14.144 134.764 14 135.268 13.712C135.772 13.424 136.172 13.024 136.468 12.512C136.772 12 136.924 11.416 136.924 10.76C136.924 10.112 136.776 9.536 136.48 9.032C136.192 8.52 135.796 8.12 135.292 7.832C134.788 7.536 134.224 7.388 133.6 7.388C132.968 7.388 132.4 7.536 131.896 7.832C131.392 8.12 130.992 8.52 130.696 9.032C130.408 9.536 130.264 10.112 130.264 10.76C130.264 11.408 130.412 11.988 130.708 12.5C131.004 13.012 131.404 13.416 131.908 13.712C132.412 14 132.976 14.144 133.6 14.144ZM133.6 13.064C133.192 13.064 132.824 12.964 132.496 12.764C132.176 12.564 131.92 12.292 131.728 11.948C131.536 11.596 131.44 11.2 131.44 10.76C131.44 10.32 131.536 9.928 131.728 9.584C131.92 9.24 132.176 8.968 132.496 8.768C132.824 8.568 133.192 8.468 133.6 8.468C134 8.468 134.36 8.568 134.68 8.768C135.008 8.968 135.264 9.24 135.448 9.584C135.64 9.928 135.736 10.32 135.736 10.76C135.736 11.2 135.64 11.596 135.448 11.948C135.264 12.292 135.008 12.564 134.68 12.764C134.36 12.964 134 13.064 133.6 13.064ZM141.331 14.144C141.939 14.144 142.495 14 142.999 13.712C143.503 13.424 143.903 13.024 144.199 12.512C144.503 12 144.655 11.416 144.655 10.76C144.655 10.112 144.507 9.536 144.211 9.032C143.923 8.52 143.527 8.12 143.023 7.832C142.519 7.536 141.955 7.388 141.331 7.388C140.699 7.388 140.131 7.536 139.627 7.832C139.123 8.12 138.723 8.52 138.427 9.032C138.139 9.536 137.995 10.112 137.995 10.76C137.995 11.408 138.143 11.988 138.439 12.5C138.735 13.012 139.135 13.416 139.639 13.712C140.143 14 140.707 14.144 141.331 14.144ZM141.331 13.064C140.923 13.064 140.555 12.964 140.227 12.764C139.907 12.564 139.651 12.292 139.459 11.948C139.267 11.596 139.171 11.2 139.171 10.76C139.171 10.32 139.267 9.928 139.459 9.584C139.651 9.24 139.907 8.968 140.227 8.768C140.555 8.568 140.923 8.468 141.331 8.468C141.731 8.468 142.091 8.568 142.411 8.768C142.739 8.968 142.995 9.24 143.179 9.584C143.371 9.928 143.467 10.32 143.467 10.76C143.467 11.2 143.371 11.596 143.179 11.948C142.995 12.292 142.739 12.564 142.411 12.764C142.091 12.964 141.731 13.064 141.331 13.064ZM148.502 14.072C148.59 14.072 148.698 14.068 148.826 14.06C148.954 14.052 149.07 14.036 149.174 14.012V13.016C149.102 13.024 149.026 13.032 148.946 13.04C148.866 13.048 148.794 13.052 148.73 13.052C148.338 13.052 148.058 12.956 147.89 12.764C147.73 12.564 147.65 12.3 147.65 11.972V8.6H149.102V7.532H147.65V6.044H146.534V6.572C146.534 6.868 146.45 7.104 146.282 7.28C146.114 7.448 145.886 7.532 145.598 7.532H145.358V8.6H146.534V12.008C146.534 12.664 146.702 13.172 147.038 13.532C147.382 13.892 147.87 14.072 148.502 14.072ZM150.511 14H151.627V10.172C151.627 9.644 151.775 9.228 152.071 8.924C152.375 8.62 152.751 8.468 153.199 8.468C153.647 8.468 154.015 8.62 154.303 8.924C154.599 9.22 154.747 9.636 154.747 10.172V14H155.875V9.812C155.875 9.348 155.767 8.936 155.551 8.576C155.343 8.208 155.055 7.92 154.687 7.712C154.327 7.496 153.915 7.388 153.451 7.388C153.059 7.388 152.703 7.468 152.383 7.628C152.071 7.78 151.819 8 151.627 8.288V4.916H150.511V14ZM161.935 14.072C162.023 14.072 162.131 14.068 162.259 14.06C162.387 14.052 162.503 14.036 162.607 14.012V13.016C162.535 13.024 162.459 13.032 162.379 13.04C162.299 13.048 162.227 13.052 162.163 13.052C161.771 13.052 161.491 12.956 161.323 12.764C161.163 12.564 161.083 12.3 161.083 11.972V8.6H162.535V7.532H161.083V6.044H159.967V6.572C159.967 6.868 159.883 7.104 159.715 7.28C159.547 7.448 159.319 7.532 159.031 7.532H158.791V8.6H159.967V12.008C159.967 12.664 160.135 13.172 160.471 13.532C160.815 13.892 161.303 14.072 161.935 14.072ZM163.944 14H165.06V10.172C165.06 9.644 165.208 9.228 165.504 8.924C165.808 8.62 166.184 8.468 166.632 8.468C167.08 8.468 167.448 8.62 167.736 8.924C168.032 9.22 168.18 9.636 168.18 10.172V14H169.308V9.812C169.308 9.348 169.2 8.936 168.984 8.576C168.776 8.208 168.488 7.92 168.12 7.712C167.76 7.496 167.348 7.388 166.884 7.388C166.492 7.388 166.136 7.468 165.816 7.628C165.504 7.78 165.252 8 165.06 8.288V4.916H163.944V14ZM173.761 14.144C174.425 14.144 175.001 13.988 175.489 13.676C175.977 13.364 176.321 12.984 176.521 12.536L175.585 12.056C175.401 12.368 175.161 12.624 174.865 12.824C174.569 13.024 174.205 13.124 173.773 13.124C173.413 13.124 173.077 13.044 172.765 12.884C172.461 12.716 172.209 12.48 172.009 12.176C171.817 11.872 171.713 11.512 171.697 11.096H176.641C176.681 10.88 176.701 10.68 176.701 10.496C176.701 9.96 176.581 9.456 176.341 8.984C176.101 8.512 175.753 8.128 175.297 7.832C174.849 7.536 174.305 7.388 173.665 7.388C173.065 7.388 172.529 7.532 172.057 7.82C171.585 8.108 171.209 8.508 170.929 9.02C170.657 9.524 170.521 10.1 170.521 10.748C170.521 11.396 170.661 11.976 170.941 12.488C171.221 13 171.605 13.404 172.093 13.7C172.581 13.996 173.137 14.144 173.761 14.144ZM173.665 8.384C173.993 8.384 174.293 8.46 174.565 8.612C174.837 8.756 175.057 8.96 175.225 9.224C175.393 9.488 175.481 9.792 175.489 10.136H171.721C171.801 9.592 172.025 9.164 172.393 8.852C172.761 8.54 173.185 8.384 173.665 8.384ZM179.991 14H181.107V10.172C181.107 9.644 181.251 9.228 181.539 8.924C181.827 8.62 182.187 8.468 182.619 8.468C183.059 8.468 183.415 8.62 183.687 8.924C183.967 9.22 184.107 9.636 184.107 10.172V14H185.235V10.172C185.235 9.644 185.375 9.228 185.655 8.924C185.943 8.62 186.307 8.468 186.747 8.468C187.179 8.468 187.535 8.62 187.815 8.924C188.095 9.22 188.235 9.636 188.235 10.172V14H189.363V9.812C189.363 9.348 189.255 8.936 189.039 8.576C188.823 8.208 188.531 7.92 188.163 7.712C187.803 7.496 187.399 7.388 186.951 7.388C186.519 7.388 186.123 7.488 185.763 7.688C185.411 7.888 185.131 8.18 184.923 8.564C184.731 8.204 184.451 7.92 184.083 7.712C183.723 7.496 183.323 7.388 182.883 7.388C182.499 7.388 182.147 7.472 181.827 7.64C181.515 7.8 181.267 8.032 181.083 8.336V7.532H179.991V14ZM193.9 14.144C194.508 14.144 195.064 14 195.568 13.712C196.072 13.424 196.472 13.024 196.768 12.512C197.072 12 197.224 11.416 197.224 10.76C197.224 10.112 197.076 9.536 196.78 9.032C196.492 8.52 196.096 8.12 195.592 7.832C195.088 7.536 194.524 7.388 193.9 7.388C193.268 7.388 192.7 7.536 192.196 7.832C191.692 8.12 191.292 8.52 190.996 9.032C190.708 9.536 190.564 10.112 190.564 10.76C190.564 11.408 190.712 11.988 191.008 12.5C191.304 13.012 191.704 13.416 192.208 13.712C192.712 14 193.276 14.144 193.9 14.144ZM193.9 13.064C193.492 13.064 193.124 12.964 192.796 12.764C192.476 12.564 192.22 12.292 192.028 11.948C191.836 11.596 191.74 11.2 191.74 10.76C191.74 10.32 191.836 9.928 192.028 9.584C192.22 9.24 192.476 8.968 192.796 8.768C193.124 8.568 193.492 8.468 193.9 8.468C194.3 8.468 194.66 8.568 194.98 8.768C195.308 8.968 195.564 9.24 195.748 9.584C195.94 9.928 196.036 10.32 196.036 10.76C196.036 11.2 195.94 11.596 195.748 11.948C195.564 12.292 195.308 12.564 194.98 12.764C194.66 12.964 194.3 13.064 193.9 13.064ZM200.242 14H201.298L203.842 7.532H202.594L200.77 12.428L198.958 7.532H197.71L200.242 14ZM207.579 14.144C208.243 14.144 208.819 13.988 209.307 13.676C209.795 13.364 210.139 12.984 210.339 12.536L209.403 12.056C209.219 12.368 208.979 12.624 208.683 12.824C208.387 13.024 208.023 13.124 207.591 13.124C207.231 13.124 206.895 13.044 206.583 12.884C206.279 12.716 206.027 12.48 205.827 12.176C205.635 11.872 205.531 11.512 205.515 11.096H210.459C210.499 10.88 210.519 10.68 210.519 10.496C210.519 9.96 210.399 9.456 210.159 8.984C209.919 8.512 209.571 8.128 209.115 7.832C208.667 7.536 208.123 7.388 207.483 7.388C206.883 7.388 206.347 7.532 205.875 7.82C205.403 8.108 205.027 8.508 204.747 9.02C204.475 9.524 204.339 10.1 204.339 10.748C204.339 11.396 204.479 11.976 204.759 12.488C205.039 13 205.423 13.404 205.911 13.7C206.399 13.996 206.955 14.144 207.579 14.144ZM207.483 8.384C207.811 8.384 208.111 8.46 208.383 8.612C208.655 8.756 208.875 8.96 209.043 9.224C209.211 9.488 209.299 9.792 209.307 10.136H205.539C205.619 9.592 205.843 9.164 206.211 8.852C206.579 8.54 207.003 8.384 207.483 8.384ZM50.352 33H51.42L52.956 28.128L54.492 33H55.56L57.78 26.532H56.556L54.996 31.272L53.484 26.532H52.428L50.916 31.272L49.368 26.532H48.132L50.352 33ZM60.3197 33.144C60.7917 33.144 61.2157 33.056 61.5917 32.88C61.9677 32.696 62.2717 32.456 62.5037 32.16V33H63.5957V28.608C63.5957 28.168 63.4877 27.784 63.2717 27.456C63.0637 27.12 62.7717 26.86 62.3957 26.676C62.0197 26.484 61.5837 26.388 61.0877 26.388C60.7037 26.388 60.3357 26.456 59.9837 26.592C59.6317 26.728 59.3237 26.916 59.0597 27.156C58.7957 27.388 58.6037 27.652 58.4837 27.948L59.4557 28.452C59.5917 28.148 59.7997 27.9 60.0797 27.708C60.3597 27.516 60.6877 27.42 61.0637 27.42C61.4877 27.42 61.8277 27.532 62.0837 27.756C62.3477 27.972 62.4797 28.256 62.4797 28.608V28.908L60.2717 29.268C59.5437 29.388 59.0077 29.632 58.6637 30C58.3277 30.36 58.1597 30.796 58.1597 31.308C58.1597 31.852 58.3597 32.296 58.7597 32.64C59.1677 32.976 59.6877 33.144 60.3197 33.144ZM59.3357 31.272C59.3357 30.992 59.4277 30.756 59.6117 30.564C59.8037 30.372 60.1077 30.24 60.5237 30.168L62.4797 29.844V30.252C62.4797 30.612 62.3957 30.94 62.2277 31.236C62.0597 31.532 61.8237 31.768 61.5197 31.944C61.2157 32.112 60.8597 32.196 60.4517 32.196C60.1317 32.196 59.8637 32.108 59.6477 31.932C59.4397 31.756 59.3357 31.536 59.3357 31.272ZM67.522 33.144C67.986 33.144 68.394 33.064 68.746 32.904C69.098 32.744 69.374 32.524 69.574 32.244C69.774 31.956 69.874 31.628 69.874 31.26C69.874 30.812 69.726 30.428 69.43 30.108C69.134 29.788 68.726 29.552 68.206 29.4L67.15 29.088C67.022 29.048 66.89 29 66.754 28.944C66.618 28.88 66.502 28.792 66.406 28.68C66.31 28.56 66.262 28.408 66.262 28.224C66.262 27.968 66.358 27.76 66.55 27.6C66.75 27.44 67.01 27.36 67.33 27.36C67.682 27.36 68.002 27.46 68.29 27.66C68.586 27.852 68.806 28.116 68.95 28.452L69.862 28.032C69.67 27.512 69.346 27.108 68.89 26.82C68.442 26.532 67.934 26.388 67.366 26.388C66.942 26.388 66.558 26.468 66.214 26.628C65.878 26.788 65.61 27.012 65.41 27.3C65.218 27.58 65.122 27.912 65.122 28.296C65.122 28.712 65.254 29.08 65.518 29.4C65.79 29.712 66.218 29.948 66.802 30.108L67.774 30.384C67.91 30.416 68.05 30.468 68.194 30.54C68.346 30.604 68.474 30.696 68.578 30.816C68.69 30.928 68.746 31.08 68.746 31.272C68.746 31.544 68.63 31.764 68.398 31.932C68.166 32.1 67.874 32.184 67.522 32.184C67.13 32.184 66.774 32.076 66.454 31.86C66.134 31.636 65.882 31.328 65.698 30.936L64.81 31.368C65.01 31.912 65.35 32.344 65.83 32.664C66.31 32.984 66.874 33.144 67.522 33.144ZM71.4069 34.668C72.3429 34.452 72.8109 33.756 72.8109 32.58V31.56H71.6469V33H72.2349C72.1869 33.64 71.9109 34.028 71.4069 34.164V34.668ZM78.5311 33.144C79.0031 33.144 79.4271 33.056 79.8031 32.88C80.1791 32.696 80.4831 32.456 80.7151 32.16V33H81.8071V28.608C81.8071 28.168 81.6991 27.784 81.4831 27.456C81.2751 27.12 80.9831 26.86 80.6071 26.676C80.2311 26.484 79.7951 26.388 79.2991 26.388C78.9151 26.388 78.5471 26.456 78.1951 26.592C77.8431 26.728 77.5351 26.916 77.2711 27.156C77.0071 27.388 76.8151 27.652 76.6951 27.948L77.6671 28.452C77.8031 28.148 78.0111 27.9 78.2911 27.708C78.5711 27.516 78.8991 27.42 79.2751 27.42C79.6991 27.42 80.0391 27.532 80.2951 27.756C80.5591 27.972 80.6911 28.256 80.6911 28.608V28.908L78.4831 29.268C77.7551 29.388 77.2191 29.632 76.8751 30C76.5391 30.36 76.3711 30.796 76.3711 31.308C76.3711 31.852 76.5711 32.296 76.9711 32.64C77.3791 32.976 77.8991 33.144 78.5311 33.144ZM77.5471 31.272C77.5471 30.992 77.6391 30.756 77.8231 30.564C78.0151 30.372 78.3191 30.24 78.7351 30.168L80.6911 29.844V30.252C80.6911 30.612 80.6071 30.94 80.4391 31.236C80.2711 31.532 80.0351 31.768 79.7311 31.944C79.4271 32.112 79.0711 32.196 78.6631 32.196C78.3431 32.196 78.0751 32.108 77.8591 31.932C77.6511 31.756 77.5471 31.536 77.5471 31.272ZM83.4174 33H84.5334V29.172C84.5334 28.644 84.6814 28.228 84.9774 27.924C85.2734 27.62 85.6494 27.468 86.1054 27.468C86.5614 27.468 86.9334 27.62 87.2214 27.924C87.5094 28.22 87.6534 28.636 87.6534 29.172V33H88.7814V28.812C88.7814 28.348 88.6734 27.936 88.4574 27.576C88.2494 27.208 87.9614 26.92 87.5934 26.712C87.2334 26.496 86.8214 26.388 86.3574 26.388C85.9574 26.388 85.5974 26.472 85.2774 26.64C84.9574 26.8 84.7014 27.028 84.5094 27.324V26.532H83.4174V33ZM93.1984 33.144C93.6784 33.144 94.1144 33.052 94.5064 32.868C94.9064 32.676 95.2264 32.404 95.4664 32.052V33H96.5584V23.916H95.4304V27.396C95.1824 27.076 94.8664 26.828 94.4824 26.652C94.0984 26.476 93.6704 26.388 93.1984 26.388C92.5904 26.388 92.0424 26.536 91.5544 26.832C91.0744 27.128 90.6944 27.532 90.4144 28.044C90.1344 28.548 89.9944 29.124 89.9944 29.772C89.9944 30.412 90.1344 30.988 90.4144 31.5C90.6944 32.004 91.0744 32.404 91.5544 32.7C92.0424 32.996 92.5904 33.144 93.1984 33.144ZM93.2944 32.064C92.8864 32.064 92.5224 31.964 92.2024 31.764C91.8824 31.564 91.6304 31.292 91.4464 30.948C91.2624 30.596 91.1704 30.204 91.1704 29.772C91.1704 29.332 91.2624 28.94 91.4464 28.596C91.6304 28.244 91.8824 27.968 92.2024 27.768C92.5304 27.568 92.8944 27.468 93.2944 27.468C93.7024 27.468 94.0664 27.572 94.3864 27.78C94.7064 27.98 94.9584 28.252 95.1424 28.596C95.3344 28.94 95.4304 29.332 95.4304 29.772C95.4304 30.204 95.3344 30.596 95.1424 30.948C94.9584 31.292 94.7064 31.564 94.3864 31.764C94.0664 31.964 93.7024 32.064 93.2944 32.064ZM100.804 33H101.932V27.6H104.596V33H105.712V26.532H101.932V26.076C101.932 25.66 102.048 25.368 102.28 25.2C102.52 25.024 102.824 24.936 103.192 24.936C103.24 24.936 103.308 24.94 103.396 24.948C103.492 24.948 103.568 24.956 103.624 24.972V23.976C103.552 23.96 103.46 23.948 103.348 23.94C103.244 23.924 103.148 23.916 103.06 23.916C102.644 23.916 102.264 24 101.92 24.168C101.584 24.336 101.312 24.58 101.104 24.9C100.904 25.22 100.804 25.612 100.804 26.076V26.532H99.5679V27.6H100.804V33ZM107.148 33H108.264V29.172C108.264 28.644 108.412 28.228 108.708 27.924C109.004 27.62 109.38 27.468 109.836 27.468C110.292 27.468 110.664 27.62 110.952 27.924C111.24 28.22 111.384 28.636 111.384 29.172V33H112.512V28.812C112.512 28.348 112.404 27.936 112.188 27.576C111.98 27.208 111.692 26.92 111.324 26.712C110.964 26.496 110.552 26.388 110.088 26.388C109.688 26.388 109.328 26.472 109.008 26.64C108.688 26.8 108.432 27.028 108.24 27.324V26.532H107.148V33ZM115.885 33.144C116.357 33.144 116.781 33.056 117.157 32.88C117.533 32.696 117.837 32.456 118.069 32.16V33H119.161V28.608C119.161 28.168 119.053 27.784 118.837 27.456C118.629 27.12 118.337 26.86 117.961 26.676C117.585 26.484 117.149 26.388 116.653 26.388C116.269 26.388 115.901 26.456 115.549 26.592C115.197 26.728 114.889 26.916 114.625 27.156C114.361 27.388 114.169 27.652 114.049 27.948L115.021 28.452C115.157 28.148 115.365 27.9 115.645 27.708C115.925 27.516 116.253 27.42 116.629 27.42C117.053 27.42 117.393 27.532 117.649 27.756C117.913 27.972 118.045 28.256 118.045 28.608V28.908L115.837 29.268C115.109 29.388 114.573 29.632 114.229 30C113.893 30.36 113.725 30.796 113.725 31.308C113.725 31.852 113.925 32.296 114.325 32.64C114.733 32.976 115.253 33.144 115.885 33.144ZM114.901 31.272C114.901 30.992 114.993 30.756 115.177 30.564C115.369 30.372 115.673 30.24 116.089 30.168L118.045 29.844V30.252C118.045 30.612 117.961 30.94 117.793 31.236C117.625 31.532 117.389 31.768 117.085 31.944C116.781 32.112 116.425 32.196 116.017 32.196C115.697 32.196 115.429 32.108 115.213 31.932C115.005 31.756 114.901 31.536 114.901 31.272ZM120.772 33H121.888V23.916H120.772V33ZM123.499 33H124.615V23.916H123.499V33ZM126.575 35.64C126.999 35.64 127.359 35.556 127.655 35.388C127.959 35.22 128.215 34.992 128.423 34.704C128.639 34.424 128.815 34.112 128.951 33.768L131.867 26.532H130.631L128.675 31.584L126.707 26.532H125.495L128.063 33.012L127.871 33.48C127.695 33.88 127.507 34.164 127.307 34.332C127.115 34.5 126.831 34.584 126.455 34.584C126.327 34.584 126.195 34.572 126.059 34.548C125.931 34.532 125.823 34.516 125.735 34.5V35.496C125.863 35.552 125.999 35.588 126.143 35.604C126.287 35.628 126.431 35.64 126.575 35.64ZM137.778 35.64C138.378 35.64 138.91 35.512 139.374 35.256C139.846 35.008 140.214 34.664 140.478 34.224C140.742 33.784 140.874 33.284 140.874 32.724V26.532H139.782V27.432C139.526 27.104 139.21 26.848 138.834 26.664C138.458 26.48 138.042 26.388 137.586 26.388C136.978 26.388 136.434 26.532 135.954 26.82C135.482 27.1 135.11 27.484 134.838 27.972C134.566 28.46 134.43 29.008 134.43 29.616C134.43 30.224 134.566 30.772 134.838 31.26C135.118 31.748 135.494 32.136 135.966 32.424C136.446 32.704 136.99 32.844 137.598 32.844C138.038 32.844 138.446 32.756 138.822 32.58C139.198 32.404 139.506 32.152 139.746 31.824V32.724C139.746 33.116 139.654 33.448 139.47 33.72C139.294 34 139.058 34.208 138.762 34.344C138.466 34.488 138.134 34.56 137.766 34.56C137.286 34.56 136.886 34.452 136.566 34.236C136.254 34.028 136.042 33.772 135.93 33.468L134.886 33.948C135.102 34.452 135.466 34.86 135.978 35.172C136.49 35.484 137.09 35.64 137.778 35.64ZM137.694 31.764C137.294 31.764 136.934 31.668 136.614 31.476C136.302 31.284 136.054 31.028 135.87 30.708C135.694 30.38 135.606 30.016 135.606 29.616C135.606 29.216 135.698 28.856 135.882 28.536C136.066 28.208 136.314 27.948 136.626 27.756C136.946 27.564 137.302 27.468 137.694 27.468C138.078 27.468 138.426 27.564 138.738 27.756C139.05 27.948 139.294 28.208 139.47 28.536C139.654 28.856 139.746 29.216 139.746 29.616C139.746 30.008 139.654 30.368 139.47 30.696C139.294 31.024 139.05 31.284 138.738 31.476C138.426 31.668 138.078 31.764 137.694 31.764ZM145.556 33.144C146.164 33.144 146.72 33 147.224 32.712C147.728 32.424 148.128 32.024 148.424 31.512C148.728 31 148.88 30.416 148.88 29.76C148.88 29.112 148.732 28.536 148.436 28.032C148.148 27.52 147.752 27.12 147.248 26.832C146.744 26.536 146.18 26.388 145.556 26.388C144.924 26.388 144.356 26.536 143.852 26.832C143.348 27.12 142.948 27.52 142.652 28.032C142.364 28.536 142.22 29.112 142.22 29.76C142.22 30.408 142.368 30.988 142.664 31.5C142.96 32.012 143.36 32.416 143.864 32.712C144.368 33 144.932 33.144 145.556 33.144ZM145.556 32.064C145.148 32.064 144.78 31.964 144.452 31.764C144.132 31.564 143.876 31.292 143.684 30.948C143.492 30.596 143.396 30.2 143.396 29.76C143.396 29.32 143.492 28.928 143.684 28.584C143.876 28.24 144.132 27.968 144.452 27.768C144.78 27.568 145.148 27.468 145.556 27.468C145.956 27.468 146.316 27.568 146.636 27.768C146.964 27.968 147.22 28.24 147.404 28.584C147.596 28.928 147.692 29.32 147.692 29.76C147.692 30.2 147.596 30.596 147.404 30.948C147.22 31.292 146.964 31.564 146.636 31.764C146.316 31.964 145.956 32.064 145.556 32.064ZM152.727 33.072C152.815 33.072 152.923 33.068 153.051 33.06C153.179 33.052 153.295 33.036 153.399 33.012V32.016C153.327 32.024 153.251 32.032 153.171 32.04C153.091 32.048 153.019 32.052 152.955 32.052C152.563 32.052 152.283 31.956 152.115 31.764C151.955 31.564 151.875 31.3 151.875 30.972V27.6H153.327V26.532H151.875V25.044H150.759V25.572C150.759 25.868 150.675 26.104 150.507 26.28C150.339 26.448 150.111 26.532 149.823 26.532H149.583V27.6H150.759V31.008C150.759 31.664 150.927 32.172 151.263 32.532C151.607 32.892 152.095 33.072 152.727 33.072ZM159.319 33.072C159.407 33.072 159.515 33.068 159.643 33.06C159.771 33.052 159.887 33.036 159.991 33.012V32.016C159.919 32.024 159.843 32.032 159.763 32.04C159.683 32.048 159.611 32.052 159.547 32.052C159.155 32.052 158.875 31.956 158.707 31.764C158.547 31.564 158.467 31.3 158.467 30.972V27.6H159.919V26.532H158.467V25.044H157.351V25.572C157.351 25.868 157.267 26.104 157.099 26.28C156.931 26.448 156.703 26.532 156.415 26.532H156.175V27.6H157.351V31.008C157.351 31.664 157.519 32.172 157.855 32.532C158.199 32.892 158.687 33.072 159.319 33.072ZM161.328 33H162.444V29.172C162.444 28.644 162.592 28.228 162.888 27.924C163.192 27.62 163.568 27.468 164.016 27.468C164.464 27.468 164.832 27.62 165.12 27.924C165.416 28.22 165.564 28.636 165.564 29.172V33H166.692V28.812C166.692 28.348 166.584 27.936 166.368 27.576C166.16 27.208 165.872 26.92 165.504 26.712C165.144 26.496 164.732 26.388 164.268 26.388C163.876 26.388 163.52 26.468 163.2 26.628C162.888 26.78 162.636 27 162.444 27.288V23.916H161.328V33ZM171.145 33.144C171.809 33.144 172.385 32.988 172.873 32.676C173.361 32.364 173.705 31.984 173.905 31.536L172.969 31.056C172.785 31.368 172.545 31.624 172.249 31.824C171.953 32.024 171.589 32.124 171.157 32.124C170.797 32.124 170.461 32.044 170.149 31.884C169.845 31.716 169.593 31.48 169.393 31.176C169.201 30.872 169.097 30.512 169.081 30.096H174.025C174.065 29.88 174.085 29.68 174.085 29.496C174.085 28.96 173.965 28.456 173.725 27.984C173.485 27.512 173.137 27.128 172.681 26.832C172.233 26.536 171.689 26.388 171.049 26.388C170.449 26.388 169.913 26.532 169.441 26.82C168.969 27.108 168.593 27.508 168.313 28.02C168.041 28.524 167.905 29.1 167.905 29.748C167.905 30.396 168.045 30.976 168.325 31.488C168.605 32 168.989 32.404 169.477 32.7C169.965 32.996 170.521 33.144 171.145 33.144ZM171.049 27.384C171.377 27.384 171.677 27.46 171.949 27.612C172.221 27.756 172.441 27.96 172.609 28.224C172.777 28.488 172.865 28.792 172.873 29.136H169.105C169.185 28.592 169.409 28.164 169.777 27.852C170.145 27.54 170.569 27.384 171.049 27.384ZM177.375 33H178.491V29.172C178.491 28.644 178.639 28.228 178.935 27.924C179.239 27.62 179.615 27.468 180.063 27.468C180.511 27.468 180.879 27.62 181.167 27.924C181.463 28.22 181.611 28.636 181.611 29.172V33H182.739V28.812C182.739 28.348 182.631 27.936 182.415 27.576C182.207 27.208 181.919 26.92 181.551 26.712C181.191 26.496 180.779 26.388 180.315 26.388C179.923 26.388 179.567 26.468 179.247 26.628C178.935 26.78 178.683 27 178.491 27.288V23.916H177.375V33ZM187.288 33.144C187.896 33.144 188.452 33 188.956 32.712C189.46 32.424 189.86 32.024 190.156 31.512C190.46 31 190.612 30.416 190.612 29.76C190.612 29.112 190.464 28.536 190.168 28.032C189.88 27.52 189.484 27.12 188.98 26.832C188.476 26.536 187.912 26.388 187.288 26.388C186.656 26.388 186.088 26.536 185.584 26.832C185.08 27.12 184.68 27.52 184.384 28.032C184.096 28.536 183.952 29.112 183.952 29.76C183.952 30.408 184.1 30.988 184.396 31.5C184.692 32.012 185.092 32.416 185.596 32.712C186.1 33 186.664 33.144 187.288 33.144ZM187.288 32.064C186.88 32.064 186.512 31.964 186.184 31.764C185.864 31.564 185.608 31.292 185.416 30.948C185.224 30.596 185.128 30.2 185.128 29.76C185.128 29.32 185.224 28.928 185.416 28.584C185.608 28.24 185.864 27.968 186.184 27.768C186.512 27.568 186.88 27.468 187.288 27.468C187.688 27.468 188.048 27.568 188.368 27.768C188.696 27.968 188.952 28.24 189.136 28.584C189.328 28.928 189.424 29.32 189.424 29.76C189.424 30.2 189.328 30.596 189.136 30.948C188.952 31.292 188.696 31.564 188.368 31.764C188.048 31.964 187.688 32.064 187.288 32.064ZM194.239 33.144C194.639 33.144 194.999 33.064 195.319 32.904C195.639 32.736 195.895 32.504 196.087 32.208V33H197.179V26.532H196.051V30.36C196.051 30.888 195.903 31.304 195.607 31.608C195.319 31.912 194.947 32.064 194.491 32.064C194.027 32.064 193.651 31.92 193.363 31.632C193.075 31.336 192.931 30.944 192.931 30.456V26.532H191.815V30.576C191.815 31.08 191.919 31.528 192.127 31.92C192.335 32.304 192.619 32.604 192.979 32.82C193.347 33.036 193.767 33.144 194.239 33.144ZM201.104 33.144C201.568 33.144 201.976 33.064 202.328 32.904C202.68 32.744 202.956 32.524 203.156 32.244C203.356 31.956 203.456 31.628 203.456 31.26C203.456 30.812 203.308 30.428 203.012 30.108C202.716 29.788 202.308 29.552 201.788 29.4L200.732 29.088C200.604 29.048 200.472 29 200.336 28.944C200.2 28.88 200.084 28.792 199.988 28.68C199.892 28.56 199.844 28.408 199.844 28.224C199.844 27.968 199.94 27.76 200.132 27.6C200.332 27.44 200.592 27.36 200.912 27.36C201.264 27.36 201.584 27.46 201.872 27.66C202.168 27.852 202.388 28.116 202.532 28.452L203.444 28.032C203.252 27.512 202.928 27.108 202.472 26.82C202.024 26.532 201.516 26.388 200.948 26.388C200.524 26.388 200.14 26.468 199.796 26.628C199.46 26.788 199.192 27.012 198.992 27.3C198.8 27.58 198.704 27.912 198.704 28.296C198.704 28.712 198.836 29.08 199.1 29.4C199.372 29.712 199.8 29.948 200.384 30.108L201.356 30.384C201.492 30.416 201.632 30.468 201.776 30.54C201.928 30.604 202.056 30.696 202.16 30.816C202.272 30.928 202.328 31.08 202.328 31.272C202.328 31.544 202.212 31.764 201.98 31.932C201.748 32.1 201.456 32.184 201.104 32.184C200.712 32.184 200.356 32.076 200.036 31.86C199.716 31.636 199.464 31.328 199.28 30.936L198.392 31.368C198.592 31.912 198.932 32.344 199.412 32.664C199.892 32.984 200.456 33.144 201.104 33.144ZM207.773 33.144C208.437 33.144 209.013 32.988 209.501 32.676C209.989 32.364 210.333 31.984 210.533 31.536L209.597 31.056C209.413 31.368 209.173 31.624 208.877 31.824C208.581 32.024 208.217 32.124 207.785 32.124C207.425 32.124 207.089 32.044 206.777 31.884C206.473 31.716 206.221 31.48 206.021 31.176C205.829 30.872 205.725 30.512 205.709 30.096H210.653C210.693 29.88 210.713 29.68 210.713 29.496C210.713 28.96 210.593 28.456 210.353 27.984C210.113 27.512 209.765 27.128 209.309 26.832C208.861 26.536 208.317 26.388 207.677 26.388C207.077 26.388 206.541 26.532 206.069 26.82C205.597 27.108 205.221 27.508 204.941 28.02C204.669 28.524 204.533 29.1 204.533 29.748C204.533 30.396 204.673 30.976 204.953 31.488C205.233 32 205.617 32.404 206.105 32.7C206.593 32.996 207.149 33.144 207.773 33.144ZM207.677 27.384C208.005 27.384 208.305 27.46 208.577 27.612C208.849 27.756 209.069 27.96 209.237 28.224C209.405 28.488 209.493 28.792 209.501 29.136H205.733C205.813 28.592 206.037 28.164 206.405 27.852C206.773 27.54 207.197 27.384 207.677 27.384ZM50.352 52H51.42L52.956 47.128L54.492 52H55.56L57.78 45.532H56.556L54.996 50.272L53.484 45.532H52.428L50.916 50.272L49.368 45.532H48.132L50.352 52ZM61.5169 52.144C62.1809 52.144 62.7569 51.988 63.2449 51.676C63.7329 51.364 64.0769 50.984 64.2769 50.536L63.3409 50.056C63.1569 50.368 62.9169 50.624 62.6209 50.824C62.3249 51.024 61.9609 51.124 61.5289 51.124C61.1689 51.124 60.8329 51.044 60.5209 50.884C60.2169 50.716 59.9649 50.48 59.7649 50.176C59.5729 49.872 59.4689 49.512 59.4529 49.096H64.3969C64.4369 48.88 64.4569 48.68 64.4569 48.496C64.4569 47.96 64.3369 47.456 64.0969 46.984C63.8569 46.512 63.5089 46.128 63.0529 45.832C62.6049 45.536 62.0609 45.388 61.4209 45.388C60.8209 45.388 60.2849 45.532 59.8129 45.82C59.3409 46.108 58.9649 46.508 58.6849 47.02C58.4129 47.524 58.2769 48.1 58.2769 48.748C58.2769 49.396 58.4169 49.976 58.6969 50.488C58.9769 51 59.3609 51.404 59.8489 51.7C60.3369 51.996 60.8929 52.144 61.5169 52.144ZM61.4209 46.384C61.7489 46.384 62.0489 46.46 62.3209 46.612C62.5929 46.756 62.8129 46.96 62.9809 47.224C63.1489 47.488 63.2369 47.792 63.2449 48.136H59.4769C59.5569 47.592 59.7809 47.164 60.1489 46.852C60.5169 46.54 60.9409 46.384 61.4209 46.384ZM69.2342 52H70.3022L71.8382 47.128L73.3742 52H74.4422L76.6622 45.532H75.4382L73.8782 50.272L72.3662 45.532H71.3102L69.7982 50.272L68.2502 45.532H67.0142L69.2342 52ZM79.2019 52.144C79.6739 52.144 80.0979 52.056 80.4739 51.88C80.8499 51.696 81.1539 51.456 81.3859 51.16V52H82.4779V47.608C82.4779 47.168 82.3699 46.784 82.1539 46.456C81.9459 46.12 81.6539 45.86 81.2779 45.676C80.9019 45.484 80.4659 45.388 79.9699 45.388C79.5859 45.388 79.2179 45.456 78.8659 45.592C78.5139 45.728 78.2059 45.916 77.9419 46.156C77.6779 46.388 77.4859 46.652 77.3659 46.948L78.3379 47.452C78.4739 47.148 78.6819 46.9 78.9619 46.708C79.2419 46.516 79.5699 46.42 79.9459 46.42C80.3699 46.42 80.7099 46.532 80.9659 46.756C81.2299 46.972 81.3619 47.256 81.3619 47.608V47.908L79.1539 48.268C78.4259 48.388 77.8899 48.632 77.5459 49C77.2099 49.36 77.0419 49.796 77.0419 50.308C77.0419 50.852 77.2419 51.296 77.6419 51.64C78.0499 51.976 78.5699 52.144 79.2019 52.144ZM78.2179 50.272C78.2179 49.992 78.3099 49.756 78.4939 49.564C78.6859 49.372 78.9899 49.24 79.4059 49.168L81.3619 48.844V49.252C81.3619 49.612 81.2779 49.94 81.1099 50.236C80.9419 50.532 80.7059 50.768 80.4019 50.944C80.0979 51.112 79.7419 51.196 79.3339 51.196C79.0139 51.196 78.7459 51.108 78.5299 50.932C78.3219 50.756 78.2179 50.536 78.2179 50.272ZM84.0882 52H85.2042V48.172C85.2042 47.644 85.3522 47.228 85.6482 46.924C85.9442 46.62 86.3202 46.468 86.7762 46.468C87.2322 46.468 87.6042 46.62 87.8922 46.924C88.1802 47.22 88.3242 47.636 88.3242 48.172V52H89.4522V47.812C89.4522 47.348 89.3442 46.936 89.1282 46.576C88.9202 46.208 88.6322 45.92 88.2642 45.712C87.9042 45.496 87.4922 45.388 87.0282 45.388C86.6282 45.388 86.2682 45.472 85.9482 45.64C85.6282 45.8 85.3722 46.028 85.1802 46.324V45.532H84.0882V52ZM93.5572 52.072C93.6452 52.072 93.7532 52.068 93.8812 52.06C94.0092 52.052 94.1252 52.036 94.2292 52.012V51.016C94.1572 51.024 94.0812 51.032 94.0012 51.04C93.9212 51.048 93.8492 51.052 93.7852 51.052C93.3932 51.052 93.1132 50.956 92.9452 50.764C92.7852 50.564 92.7052 50.3 92.7052 49.972V46.6H94.1572V45.532H92.7052V44.044H91.5892V44.572C91.5892 44.868 91.5052 45.104 91.3372 45.28C91.1692 45.448 90.9412 45.532 90.6532 45.532H90.4132V46.6H91.5892V50.008C91.5892 50.664 91.7572 51.172 92.0932 51.532C92.4372 51.892 92.9252 52.072 93.5572 52.072ZM98.3672 52.144C99.0312 52.144 99.6072 51.988 100.095 51.676C100.583 51.364 100.927 50.984 101.127 50.536L100.191 50.056C100.007 50.368 99.7672 50.624 99.4712 50.824C99.1752 51.024 98.8112 51.124 98.3792 51.124C98.0192 51.124 97.6832 51.044 97.3712 50.884C97.0672 50.716 96.8152 50.48 96.6152 50.176C96.4232 49.872 96.3192 49.512 96.3032 49.096H101.247C101.287 48.88 101.307 48.68 101.307 48.496C101.307 47.96 101.187 47.456 100.947 46.984C100.707 46.512 100.359 46.128 99.9032 45.832C99.4552 45.536 98.9112 45.388 98.2712 45.388C97.6712 45.388 97.1352 45.532 96.6632 45.82C96.1912 46.108 95.8152 46.508 95.5352 47.02C95.2632 47.524 95.1272 48.1 95.1272 48.748C95.1272 49.396 95.2672 49.976 95.5472 50.488C95.8272 51 96.2112 51.404 96.6992 51.7C97.1872 51.996 97.7432 52.144 98.3672 52.144ZM98.2712 46.384C98.5992 46.384 98.8992 46.46 99.1712 46.612C99.4432 46.756 99.6632 46.96 99.8312 47.224C99.9992 47.488 100.087 47.792 100.095 48.136H96.3272C96.4072 47.592 96.6312 47.164 96.9992 46.852C97.3672 46.54 97.7912 46.384 98.2712 46.384ZM105.582 52.144C106.062 52.144 106.498 52.052 106.89 51.868C107.29 51.676 107.61 51.404 107.85 51.052V52H108.942V42.916H107.814V46.396C107.566 46.076 107.25 45.828 106.866 45.652C106.482 45.476 106.054 45.388 105.582 45.388C104.974 45.388 104.426 45.536 103.938 45.832C103.458 46.128 103.078 46.532 102.798 47.044C102.518 47.548 102.378 48.124 102.378 48.772C102.378 49.412 102.518 49.988 102.798 50.5C103.078 51.004 103.458 51.404 103.938 51.7C104.426 51.996 104.974 52.144 105.582 52.144ZM105.678 51.064C105.27 51.064 104.906 50.964 104.586 50.764C104.266 50.564 104.014 50.292 103.83 49.948C103.646 49.596 103.554 49.204 103.554 48.772C103.554 48.332 103.646 47.94 103.83 47.596C104.014 47.244 104.266 46.968 104.586 46.768C104.914 46.568 105.278 46.468 105.678 46.468C106.086 46.468 106.45 46.572 106.77 46.78C107.09 46.98 107.342 47.252 107.526 47.596C107.718 47.94 107.814 48.332 107.814 48.772C107.814 49.204 107.718 49.596 107.526 49.948C107.342 50.292 107.09 50.564 106.77 50.764C106.45 50.964 106.086 51.064 105.678 51.064ZM111.006 52H112.17V50.56H111.006V52Z" fill="#000929"/>
</svg>
