<svg width="64" height="64" viewBox="0 0 64 64" fill="none" xmlns="http://www.w3.org/2000/svg">
<circle cx="32" cy="32" r="32" fill="#100A55"/>
<path d="M27.9998 45.3334H35.9998C42.6665 45.3334 45.3332 42.6667 45.3332 36.0001V28.0001C45.3332 21.3334 42.6665 18.6667 35.9998 18.6667H27.9998C21.3332 18.6667 18.6665 21.3334 18.6665 28.0001V36.0001C18.6665 42.6667 21.3332 45.3334 27.9998 45.3334Z" stroke="white" stroke-width="3" stroke-linecap="round" stroke-linejoin="round"/>
<path d="M28.1333 31.9997V30.0264C28.1333 27.4797 29.9333 26.4531 32.1333 27.7197L33.84 28.7064L35.5466 29.6931C37.7466 30.9597 37.7466 33.0397 35.5466 34.3064L33.84 35.2931L32.1333 36.2797C29.9333 37.5464 28.1333 36.5064 28.1333 33.9731V31.9997Z" stroke="white" stroke-width="3" stroke-miterlimit="10" stroke-linecap="round" stroke-linejoin="round"/>
</svg>
