<svg width="32" height="32" viewBox="0 0 32 32" fill="none" xmlns="http://www.w3.org/2000/svg">
<g clip-path="url(#clip0_458_301)">
<path d="M25.333 11.6134L18.2224 6.08277C17.5984 5.59731 16.8303 5.33374 16.0397 5.33374C15.2491 5.33374 14.4811 5.59731 13.857 6.08277L6.74505 11.6134C6.31764 11.9458 5.97184 12.3715 5.73405 12.8579C5.49627 13.3443 5.37279 13.8787 5.37305 14.4201V24.0201C5.37305 24.7273 5.654 25.4056 6.1541 25.9057C6.65419 26.4058 7.33247 26.6868 8.03971 26.6868H24.0397C24.747 26.6868 25.4252 26.4058 25.9253 25.9057C26.4254 25.4056 26.7064 24.7273 26.7064 24.0201V14.4201C26.7064 13.3228 26.1997 12.2868 25.333 11.6134Z" fill="#7065F0" stroke="#7065F0" stroke-width="3" stroke-linecap="round" stroke-linejoin="round"/>
<path d="M21.3337 20C18.387 21.7773 13.611 21.7773 10.667 20" stroke="#F9FAFB" stroke-width="3" stroke-linecap="round" stroke-linejoin="round"/>
</g>
<defs>
<clipPath id="clip0_458_301">
<rect width="32" height="32" fill="white"/>
</clipPath>
</defs>
</svg>
